<svg width="766" height="82" viewBox="0 0 766 82" fill="none" xmlns="http://www.w3.org/2000/svg">
<path d="M725.398 81.8206C724.368 81.3054 723.51 80.7903 722.307 81.1337C721.277 81.3054 720.419 80.7903 719.56 80.4468C719.045 80.2751 718.701 79.76 718.701 79.2448C718.701 78.5579 718.873 77.8711 718.701 77.1842C718.358 74.9519 719.388 73.2347 720.419 71.3458C720.934 70.4872 721.621 69.8003 722.136 69.1135C722.479 68.5983 722.823 68.2549 722.994 67.7397C723.166 66.0226 724.368 65.164 725.398 63.962C726.944 62.4165 728.489 60.871 730.035 59.3256C730.55 58.8104 731.237 58.1236 731.752 57.4367C731.924 57.0933 732.095 56.7498 732.095 56.4064C732.095 55.8912 731.58 55.7195 731.237 55.7195C730.035 55.7195 728.833 55.5478 727.459 55.5478C723.166 55.3761 718.873 55.3761 714.752 55.2044C708.398 55.0327 702.045 54.8609 695.863 54.6892C695.176 54.6892 694.489 54.6892 693.802 54.6892C690.883 54.3458 687.792 54.3458 684.701 54.1741C681.095 54.1741 677.489 54.0023 674.055 53.8306C667.701 53.6589 661.52 53.3155 655.166 52.972C652.59 52.8003 650.015 52.6286 647.439 52.4569C643.833 52.2852 640.227 52.2852 636.792 52.1135C633.014 51.9417 629.408 51.77 625.631 51.4266C624.429 51.4266 623.227 51.0832 622.025 50.3963C621.509 50.0529 620.823 49.8811 620.136 49.8811C618.59 49.7094 617.045 49.5377 615.671 49.7094C611.206 49.7094 606.913 49.366 602.449 49.1943C601.762 49.1943 601.075 49.1943 600.388 49.1943C594.035 49.366 587.853 48.6791 581.499 48.5074C580.641 48.5074 579.782 48.164 579.61 47.3054C579.439 46.6185 578.924 46.4468 578.408 46.2751C577.035 45.9316 575.661 45.7599 574.287 45.7599C570.853 45.7599 567.418 45.4165 563.984 45.073C563.641 45.073 563.469 45.073 563.126 45.073C560.206 44.3862 557.115 44.2145 554.196 44.5579C553.509 44.5579 552.822 44.3862 552.136 44.2145C551.964 44.2145 551.62 44.0427 551.449 43.6993C551.277 42.8407 550.762 42.669 549.903 42.669C548.186 42.4973 546.297 42.3256 544.58 42.3256C543.55 42.3256 542.691 42.3256 541.833 41.9821C541.317 41.8104 540.802 41.8104 540.287 41.8104C539.944 41.8104 539.429 41.9821 539.085 41.9821C535.994 41.9821 532.732 41.467 529.641 41.8104C527.065 41.1235 524.489 41.2953 521.913 40.9518C517.449 40.4367 512.812 40.7801 508.348 41.2953C506.631 41.467 504.742 41.6387 503.024 41.2953C501.994 41.1235 501.136 40.9518 500.277 40.6084C498.56 39.9215 496.843 39.9215 495.125 40.265C492.378 40.7801 489.631 40.7801 487.055 39.5781C486.196 39.2346 485.166 39.0629 484.307 39.0629C483.449 39.0629 482.59 39.2347 481.903 39.4064C480.873 39.5781 479.671 39.9215 478.641 39.7498C475.721 39.4064 472.802 39.9215 470.055 39.5781C467.994 39.4064 465.934 38.8912 464.045 38.3761C463.014 38.0326 461.984 38.0326 460.782 38.2043C459.237 38.7195 457.519 38.3761 455.802 38.2043C453.742 37.8609 451.681 37.6892 449.62 38.2043C449.277 38.2043 449.105 38.3761 448.762 38.3761C446.014 38.2043 443.267 38.0326 440.519 38.3761C440.004 38.3761 439.489 38.2043 438.974 38.0326C437.772 37.6892 436.57 37.5175 435.368 37.8609C434.681 38.0326 433.994 38.0326 433.307 37.8609C432.105 37.3458 430.903 37.5175 429.701 37.6892C427.469 38.0326 425.065 38.2043 422.661 38.0326C419.398 37.6892 416.135 37.6892 412.873 37.3458C412.014 37.174 410.984 37.3458 409.954 37.5175C406.519 37.6892 403.085 37.8609 399.651 37.174C399.307 37.174 399.135 37.0023 398.792 37.0023C396.216 37.3458 393.641 36.8306 391.065 36.6589C389.348 36.4872 387.802 36.8306 386.257 37.3458C386.257 37.3458 386.085 37.5175 386.085 37.6892C386.085 37.8609 386.257 38.0326 386.257 38.0326C388.661 38.3761 391.236 38.5478 393.641 38.5478C394.499 38.5478 395.186 38.7195 396.045 38.8912C396.045 38.8912 396.216 39.0629 396.216 39.2346C396.216 39.4064 396.045 39.5781 396.045 39.5781C395.358 39.5781 394.671 39.7498 393.984 39.5781C392.267 39.2346 390.721 39.2346 389.004 39.2346C386.6 39.2346 384.024 39.0629 381.62 39.0629C377.156 38.8912 372.863 38.8912 368.398 38.7195C366.509 38.7195 364.62 38.5478 362.56 38.3761C356.034 38.2043 349.681 38.0326 343.156 38.0326C339.378 38.0326 335.428 37.8609 331.651 37.6892C327.701 37.5175 323.752 37.5175 319.802 37.3458C319.115 37.3458 318.428 37.3458 317.741 37.174C317.741 37.0023 317.741 36.8306 317.913 36.8306C318.085 36.8306 318.257 36.8306 318.257 36.8306C319.974 36.8306 321.863 36.6589 323.58 36.6589C324.61 36.6589 325.469 36.6589 326.327 36.1437C326.499 35.972 326.671 35.8003 326.671 35.4569C326.671 35.4569 326.499 35.2851 326.327 35.1134C324.095 34.4266 321.691 34.4266 319.459 34.5983C317.226 34.77 314.994 34.77 312.933 34.4266C311.388 34.2548 309.842 34.2548 308.469 34.5983C306.923 34.9417 305.206 34.9417 303.489 34.9417C301.772 34.77 299.883 34.9417 298.166 34.9417C296.449 34.9417 294.56 34.77 292.842 34.77C292.156 34.77 291.469 34.9417 290.782 35.1134C290.782 35.1134 290.782 35.2851 290.782 35.4569C290.782 35.6286 290.954 35.6286 291.125 35.6286C294.044 35.972 296.792 36.4872 299.711 36.3154C301.943 36.1437 304.176 36.3154 306.236 36.4872C306.752 36.4872 307.267 36.6589 307.954 36.8306C307.267 37.3458 306.58 37.174 305.893 37.3458C305.034 37.5175 304.176 37.5175 303.489 37.5175C299.196 37.174 294.903 37.5175 290.782 37.5175C286.317 37.5175 282.024 37.5175 277.56 37.5175C274.984 37.5175 272.408 37.6892 269.661 37.6892C268.974 37.6892 268.287 37.8609 267.772 37.174C267.943 37.0023 267.943 37.0023 268.115 37.0023C269.145 37.0023 270.347 36.8306 271.378 36.8306C273.782 37.0023 276.358 36.8306 278.762 36.6589C280.307 36.4872 281.681 36.1437 283.226 35.2851C282.539 35.1134 282.196 34.9417 281.853 34.9417C278.933 35.1134 276.014 34.77 273.267 34.5983C270.691 34.4266 268.115 34.0831 265.539 34.77C264.681 34.9417 263.651 34.5983 262.964 33.9114C262.62 33.7397 262.105 33.7397 261.762 33.568C261.418 33.3963 261.246 33.3963 261.418 33.7397C261.418 33.7397 261.59 33.9114 261.762 33.9114C262.105 33.9114 262.62 33.9114 262.964 33.9114C261.075 35.4569 258.842 35.8003 256.438 35.4569C253.176 34.77 249.913 34.77 246.651 34.9417C244.762 34.9417 242.873 34.9417 240.812 34.77C240.469 34.77 239.953 34.5983 239.61 34.4266C238.236 33.2245 236.863 33.568 235.317 33.7397C235.145 33.7397 235.145 34.2548 234.974 34.4266C233.772 35.2851 232.57 35.8003 231.196 35.4569C227.075 34.5983 222.954 35.1134 218.832 35.2851C216.772 35.4569 214.711 35.4569 212.651 35.4569C209.731 35.2851 206.812 35.2851 204.065 35.8003C203.378 35.972 202.691 35.8003 202.004 35.8003C199.428 35.6286 196.852 35.6286 194.277 35.4569C193.59 35.4569 192.903 35.4569 192.216 35.8003C190.842 36.1437 189.469 36.1437 188.095 35.6286C186.549 34.9417 184.832 34.9417 183.287 34.9417C179.166 34.9417 175.216 34.77 170.236 34.5983C173.499 33.9114 175.903 33.9114 178.307 33.9114C179.509 33.9114 180.711 33.9114 182.085 33.9114C182.772 33.9114 183.458 33.568 183.802 33.0528C184.317 32.0225 185.004 31.6791 186.034 31.6791C187.236 31.6791 188.61 31.8508 189.812 31.6791C192.044 31.3356 194.105 31.1639 196.337 31.5074C196.852 31.6791 197.539 31.5074 197.883 30.9922C199.085 29.275 200.802 29.6185 202.347 30.1336C203.549 30.6488 204.752 30.8205 205.954 30.4771C206.64 30.3053 207.327 30.3053 208.014 30.4771C209.56 30.8205 210.933 30.6488 212.307 29.7902C212.65 29.4468 213.337 29.4468 213.852 29.6185C215.913 30.3053 217.974 30.1336 220.034 29.9619C221.751 29.7902 223.64 29.7902 225.358 29.9619C226.388 30.1336 227.59 30.1336 228.62 29.4468C229.479 28.9316 230.337 28.7599 231.368 28.9316C232.055 29.1033 232.741 29.1033 233.428 29.275C234.459 29.4468 235.661 29.4468 236.691 29.1033C238.065 28.5882 239.438 28.5882 240.64 28.7599C241.671 29.1033 242.701 28.9316 243.903 28.7599C245.448 28.4164 247.166 28.5882 248.883 28.5882C250.6 28.5882 252.145 28.5882 253.863 28.5882C256.61 28.4164 259.358 28.5882 262.105 29.1033C263.135 29.275 263.994 29.275 264.853 28.5882C265.539 28.073 266.398 28.073 267.257 28.4165C267.772 28.5882 268.287 28.7599 268.802 28.9316C270.347 29.4468 271.721 29.4468 273.267 28.7599C274.297 28.073 275.499 27.9013 276.873 28.073C279.277 28.2447 281.509 28.2447 283.913 27.9013C285.974 27.5579 288.206 27.3861 290.438 27.7296C291.984 28.073 293.529 27.9013 294.903 27.5579C297.651 27.0427 300.398 27.3861 302.974 28.4165C303.489 28.5882 304.004 28.9316 304.519 28.7599C306.236 28.2447 307.782 28.9316 309.327 28.9316C311.388 29.1033 313.449 29.1033 315.337 28.2447C316.024 27.9013 316.711 27.9013 317.226 27.7296C318.085 29.1033 318.085 29.1033 318.944 29.1033C319.974 29.1033 320.832 29.1033 321.519 28.073C321.863 27.5579 322.378 27.3861 322.893 27.3861C323.752 27.3861 324.61 27.5579 325.297 27.5579C325.812 27.5579 326.499 27.7296 326.842 27.2144C327.014 26.871 327.014 26.5276 327.186 26.0124C327.358 25.4973 327.701 24.9821 328.216 24.9821C331.135 24.9821 334.055 24.8104 336.802 24.8104C338.519 24.8104 340.065 25.1538 341.782 24.9821C342.469 24.9821 343.156 25.1538 343.843 25.3255C344.186 25.3255 344.701 25.4973 345.045 25.4973C347.792 24.8104 350.539 25.3255 353.287 25.3255C355.348 25.3255 357.408 25.3255 359.469 25.1538C360.327 24.9821 361.358 24.9821 362.388 25.1538C365.307 25.8407 368.055 25.669 370.974 25.3255C373.034 25.1538 375.095 25.669 376.984 26.0124C377.156 26.0124 377.327 26.3558 377.499 26.6993C377.671 27.0427 377.156 27.5579 376.812 27.5579C376.469 27.7296 375.954 27.9013 375.61 27.9013C374.236 27.9013 372.863 27.9013 371.489 27.7296C370.459 27.5579 369.257 27.3862 368.226 27.7296C367.368 27.9013 366.681 27.7296 365.822 27.3862C365.651 27.2144 365.307 27.2144 364.964 27.2144C364.62 27.2144 364.105 27.5579 364.105 27.9013C364.277 28.073 364.449 28.4165 364.62 28.4165C366.509 28.5882 368.398 28.9316 370.287 28.7599C374.065 28.5882 378.014 28.5882 381.792 29.275C381.964 29.275 382.135 29.275 382.135 29.275C382.479 29.1033 382.822 28.7599 382.994 28.4165C382.994 28.2447 382.822 27.9013 382.651 27.7296C382.307 27.3862 381.964 27.2144 381.62 27.0427C381.449 27.0427 381.449 26.6993 381.449 26.6993C381.62 26.5276 381.792 26.1841 381.964 26.1841C382.307 26.0124 382.822 26.0124 383.166 26.0124C384.196 26.1841 385.398 26.1841 386.428 26.5276C388.489 27.2144 390.378 27.3862 392.439 27.2144C393.469 27.2144 394.327 27.5579 395.186 27.9013C393.984 27.7296 392.782 27.7296 391.58 27.5579C391.237 27.5579 391.065 27.5579 390.721 27.7296C390.378 27.7296 389.863 28.2447 390.034 28.5882C390.206 28.7599 390.378 29.1033 390.55 29.1033C391.408 29.275 392.439 29.275 393.297 29.275C394.156 29.275 394.671 28.5882 394.843 27.7296C395.186 27.7296 395.701 27.5579 396.045 27.5579C396.56 27.3862 397.247 27.5579 397.418 28.073C397.762 28.9316 398.449 29.275 399.307 29.4468C400.166 29.4468 401.024 29.6185 401.711 29.6185C404.802 29.7902 407.721 29.7902 410.812 29.7902C411.327 29.7902 411.843 29.4468 411.671 29.1033C411.499 28.9316 411.327 28.5882 411.156 28.5882C410.297 28.4165 409.61 28.4165 408.752 28.2447C408.408 28.2447 407.893 28.073 407.55 27.9013C407.378 27.7296 407.206 27.5579 407.034 27.3862C407.034 27.2144 407.206 26.871 407.378 26.871C407.55 26.6993 407.893 26.6993 408.237 26.6993C412.186 26.6993 416.135 26.6993 420.085 27.2144C420.257 27.2144 420.6 27.5579 420.6 27.7296C420.772 28.073 420.6 28.2447 420.257 28.2447C419.398 28.4165 418.711 28.5882 417.853 28.7599C417.681 28.7599 417.681 29.1033 417.681 29.4468C417.681 29.4468 417.853 29.6185 417.853 29.7902C418.711 29.9619 419.742 30.1336 420.6 30.1336C423.176 30.3053 425.752 29.9619 428.327 30.6488C431.934 30.3053 435.711 31.3357 439.317 30.6488C439.661 30.6488 440.176 30.6488 440.519 30.6488C442.237 31.1639 444.125 30.9922 445.843 30.9922C448.934 30.9922 452.196 30.9922 455.287 31.5074C457.863 31.8508 460.439 31.6791 463.014 31.8508C463.873 31.8508 464.732 31.8508 465.418 32.0225C467.822 32.7094 470.398 32.5377 472.802 32.5377C474.691 32.5377 476.58 32.5377 478.641 32.5377C478.984 32.5377 479.156 32.5377 479.499 32.5377C481.216 32.5377 483.105 32.366 484.822 32.5377C486.54 32.5377 488.428 32.8811 490.146 33.0528C493.065 33.3963 495.812 33.568 498.732 33.9114C499.247 33.9114 499.762 34.0831 500.449 34.0831C507.833 34.2548 515.216 34.9417 522.6 35.2852C527.752 35.4569 533.075 35.972 538.227 36.3155C538.913 36.3155 539.6 36.4872 540.287 36.3155C542.348 35.972 544.408 36.1437 546.297 36.6589C549.216 37.3458 551.964 37.3458 554.883 37.174C555.913 37.0023 556.772 37.0023 557.631 37.5175C558.661 38.0326 559.691 38.0326 560.893 38.0326C562.267 37.8609 563.641 38.0326 565.014 38.2044C566.216 38.3761 567.418 38.3761 568.792 38.3761C572.57 38.3761 576.519 38.3761 580.297 38.3761C581.328 38.3761 582.186 38.3761 583.216 38.3761C585.964 38.5478 588.711 38.8912 591.459 38.5478C592.489 38.3761 593.691 38.7195 594.722 38.7195C596.782 38.8912 598.843 39.0629 600.903 38.5478C601.59 38.3761 602.277 38.2044 602.964 38.3761C608.115 38.7195 613.439 38.0326 618.59 38.8912C621.166 39.2347 623.742 39.2347 626.318 39.2347C626.833 39.2347 627.348 38.8912 627.863 38.7195C627.863 38.7195 628.035 38.5478 628.035 38.3761C628.035 38.2044 628.035 38.0326 627.863 38.0326C627.52 37.8609 627.176 37.5175 626.833 37.5175C624.085 37.8609 621.338 37.174 618.59 37.174C618.419 37.174 618.247 36.8306 618.075 36.6589C618.247 36.6589 618.247 36.4872 618.419 36.4872C622.196 36.4872 626.146 36.3155 629.924 36.4872C633.873 36.6589 637.823 36.4872 641.772 36.4872C644.004 36.4872 646.237 36.4872 648.297 36.4872C650.701 36.4872 652.934 36.8306 655.338 36.8306C657.57 36.8306 659.631 36.6589 661.863 36.6589C664.267 36.6589 666.843 36.6589 669.247 36.8306C673.196 37.1741 677.146 36.8306 681.095 36.8306C682.126 36.8306 683.328 36.8306 684.358 36.8306C693.459 37.6892 702.388 37.8609 711.489 38.0326C715.611 38.2044 719.732 38.2044 723.853 38.2044C724.712 38.2044 725.57 38.2044 726.257 37.8609C726.6 37.6892 726.772 37.1741 726.6 36.8306C726.429 36.4872 726.085 36.1438 725.914 35.8003C725.398 35.2852 724.883 34.77 724.368 34.4266C720.075 30.6488 716.469 26.1841 712.863 21.5478C711.318 19.6589 709.772 17.5983 708.914 15.1942C708.742 14.6791 708.398 14.1639 708.227 13.8205C705.994 10.7296 706.509 7.63867 708.398 4.71948C708.742 4.20433 709.085 3.86089 709.257 3.34574C709.429 1.45685 710.974 1.11342 712.348 0.426547C712.52 0.25483 712.863 0.25483 713.206 0.426547C714.237 0.941699 715.267 0.941699 716.297 0.25483C717.156 -0.260322 717.843 0.0831127 718.53 0.598265C720.934 2.83059 723.338 5.06291 725.398 7.63867C731.237 14.6791 737.934 20.6892 744.974 26.3559C747.722 28.5882 750.641 30.6488 753.388 32.8811C754.934 34.0831 756.479 35.1134 757.853 36.4872C759.055 37.5175 760.257 38.7195 761.802 39.4064C763.176 40.0933 763.863 41.1236 764.035 42.669C764.035 43.1842 764.378 43.6993 764.378 44.2145C765.409 46.2751 765.409 46.7902 765.065 47.1337C764.55 47.8205 764.722 48.3357 764.893 49.0225C765.237 50.0529 765.065 51.0832 764.207 51.5983C762.146 52.972 761.287 55.2044 760.429 57.265C760.085 58.2953 759.398 59.1539 758.54 60.0125C757.338 61.0428 756.308 61.9013 754.934 62.7599C749.267 66.1943 744.287 70.4872 739.308 74.7802C738.621 75.2953 738.105 75.8105 737.419 76.4973C736.56 77.1842 735.701 77.8711 734.671 78.2145C734.328 78.2145 734.156 78.3862 733.984 78.5579C731.924 80.2751 729.176 80.4468 726.772 81.3054C726.429 81.3054 725.914 81.6488 725.398 81.8206ZM334.398 28.4165C335.257 28.7599 336.115 29.275 336.974 29.6185C337.317 29.7902 337.661 29.4468 338.004 29.275C338.004 29.275 338.176 29.1033 338.004 28.9316C338.004 28.7599 337.832 28.5882 337.832 28.5882C336.63 28.2447 335.6 28.9316 334.398 28.4165C334.055 28.073 333.883 27.5579 333.711 27.2144C333.711 27.0427 333.196 27.0427 333.024 27.0427C332.853 27.0427 332.681 27.3862 332.509 27.5579C332.509 27.7296 332.681 28.073 332.853 28.2447C333.368 28.4165 333.883 28.4165 334.398 28.4165ZM341.61 36.4872C344.186 36.6589 346.762 36.8306 349.337 36.8306C349.681 36.8306 350.196 36.8306 350.539 36.8306C351.055 36.8306 351.57 36.6589 352.085 36.4872C352.257 36.4872 352.428 36.3154 352.257 36.3154C352.257 36.1437 352.085 35.8003 351.913 35.6286C351.742 35.4569 351.398 35.4569 351.226 35.4569C348.135 35.6286 344.873 35.2851 341.782 35.972C341.61 35.972 341.438 36.1437 341.438 36.1437C341.438 36.1437 341.61 36.3154 341.61 36.4872ZM584.418 48.5074C585.62 48.3357 586.307 48.3357 586.994 48.3357C587.166 48.3357 587.338 48.3357 587.338 48.164C587.681 47.9922 587.853 47.8205 587.681 47.6488C587.681 47.4771 587.509 47.4771 587.338 47.3054C585.621 46.6185 583.732 46.4468 581.843 46.9619C581.671 46.9619 581.499 47.1337 581.499 47.3054C581.499 47.4771 581.499 47.8205 581.671 47.9922C581.843 48.164 582.014 48.3357 582.358 48.3357C583.388 48.5074 584.247 48.5074 584.418 48.5074ZM376.297 37.6892C377.156 37.5175 378.014 37.5175 378.701 37.3458C379.045 37.3458 379.216 37.0023 379.045 36.8306C379.045 36.6589 378.873 36.4872 378.873 36.4872C377.843 35.972 376.641 35.6286 375.438 35.972C375.267 35.972 374.923 36.1437 374.752 36.3155C374.58 36.4872 374.408 36.8306 374.408 37.0023C374.408 37.174 374.58 37.5175 374.752 37.5175C375.267 37.6892 375.782 37.6892 376.297 37.6892ZM332.166 36.8306C333.539 37.174 335.085 36.8306 336.63 36.6589C336.802 36.6589 336.974 36.4872 336.974 36.4872C336.974 36.3154 336.802 35.972 336.63 35.972C335.6 35.6286 334.57 35.2851 333.368 35.2851C332.681 35.2851 331.994 35.4569 331.307 35.6286C331.135 35.6286 330.964 35.8003 331.135 35.972C331.135 36.1437 331.307 36.4872 331.479 36.6589C331.479 36.4872 331.822 36.6589 332.166 36.8306ZM369.428 36.1437C368.742 36.1437 368.57 36.1437 368.226 36.1437C368.055 36.1437 367.711 36.4872 367.711 36.6589C367.711 36.8306 367.883 37.174 368.226 37.174C368.913 37.5175 369.772 37.5175 370.63 37.3458C370.802 37.3458 370.974 37.174 370.974 37.174C370.974 37.0023 370.802 36.4872 370.63 36.4872C370.287 36.3155 369.6 36.1437 369.428 36.1437ZM351.398 28.073C351.226 27.9013 351.226 27.7296 351.055 27.7296C349.166 27.3861 347.277 27.3862 345.388 27.5579C345.216 27.5579 345.045 27.7296 345.045 27.7296C345.045 27.9013 345.216 28.2447 345.388 28.2447C347.964 28.9316 348.994 28.7599 351.398 28.073ZM190.671 33.0528C192.044 33.568 193.246 33.7397 194.62 33.3962C194.792 33.3962 194.964 33.0528 195.135 32.8811C194.964 32.7094 194.964 32.7094 194.792 32.7094C193.418 32.3659 192.044 32.3659 190.671 33.0528ZM216.257 32.3659C217.802 32.7094 218.832 33.0528 220.034 32.7094C220.206 32.7094 220.206 32.3659 220.378 32.1942C220.378 32.1942 220.206 32.0225 220.034 32.0225C219.004 31.6791 217.802 31.5074 216.257 32.3659ZM245.105 34.2548C245.62 34.2548 245.792 34.2548 246.135 34.2548C246.479 34.2548 246.651 34.0831 246.651 33.9114C246.651 33.7397 246.479 33.7397 246.307 33.7397C245.792 33.7397 245.277 33.7397 244.762 33.7397C244.418 33.7397 244.246 33.9114 244.246 34.0831C244.246 34.0831 244.418 34.2548 244.59 34.2548C244.933 34.2548 245.105 34.2548 245.105 34.2548ZM228.62 32.3659C228.792 32.3659 228.964 32.3659 228.964 32.3659C229.135 32.3659 229.307 32.1942 229.307 32.0225C229.307 31.6791 229.135 31.5074 228.792 31.6791C228.62 31.6791 228.448 32.0225 228.277 32.1942C228.448 32.1942 228.62 32.1942 228.62 32.3659ZM360.671 28.4165C361.014 28.4165 361.186 28.2447 361.186 28.073C361.186 28.073 361.014 27.9013 360.843 27.9013C360.499 27.9013 360.327 28.073 360.327 28.2447C360.327 28.4165 360.499 28.4165 360.671 28.4165ZM385.398 28.7599C385.398 28.9316 385.57 29.1033 385.57 29.1033C385.742 29.1033 386.085 28.9316 386.257 28.9316C386.257 28.7599 386.085 28.5882 386.085 28.5882C385.913 28.7599 385.57 28.7599 385.398 28.7599ZM357.065 36.4872L357.065 36.1437L356.893 36.3154L357.065 36.4872ZM210.933 34.5983L210.933 34.9417L211.105 34.77L210.933 34.5983ZM363.933 36.3155C363.933 36.1437 363.762 35.972 363.762 35.972C363.59 35.972 363.418 36.1437 363.075 36.1437C363.075 36.3155 363.247 36.4872 363.247 36.4872C363.418 36.4872 363.59 36.3155 363.933 36.3155ZM250.085 31.5074L249.913 31.3356L249.913 31.5074L250.085 31.5074Z" fill="#E3311D"/>
<path d="M144.479 33.7397C143.792 34.4266 143.105 34.4266 142.59 34.5983C141.388 34.9417 141.388 35.1134 141.388 36.3154C141.388 36.6589 141.388 36.8306 141.388 37.174C141.388 37.8609 140.529 38.5478 140.014 38.376C139.499 38.2043 138.984 38.2043 138.469 38.0326C136.58 37.3457 134.691 37.5175 132.974 38.5478C132.115 39.0629 131.085 39.0629 130.226 38.7195C129.024 38.376 127.994 38.0326 126.792 37.5175C126.62 36.8306 127.135 36.8306 127.479 36.8306C128.681 36.6589 129.883 37.3457 131.085 37.5175C131.085 37.5175 131.256 37.3457 131.428 37.174C131.428 37.0023 131.428 36.8306 131.428 36.8306C131.256 36.6589 131.085 36.3154 130.913 36.3154C130.741 36.1437 130.398 36.1437 130.054 36.1437C126.448 36.4872 123.014 36.1437 119.408 35.972C119.065 35.972 118.549 35.972 118.206 35.8003C118.206 35.8003 118.034 35.6286 118.034 35.4569C118.034 35.2851 118.034 35.1134 118.206 35.1134C118.721 34.9417 119.236 34.5983 119.751 34.5983C121.64 34.5983 123.529 34.4266 125.418 34.4266C126.62 34.4266 127.822 34.2548 129.024 33.568C129.539 33.2245 130.054 33.3962 130.57 33.568C131.085 33.7397 131.6 34.0831 132.115 34.0831C133.832 33.9114 135.378 33.9114 137.095 34.2548C137.438 34.2548 137.953 34.2548 138.297 34.0831C140.014 33.2245 142.075 33.3962 144.479 33.7397ZM137.267 34.9417C136.751 35.1134 136.065 35.1134 135.378 35.2851C135.034 35.2851 134.863 35.6286 135.034 35.972C135.206 36.1437 135.378 36.4872 135.549 36.4872C136.236 36.4872 136.923 36.3154 137.438 36.1437C137.61 36.1437 137.782 35.8003 137.782 35.6286C137.953 35.2851 137.61 35.1134 137.267 34.9417Z" fill="#E3311D"/>
<path d="M105.155 36.4872C104.984 36.1437 105.155 35.972 105.499 35.972C107.731 35.4569 110.135 35.4569 112.368 35.4569C113.054 35.4569 113.57 35.972 114.085 36.3154C115.115 37.3457 116.317 37.6892 117.862 37.6892C118.721 37.6892 119.751 37.6892 120.61 37.6892C120.61 37.6892 120.61 37.8609 120.61 38.0326C120.61 38.2043 120.438 38.2043 120.267 38.2043C119.065 38.376 117.863 38.376 116.661 38.376C115.287 38.376 113.913 38.2043 112.883 37.174C112.196 36.4872 111.166 36.3154 110.307 36.1437C109.277 36.1437 108.418 36.1437 107.388 36.1437C106.873 36.3154 106.014 36.3154 105.155 36.4872Z" fill="#E3311D"/>
<path d="M96.5696 36.4872C96.5696 36.6589 96.3978 36.8306 96.3978 36.8306C95.1958 37.3457 93.8221 37.6892 92.4484 37.5175C92.2767 37.5175 91.9332 37.174 91.9332 37.0023C91.9332 36.8306 92.1049 36.4872 92.2766 36.3154C93.4786 36.1437 94.6807 36.1437 95.8827 36.1437C96.0544 36.1437 96.3978 36.3154 96.5696 36.4872Z" fill="#E3311D"/>
<path d="M2.98364 46.275C2.29675 46.1033 1.43817 45.9316 0.579588 45.5882C0.0644511 45.4165 -0.107302 44.9013 0.0643901 44.7296C0.407835 44.5579 0.75128 44.2144 1.09472 44.2144C1.95331 44.2144 2.4685 44.9013 3.15533 45.4165C3.32709 45.5882 3.49878 45.7599 3.49878 46.1033C3.49878 46.1033 3.15533 46.1033 2.98364 46.275Z" fill="#E3311D"/>
<path d="M175.044 32.5377C174.529 33.0528 174.357 33.2245 174.357 33.2245C172.812 33.2245 171.438 33.0528 169.893 33.0528C169.893 33.0528 169.721 32.8811 169.721 32.7094C169.721 32.5377 169.893 32.5377 169.893 32.3659C170.065 32.3659 170.065 32.1942 170.236 32.1942C171.782 32.1942 173.156 32.8811 175.044 32.5377Z" fill="#E3311D"/>
<path d="M153.236 35.4569C153.065 35.4569 152.893 35.4569 152.893 35.4569C152.549 35.1134 152.206 34.5983 151.863 34.2548C151.691 33.9114 151.691 33.7397 152.034 33.7397C152.206 33.7397 152.378 33.7397 152.378 33.7397C153.065 34.0831 153.58 34.4266 153.58 35.2851C153.408 35.2851 153.236 35.4569 153.236 35.4569Z" fill="#E3311D"/>
<path d="M21.3574 42.1538C21.1857 42.1538 20.8422 41.9821 20.6705 41.8104C20.4988 41.6387 20.4988 41.467 20.3271 41.1235C20.3271 41.1235 20.4988 40.9518 20.6705 40.9518C21.0139 40.9518 21.5291 40.9518 21.8726 40.9518C22.0442 40.9518 22.3877 41.2952 22.216 41.467C22.216 41.6387 21.8725 41.8104 21.7008 41.9821C21.7008 42.1538 21.5291 42.1538 21.3574 42.1538Z" fill="#E3311D"/>
<path d="M163.368 32.8811C162.681 33.568 161.994 33.3962 161.479 33.2245C161.135 33.2245 160.964 33.0528 160.964 32.7094C160.964 32.7094 161.135 32.5377 161.307 32.5377C161.994 32.7094 162.681 32.8811 163.368 32.8811Z" fill="#E3311D"/>
<path d="M260.56 38.0326C260.388 37.8609 260.044 37.8609 259.701 37.6892C259.529 37.6892 259.529 37.5175 259.529 37.3457C259.529 37.0023 259.701 36.8306 260.044 37.0023C260.388 37.0023 260.731 37.174 261.075 37.3457C261.246 37.3457 261.246 37.5175 261.246 37.6892C261.246 37.8609 261.075 38.0326 260.56 38.0326Z" fill="#E3311D"/>
<path d="M184.145 36.4872C183.802 36.4872 183.63 36.3154 183.802 36.1437C183.802 36.1437 183.974 35.972 184.145 36.1437C184.317 36.1437 184.661 36.3154 184.832 36.3154C184.661 36.3154 184.489 36.4872 184.145 36.4872Z" fill="#E3311D"/>
<path d="M425.923 29.6185C425.752 29.6185 425.58 29.6185 425.58 29.6185C425.408 29.4468 425.065 29.275 425.065 29.1033C424.893 28.7599 425.408 28.5882 425.923 28.7599C426.095 28.9316 426.095 29.1033 426.267 29.275C426.267 29.4468 426.095 29.6185 425.923 29.6185Z" fill="#E3311D"/>
<path d="M68.0645 38.8912C67.7211 38.8912 67.5494 38.7195 67.5494 38.376C67.5494 38.2043 67.8928 38.0326 68.0645 38.0326C68.4079 38.0326 68.5796 38.2043 68.5796 38.5478C68.5796 38.8912 68.4079 38.8912 68.0645 38.8912Z" fill="#E3311D"/>
<path d="M99.3171 38.8912C99.1453 38.8912 98.9736 39.0629 98.6302 39.0629C98.4585 39.0629 98.2867 39.0629 98.2867 38.8912C98.2867 38.7195 98.4585 38.5478 98.6302 38.5478C98.8019 38.5478 98.8019 38.5478 98.9736 38.5478C99.317 38.7195 99.3171 38.7195 99.3171 38.8912Z" fill="#E3311D"/>
<path d="M90.7312 40.2649C90.5594 40.0932 90.5594 39.9215 90.3878 39.7498C90.5594 39.7498 90.7311 39.5781 91.0746 39.5781C91.0746 39.5781 91.2463 39.7498 91.2463 39.9215C91.2463 40.0932 91.0746 40.2649 90.7312 40.2649Z" fill="#E3311D"/>
<path d="M163.883 37.174L164.054 37.0023C164.226 37.0023 164.226 37.0023 164.398 37.0023L164.57 37.174C164.226 37.174 164.055 37.174 163.883 37.174Z" fill="#E3311D"/>
<path d="M4.01391 42.3255C3.84222 42.3255 3.84222 42.4973 3.67047 42.4973C3.32702 42.4973 3.15533 42.3255 3.49878 42.1538C3.49878 42.1538 3.67047 42.1538 3.84222 42.1538C4.01391 42.1538 4.01391 42.3255 4.01391 42.3255Z" fill="#E3311D"/>
<path d="M17.0645 43.6993C16.721 44.0427 16.5493 44.2144 16.2059 44.5579C16.0342 44.5579 15.8624 44.7296 15.8624 44.7296C15.519 44.5579 15.6907 44.5579 16.0342 44.3862C16.3776 44.2144 16.721 43.871 17.0645 43.6993Z" fill="#E3311D"/>
<path d="M24.62 43.871C24.62 43.871 24.62 43.6993 24.4483 43.6993C24.62 43.6993 24.6201 43.6993 24.7917 43.6993C24.7917 43.6993 24.7917 43.871 24.9634 43.871C24.7917 43.871 24.7917 43.871 24.62 43.871Z" fill="#E3311D"/>
<path d="M180.368 32.3659C180.539 32.1942 180.711 32.1942 180.883 32.1942C180.883 32.1942 180.883 32.3659 180.711 32.3659C180.539 32.3659 180.539 32.3659 180.368 32.3659Z" fill="#E3311D"/>
<path d="M435.883 29.1033C436.055 29.1033 436.226 29.1033 436.226 29.1033C436.398 29.275 436.398 29.4468 436.055 29.6185L435.883 29.4468C435.711 29.275 435.883 29.1033 435.883 29.1033Z" fill="#E3311D"/>
<path d="M17.0645 43.6993C17.7513 43.6993 18.2665 43.6993 18.9533 43.6993L18.9533 43.871C18.4382 43.871 17.7513 43.871 17.0645 43.6993Z" fill="#E3311D"/>
<path d="M547.671 43.871L547.671 43.6993L547.843 43.871L547.671 43.871Z" fill="#E3311D"/>
<path d="M86.4382 39.5781L86.2665 39.7498C86.0948 39.7498 86.0948 39.7498 85.9231 39.5781L86.0948 39.4064C86.2665 39.4064 86.4382 39.5781 86.4382 39.5781Z" fill="#E3311D"/>
<path d="M146.196 38.2043C146.196 38.0326 146.196 38.0326 146.196 37.8609C146.368 37.8609 146.539 37.8609 146.539 37.8609C146.711 38.0326 146.539 38.2043 146.196 38.2043Z" fill="#E3311D"/>
<path d="M169.206 37.174L169.378 37.0023C169.549 37.0023 169.549 37.0023 169.721 37.174L169.549 37.3457C169.378 37.3457 169.378 37.174 169.206 37.174Z" fill="#E3311D"/>
<path d="M444.125 29.7902L444.469 29.6185L444.469 29.9619L444.125 29.7902Z" fill="#E3311D"/>
<path d="M462.671 30.4771L462.843 30.6488L462.671 30.6488L462.671 30.4771Z" fill="#E3311D"/>
</svg>
