<svg width="64" height="85" viewBox="0 0 64 85" fill="none" xmlns="http://www.w3.org/2000/svg">
<g filter="url(#filter0_d_91_1204)">
<path d="M20.5112 16.2694C23.7253 18.5293 26.0657 22.7734 26.8341 24.6129C30.6805 33.4426 24.8537 30.0001 22.0261 30.0001C14.8469 24.0873 16.4277 17.3205 15.9666 14.5612C15.5056 11.802 14.5688 11.7641 14.2542 13.0502C13.8845 14.5612 12.4633 13.1262 12.9369 12.2618C15.2703 8.00332 16.4935 13.4444 20.5112 16.2694Z" fill="#A1A652" stroke="#0D0D0D" stroke-width="0.991743" stroke-linejoin="round"/>
<mask id="mask0_91_1204" style="mask-type:alpha" maskUnits="userSpaceOnUse" x="13" y="10" width="16" height="21">
<path d="M20.7169 16.2035C23.844 18.4368 26.121 22.6307 26.8686 24.4485C30.6108 33.174 24.9417 29.7721 22.1907 29.7721C15.206 23.9292 16.7439 17.2422 16.2953 14.5155C15.8468 11.7888 14.9354 11.7514 14.6292 13.0223C14.2696 14.5155 12.8868 13.0975 13.3476 12.2433C15.6178 8.03504 16.808 13.4119 20.7169 16.2035Z" fill="#292929"/>
</mask>
<g mask="url(#mask0_91_1204)">
<path d="M17.9503 18.1819C17.7306 16.4282 16.354 13.95 15.3773 12.7626C14.4616 15.0156 13.9121 21.3302 19.0401 28.5642C25.45 37.6067 33.4751 30.665 26.7905 28.5642C20.1058 26.4634 18.225 20.374 17.9503 18.1819Z" fill="#4B4B22"/>
</g>
<ellipse cx="13.0325" cy="14.5946" rx="2.03253" ry="2.1427" fill="#A1A652" stroke="#0D0D0D" stroke-width="0.991743" stroke-linejoin="round"/>
<path d="M38.2699 6C34.9674 6 32.6414 11.6384 28.2381 15.9791C26.6118 17.5823 25.5174 19.4743 24.8459 21.2508C24.8459 24.1895 24.9345 24.7577 28.2381 28.7603C31.5417 32.763 40.17 29.7007 41.0506 27.0963L41.0664 27.0495C42.1645 23.8027 43.5021 19.8475 38.2699 15.9791C33.8665 12.7236 36.0682 7.2977 39.3707 7.2977C42.6732 7.2977 41.9663 9.24585 41.5724 10.5532C41.1269 12.0317 42.6732 10.5532 42.6732 9.46806C42.6732 8.38288 42.6732 6 38.2699 6Z" fill="#A1A652" stroke="#0D0D0D" stroke-width="0.991743" stroke-linejoin="round"/>
<mask id="mask1_91_1204" style="mask-type:alpha" maskUnits="userSpaceOnUse" x="25" y="6" width="18" height="25">
<path d="M38.3444 6.41699C35.0977 6.41699 32.811 11.9602 28.4821 16.2275C26.8833 17.8036 25.8074 19.6637 25.1472 21.4102C25.1472 24.2992 25.2342 24.8578 28.4821 28.7929C31.7299 32.7279 40.2124 29.7173 41.0782 27.1569L41.0937 27.1109C42.1732 23.919 43.4882 20.0306 38.3444 16.2275C34.0154 13.027 36.1799 7.69278 39.4266 7.69278C42.6733 7.69278 41.9783 9.60801 41.5911 10.8933C41.1531 12.3468 42.6733 10.8933 42.6733 9.82647C42.6733 8.75962 42.6733 6.41699 38.3444 6.41699Z" fill="#292929"/>
</mask>
<g mask="url(#mask1_91_1204)">
<path d="M33.1839 20.8555C32.3619 18.3047 33.5264 11.4416 34.2114 8.32895C32.9937 7.30405 30.1015 12.4286 25.9915 17.8947C18.0537 28.4516 31.8139 30.5352 33.1839 30.3074C34.5539 30.0797 34.2114 24.0441 33.1839 20.8555Z" fill="#4B4B22"/>
</g>
<ellipse cx="41.6671" cy="11.898" rx="1.99546" ry="2.02827" fill="#4B4B22" stroke="#0D0D0D" stroke-width="0.991743" stroke-linejoin="round"/>
<path d="M47.1047 17.2798C41.3422 19.6044 41.7631 22.7734 40.9947 24.6129C37.1482 33.4426 42.413 30.8453 46.2573 29.0716C50.1016 27.298 50.3673 24.8029 52.5707 22.1402C54.774 19.4776 56.124 20.8166 55.9287 23.5143C55.8188 25.0319 57.3755 24.3439 57.1963 23.3659C57.0659 22.3808 56.4798 21.2899 56.0451 20.4186C54.5029 17.3274 51.6002 15.4664 47.1047 17.2798Z" fill="#A1A652" stroke="#0D0D0D" stroke-width="0.991743" stroke-linejoin="round"/>
<mask id="mask2_91_1204" style="mask-type:alpha" maskUnits="userSpaceOnUse" x="40" y="16" width="17" height="15">
<path d="M47.1706 17.5511C41.6574 19.7751 42.0601 22.8069 41.3249 24.5669C37.6449 33.0145 42.6818 30.5297 46.3598 28.8327C50.0378 27.1358 50.2921 24.7487 52.4001 22.2012C54.5081 19.6537 55.7997 20.9348 55.6128 23.5158C55.5077 24.9677 56.9971 24.3096 56.8256 23.3739C56.7008 22.4314 56.1401 21.3877 55.7242 20.5541C54.2487 17.5966 51.4716 15.8161 47.1706 17.5511Z" fill="#343434"/>
</mask>
<g mask="url(#mask2_91_1204)">
<path d="M48.5611 22.1877C51.1592 17.7172 54.2986 18.6513 55.5436 19.6771C54.4881 16.4377 50.5097 14.413 44.3392 17.7334C38.1687 21.0539 38.0875 28.0187 39.5489 27.9377C41.0104 27.8567 45.3135 27.7757 48.5611 22.1877Z" fill="#4B4B22"/>
</g>
<path d="M54.7115 24.8257C54.7115 25.8282 55.45 26.7302 56.3791 26.7302C57.3083 26.7302 57.8776 26.1516 58.1193 25.0909C58.361 24.0301 57.5989 23.114 56.6698 23.114C55.7407 23.114 54.7115 23.8232 54.7115 24.8257Z" fill="#A1A652" stroke="#0D0D0D" stroke-width="0.991743" stroke-linejoin="round"/>
<path d="M42.8646 39.7825C44.1043 35.0705 38.5257 27.2173 32.9472 34.2852C29.848 38.2118 36.6662 50.7771 42.8646 39.7825Z" fill="#4C4E43" stroke="#0D0D0D" stroke-width="0.991743" stroke-linejoin="round"/>
<ellipse cx="7.9053" cy="57.7081" rx="1.9053" ry="1.90049" fill="#576C41" stroke="#1F1F1F" stroke-width="0.991743" stroke-linejoin="round"/>
<ellipse cx="11.816" cy="70.8613" rx="1.79137" ry="1.78684" fill="#576C41" stroke="#1F1F1F" stroke-width="0.991743" stroke-linejoin="round"/>
<ellipse cx="46.0232" cy="70.2333" rx="2.02633" ry="1.78684" fill="#576C41" stroke="#1F1F1F" stroke-width="0.991743" stroke-linejoin="round"/>
<ellipse cx="52.7165" cy="58.7656" rx="2.05193" ry="2.11021" fill="#576C41" stroke="#1F1F1F" stroke-width="0.991743" stroke-linejoin="round"/>
<ellipse cx="28.5335" cy="76.9756" rx="2.27372" ry="2.24975" fill="#576C41" stroke="#1F1F1F" stroke-width="0.991743" stroke-linejoin="round"/>
<path d="M16.2397 47.8142C22.7051 46.4198 27.5736 48.3952 29.1996 49.5572C40.9218 46.3617 46.3097 48.6131 49.3677 50.2108C52.4256 51.8086 55.7525 59.0068 49.3677 57.2554C42.9828 55.504 43.2517 56.0934 48.0571 62.0486C51.4063 68.0765 43.6886 70.4005 41.7956 66.2609C39.9025 62.1213 34.9515 58.2722 33.4225 67.7134C31.8936 77.1546 24.4671 78.244 23.739 68.2217C23.0109 58.1995 17.0406 63.0654 16.895 65.8251C16.7493 68.5849 9.10443 71.9316 9.10443 64.6691C9.10443 59.773 17.4774 57.1828 15.8756 55.3672C14.2739 53.5515 10.7062 57.8364 9.10443 56.0934C7.50264 54.3504 8.15792 49.5572 16.2397 47.8142Z" fill="#566136" stroke="#1F1F1F" stroke-width="0.991743" stroke-linejoin="round"/>
<path d="M46.0456 35.8022C45.0311 33.3294 42.1424 35.1917 41.9874 36.1686C41.9874 37.7103 42.3087 40.8213 43.5938 40.9312C45.2002 41.0685 47.0602 38.2751 46.0456 35.8022Z" fill="#F4F4F4" stroke="#1F1F1F" stroke-width="0.991743" stroke-linejoin="round"/>
<path d="M22.5224 36.1888C23.6243 33.716 26.7615 35.5783 26.9298 36.5552C26.9298 38.0969 26.5809 41.2079 25.1852 41.3178C23.4406 41.4551 21.4206 38.6617 22.5224 36.1888Z" fill="#F4F4F4" stroke="#1F1F1F" stroke-width="0.991743" stroke-linejoin="round"/>
<path d="M41.6483 30.4678C39.7804 28.782 37.981 29.0039 36.3398 30.156C38.1634 29.7315 40.5809 29.8618 40.5809 32.6542C40.5809 36.1448 37.4442 37.5826 35.3174 37.1463C39.687 40.9696 46.7545 35.076 41.6483 30.4678Z" fill="#F4F4F4" stroke="#1F1F1F" stroke-width="0.991743" stroke-linejoin="round"/>
<path d="M39.8309 49.0914C38.4274 50.4735 35.5663 52.7689 33.7541 52.7689C31.9419 52.7689 29.3557 50.4871 28.0574 49.0914C25.9466 46.8223 25.271 44.8293 24.4434 43.1227C21.4331 35.4866 28.462 33.6359 34.2634 38.1632C38.7016 34.6848 46.8121 36.1333 43.8944 43.1227C42.7724 45.8106 42.1796 46.7785 39.8309 49.0914Z" fill="#F4F4F4" stroke="#1F1F1F" stroke-width="0.991743" stroke-linejoin="round"/>
<path d="M27.2116 29.1554C29.3988 27.9088 31.5859 28.7191 32.4608 30.1742C31.0027 29.6892 28.0865 29.4172 28.0865 32.2097C28.0865 35.7002 30.9027 37.3569 33.0295 36.9206C30.6913 39.5595 27.4779 38.143 25.9341 35.3425C24.7498 33.1939 24.8243 30.5162 27.2116 29.1554Z" fill="#F4F4F4" stroke="#1F1F1F" stroke-width="0.991743" stroke-linejoin="round"/>
<path d="M41.6467 41.8087C34.6479 45.2992 29.3988 42.6813 27.6491 40.936C27.2117 42.6813 28.5239 42.245 28.5239 43.554C28.5239 44.8629 28.9614 49.2261 33.7731 49.2261C37.6224 49.2261 39.7512 45.4447 40.3345 43.554C42.0842 42.8558 41.9384 42.0996 41.6467 41.8087Z" fill="#4D1110" stroke="#1F1F1F" stroke-width="0.991743" stroke-linejoin="round"/>
<path d="M35.5229 40.936C38.5849 40.2088 44.7489 40.4749 41.9493 46.758" stroke="#1F1F1F" stroke-width="0.991743" stroke-linejoin="round"/>
<path d="M31.586 40.4997C29.2531 39.7725 24.4019 40.3979 26.8515 47.7281" stroke="#1F1F1F" stroke-width="0.991743" stroke-linejoin="round"/>
<path d="M23.6246 33C21.5249 33 21 33.8726 21 35.1816C21 36.4906 22.3123 35.1816 23.6246 35.1816C24.9368 35.1816 25.8117 36.4906 26.2491 35.6179C26.6865 34.7453 26.2491 33 23.6246 33Z" fill="#F4F4F4" stroke="#1F1F1F" stroke-width="0.991743" stroke-linejoin="round"/>
<path d="M38.2427 44C38.2427 44 36.9304 44.4363 36.493 44.4363C36.0556 44.4363 36.493 47.0543 36.493 47.0543C37.8928 47.0543 38.3885 44.8726 38.2427 44Z" fill="#856F23" stroke="#290000" stroke-width="0.991743" stroke-linejoin="round"/>
<path d="M32.1189 44C32.1189 44 33.4802 44.4363 33.8931 44.4363C34.3061 44.4363 33.8931 47.0543 33.8931 47.0543C32.4934 47.0543 31.6815 44.8726 32.1189 44Z" fill="#856F23" stroke="#290000" stroke-width="0.991743" stroke-linejoin="round"/>
<path d="M36.493 44.4363H33.8685C33.7226 45.7452 33.781 48.2759 35.1807 47.9269C36.5805 47.5778 36.6388 45.4544 36.493 44.4363Z" fill="#856F23" stroke="#290000" stroke-width="0.991743" stroke-linejoin="round"/>
<path d="M38.8135 38.9615C38.4146 37.7676 37.4476 37.8133 37.0638 38.9615C36.6264 40.2705 36.6264 42.4521 36.6264 43.7611C35.7516 43.3248 34.8767 42.8884 34.8767 43.7611C34.8767 44.835 35.8121 45.0689 36.6264 45.5064C37.1763 45.8017 37.0638 46.8153 37.9387 46.8153C38.8135 46.8153 38.6796 45.7791 39.251 45.5064C40.0394 45.13 41.0007 44.9974 41.0007 44.1974C41.0007 42.8884 40.1258 43.4702 39.251 43.7611V43.7611C39.251 41.5795 39.251 40.2705 38.8135 38.9615Z" fill="#F4F4F4" stroke="#1F1F1F" stroke-width="0.991743" stroke-linejoin="round"/>
<path d="M39.51 37.5068C38.6352 34.8888 42.2865 30.8525 46.2233 34.7794C48.1979 36.7491 43.8843 43.6153 39.51 37.5068Z" fill="#F4F4F4" stroke="#1F1F1F" stroke-width="0.991743" stroke-linejoin="round"/>
<path d="M45.5181 39.0251C44.2058 39.316 41.8722 39.5138 40.8224 38.8157C41.5418 39.9065 43.4989 41.8788 45.5181 39.0251Z" fill="#4C4E43" stroke="#1F1F1F" stroke-width="0.991743" stroke-linejoin="round"/>
<ellipse cx="43.5531" cy="37.7054" rx="0.914185" ry="0.732757" fill="#2A2B1D" stroke="#1F1F1F" stroke-width="0.991743" stroke-linejoin="round"/>
<path d="M46.8646 35.7451C44.0276 37.7952 41.1139 38.234 39.9474 37.9431C40.3848 37.0705 45.1965 33.5799 46.0714 34.0162C46.7713 34.3653 47.1831 34.8788 46.8646 35.7451Z" fill="#4C4E43" stroke="#1F1F1F" stroke-width="0.991743" stroke-linejoin="round"/>
<path d="M40.177 37.5128C40.177 35.6795 43.534 31.9037 46.3335 34.3471C45.0212 34.7834 42.2767 35.4185 40.177 37.5128Z" fill="#121212" stroke="#1F1F1F" stroke-width="0.991743" stroke-linejoin="round"/>
<path d="M36.0692 36.7662C36.9441 34.1483 33.0072 29.7851 29.0704 33.712C26.8833 35.8936 31.6949 42.8747 36.0692 36.7662Z" fill="#F4F4F4" stroke="#1F1F1F" stroke-width="0.991743" stroke-linejoin="round"/>
<path d="M29.5078 38.0751C30.8201 38.366 33.7071 38.7732 34.7569 38.0751C33.5905 39.384 30.9076 41.2166 29.5078 38.0751Z" fill="#4C4E43" stroke="#1F1F1F" stroke-width="0.991743" stroke-linejoin="round"/>
<ellipse cx="32.5304" cy="37.0981" rx="0.914186" ry="0.97701" fill="#2A2B1D" stroke="#1F1F1F" stroke-width="0.991743" stroke-linejoin="round"/>
<path d="M28.6331 34.5846C31.4326 37.377 34.4654 37.4934 35.6319 37.2025C35.1945 36.3299 30.3828 32.8393 29.5079 33.2756C28.808 33.6247 28.6331 34.2937 28.6331 34.5846Z" fill="#4C4E43" stroke="#1F1F1F" stroke-width="0.991743" stroke-linejoin="round"/>
<path d="M35.2473 36.8947C34.7227 34.6605 30.8031 30.0652 29.1016 33.5101C30.4138 33.9464 33.1477 34.8003 35.2473 36.8947Z" fill="#121212" stroke="#1F1F1F" stroke-width="0.991743" stroke-linejoin="round"/>
</g>
<defs>
<filter id="filter0_d_91_1204" x="0.926372" y="-0.577778" width="62.3116" height="84.8767" filterUnits="userSpaceOnUse" color-interpolation-filters="sRGB">
<feFlood flood-opacity="0" result="BackgroundImageFix"/>
<feColorMatrix in="SourceAlpha" type="matrix" values="0 0 0 0 0 0 0 0 0 0 0 0 0 0 0 0 0 0 127 0" result="hardAlpha"/>
<feOffset/>
<feGaussianBlur stdDeviation="2.28889"/>
<feColorMatrix type="matrix" values="0 0 0 0 0 0 0 0 0 0 0 0 0 0 0 0 0 0 0.5 0"/>
<feBlend mode="normal" in2="BackgroundImageFix" result="effect1_dropShadow_91_1204"/>
<feBlend mode="normal" in="SourceGraphic" in2="effect1_dropShadow_91_1204" result="shape"/>
</filter>
</defs>
</svg>
