<svg width="64" height="85" viewBox="0 0 64 85" fill="none" xmlns="http://www.w3.org/2000/svg">
<g filter="url(#filter0_d_91_1086)">
<path d="M20.5111 16.2694C23.7252 18.5293 26.0656 22.7734 26.834 24.6129C30.6804 33.4426 24.8535 30.0001 22.0259 30.0001C14.8468 24.0873 16.4275 17.3205 15.9665 14.5612C15.5055 11.802 14.5687 11.7641 14.254 13.0502C13.8844 14.5612 12.4632 13.1262 12.9368 12.2618C15.2701 8.00332 16.4934 13.4444 20.5111 16.2694Z" fill="#A1A652" stroke="#0D0D0D" stroke-width="0.991743" stroke-linejoin="round"/>
<mask id="mask0_91_1086" style="mask-type:alpha" maskUnits="userSpaceOnUse" x="13" y="10" width="16" height="21">
<path d="M20.7167 16.2035C23.8439 18.4368 26.1208 22.6307 26.8684 24.4485C30.6107 33.174 24.9416 29.7721 22.1906 29.7721C15.2058 23.9292 16.7438 17.2422 16.2952 14.5155C15.8466 11.7888 14.9352 11.7514 14.6291 13.0223C14.2695 14.5155 12.8867 13.0975 13.3475 12.2433C15.6177 8.03504 16.8078 13.4119 20.7167 16.2035Z" fill="#292929"/>
</mask>
<g mask="url(#mask0_91_1086)">
<path d="M17.9503 18.1819C17.7306 16.4282 16.354 13.95 15.3773 12.7626C14.4616 15.0156 13.9121 21.3302 19.0401 28.5642C25.45 37.6067 33.4751 30.665 26.7905 28.5642C20.1058 26.4634 18.225 20.374 17.9503 18.1819Z" fill="#4B4B22"/>
</g>
<ellipse cx="13.0325" cy="14.5946" rx="2.03253" ry="2.1427" fill="#A1A652" stroke="#0D0D0D" stroke-width="0.991743" stroke-linejoin="round"/>
<path d="M38.2699 6C34.9674 6 32.6414 11.6384 28.2381 15.9791C26.6118 17.5823 25.5174 19.4743 24.8459 21.2508C24.8459 24.1895 24.9345 24.7577 28.2381 28.7603C31.5417 32.763 40.17 29.7007 41.0506 27.0963L41.0664 27.0495C42.1645 23.8027 43.5021 19.8475 38.2699 15.9791C33.8665 12.7236 36.0682 7.2977 39.3707 7.2977C42.6732 7.2977 41.9663 9.24585 41.5724 10.5532C41.1269 12.0317 42.6732 10.5532 42.6732 9.46806C42.6732 8.38288 42.6732 6 38.2699 6Z" fill="#A1A652" stroke="#0D0D0D" stroke-width="0.991743" stroke-linejoin="round"/>
<mask id="mask1_91_1086" style="mask-type:alpha" maskUnits="userSpaceOnUse" x="25" y="6" width="18" height="25">
<path d="M38.3443 6.41699C35.0975 6.41699 32.8109 11.9602 28.4819 16.2275C26.8831 17.8036 25.8073 19.6637 25.1471 21.4102C25.1471 24.2992 25.2341 24.8578 28.4819 28.7929C31.7298 32.7279 40.2122 29.7173 41.078 27.1569L41.0936 27.1109C42.1731 23.919 43.4881 20.0306 38.3443 16.2275C34.0153 13.027 36.1798 7.69278 39.4265 7.69278C42.6732 7.69278 41.9782 9.60801 41.591 10.8933C41.153 12.3468 42.6732 10.8933 42.6732 9.82647C42.6732 8.75962 42.6732 6.41699 38.3443 6.41699Z" fill="#292929"/>
</mask>
<g mask="url(#mask1_91_1086)">
<path d="M33.1841 20.8555C32.3621 18.3047 33.5266 11.4416 34.2116 8.32895C32.9938 7.30405 30.1016 12.4286 25.9916 17.8947C18.0538 28.4516 31.8141 30.5352 33.1841 30.3074C34.5541 30.0797 34.2116 24.0441 33.1841 20.8555Z" fill="#4B4B22"/>
</g>
<ellipse cx="41.6672" cy="11.898" rx="1.99546" ry="2.02827" fill="#4B4B22" stroke="#0D0D0D" stroke-width="0.991743" stroke-linejoin="round"/>
<path d="M47.1047 17.2798C41.3422 19.6044 41.7631 22.7734 40.9947 24.6129C37.1482 33.4426 42.413 30.8453 46.2573 29.0716C50.1016 27.298 50.3673 24.8029 52.5707 22.1402C54.774 19.4776 56.124 20.8166 55.9287 23.5143C55.8188 25.0319 57.3755 24.3439 57.1963 23.3659C57.0659 22.3808 56.4798 21.2899 56.0451 20.4186C54.5029 17.3274 51.6002 15.4664 47.1047 17.2798Z" fill="#A1A652" stroke="#0D0D0D" stroke-width="0.991743" stroke-linejoin="round"/>
<mask id="mask2_91_1086" style="mask-type:alpha" maskUnits="userSpaceOnUse" x="40" y="16" width="17" height="15">
<path d="M47.1704 17.5511C41.6571 19.7751 42.0598 22.8069 41.3247 24.5669C37.6446 33.0145 42.6816 30.5297 46.3596 28.8327C50.0376 27.1358 50.2918 24.7487 52.3998 22.2012C54.5078 19.6537 55.7995 20.9348 55.6126 23.5158C55.5074 24.9677 56.9968 24.3096 56.8253 23.3739C56.7006 22.4314 56.1399 21.3877 55.724 20.5541C54.2484 17.5966 51.4713 15.8161 47.1704 17.5511Z" fill="#343434"/>
</mask>
<g mask="url(#mask2_91_1086)">
<path d="M48.5611 22.1877C51.1592 17.7172 54.2986 18.6513 55.5436 19.6771C54.4881 16.4377 50.5097 14.413 44.3392 17.7334C38.1687 21.0539 38.0875 28.0187 39.5489 27.9377C41.0104 27.8567 45.3135 27.7757 48.5611 22.1877Z" fill="#4B4B22"/>
</g>
<path d="M54.7114 24.8257C54.7114 25.8282 55.4499 26.7302 56.379 26.7302C57.3082 26.7302 57.8775 26.1516 58.1192 25.0909C58.3609 24.0301 57.5988 23.114 56.6697 23.114C55.7405 23.114 54.7114 23.8232 54.7114 24.8257Z" fill="#A1A652" stroke="#0D0D0D" stroke-width="0.991743" stroke-linejoin="round"/>
<path d="M42.8646 39.7825C44.1043 35.0705 38.5257 27.2173 32.9472 34.2852C29.848 38.2118 36.6662 50.7771 42.8646 39.7825Z" fill="#4C4E43" stroke="#0D0D0D" stroke-width="0.991743" stroke-linejoin="round"/>
<ellipse cx="7.9053" cy="57.7081" rx="1.9053" ry="1.90049" fill="#576C41" stroke="#1F1F1F" stroke-width="0.991743" stroke-linejoin="round"/>
<ellipse cx="11.816" cy="70.8613" rx="1.79137" ry="1.78684" fill="#576C41" stroke="#1F1F1F" stroke-width="0.991743" stroke-linejoin="round"/>
<ellipse cx="46.023" cy="70.2333" rx="2.02633" ry="1.78684" fill="#576C41" stroke="#1F1F1F" stroke-width="0.991743" stroke-linejoin="round"/>
<ellipse cx="52.7167" cy="58.7656" rx="2.05193" ry="2.11021" fill="#576C41" stroke="#1F1F1F" stroke-width="0.991743" stroke-linejoin="round"/>
<ellipse cx="28.5335" cy="76.9756" rx="2.27372" ry="2.24975" fill="#576C41" stroke="#1F1F1F" stroke-width="0.991743" stroke-linejoin="round"/>
<path d="M16.2397 47.8142C22.7051 46.4198 27.5736 48.3952 29.1996 49.5572C40.9218 46.3617 46.3097 48.6131 49.3677 50.2108C52.4256 51.8086 55.7525 59.0068 49.3677 57.2554C42.9828 55.504 43.2517 56.0934 48.0571 62.0486C51.4063 68.0765 43.6886 70.4005 41.7956 66.2609C39.9025 62.1213 34.9515 58.2722 33.4225 67.7134C31.8936 77.1546 24.4671 78.244 23.739 68.2217C23.0109 58.1995 17.0406 63.0654 16.895 65.8251C16.7493 68.5849 9.10443 71.9316 9.10443 64.6691C9.10443 59.773 17.4774 57.1828 15.8756 55.3672C14.2739 53.5515 10.7062 57.8364 9.10443 56.0934C7.50264 54.3504 8.15792 49.5572 16.2397 47.8142Z" fill="#473486" stroke="#1F1F1F" stroke-width="0.991743" stroke-linejoin="round"/>
<path d="M46.0456 35.8022C45.0311 33.3294 42.1424 35.1917 41.9874 36.1686C41.9874 37.7103 42.3087 40.8213 43.5938 40.9312C45.2002 41.0685 47.0602 38.2751 46.0456 35.8022Z" fill="#F4F4F4" stroke="#1F1F1F" stroke-width="0.991743" stroke-linejoin="round"/>
<path d="M22.5223 36.1888C23.6242 33.716 26.7613 35.5783 26.9297 36.5552C26.9297 38.0969 26.5808 41.2079 25.1851 41.3178C23.4405 41.4551 21.4205 38.6617 22.5223 36.1888Z" fill="#F4F4F4" stroke="#1F1F1F" stroke-width="0.991743" stroke-linejoin="round"/>
<path d="M41.6483 30.4678C39.7804 28.782 37.981 29.0039 36.3398 30.156C38.1634 29.7315 40.5809 29.8618 40.5809 32.6542C40.5809 36.1448 37.4442 37.5826 35.3174 37.1463C39.687 40.9696 46.7545 35.076 41.6483 30.4678Z" fill="#F4F4F4" stroke="#1F1F1F" stroke-width="0.991743" stroke-linejoin="round"/>
<path d="M39.8306 49.0914C38.4271 50.4735 35.566 52.7689 33.7538 52.7689C31.9417 52.7689 29.3555 50.4871 28.0571 49.0914C25.9464 46.8223 25.2707 44.8293 24.4432 43.1227C21.4329 35.4866 28.4617 33.6359 34.2631 38.1632C38.7014 34.6848 46.8118 36.1333 43.8942 43.1227C42.7721 45.8106 42.1793 46.7785 39.8306 49.0914Z" fill="#F4F4F4" stroke="#1F1F1F" stroke-width="0.991743" stroke-linejoin="round"/>
<path d="M27.2116 29.1554C29.3988 27.9088 31.5859 28.7191 32.4608 30.1742C31.0027 29.6892 28.0865 29.4172 28.0865 32.2097C28.0865 35.7002 30.9027 37.3569 33.0295 36.9206C30.6913 39.5595 27.4779 38.143 25.9341 35.3425C24.7498 33.1939 24.8243 30.5162 27.2116 29.1554Z" fill="#F4F4F4" stroke="#1F1F1F" stroke-width="0.991743" stroke-linejoin="round"/>
<path d="M41.6467 41.8087C34.6479 45.2992 29.3988 42.6813 27.6491 40.936C27.2117 42.6813 28.5239 42.245 28.5239 43.554C28.5239 44.8629 28.9614 49.2261 33.7731 49.2261C37.6224 49.2261 39.7512 45.4447 40.3345 43.554C42.0842 42.8558 41.9384 42.0996 41.6467 41.8087Z" fill="#4D1110" stroke="#1F1F1F" stroke-width="0.991743" stroke-linejoin="round"/>
<path d="M35.5227 40.936C38.5847 40.2088 44.7486 40.4749 41.9491 46.758" stroke="#1F1F1F" stroke-width="0.991743" stroke-linejoin="round"/>
<path d="M31.586 40.4997C29.2531 39.7725 24.4019 40.3979 26.8515 47.7281" stroke="#1F1F1F" stroke-width="0.991743" stroke-linejoin="round"/>
<path d="M23.6246 33C21.5249 33 21 33.8726 21 35.1816C21 36.4906 22.3123 35.1816 23.6246 35.1816C24.9368 35.1816 25.8117 36.4906 26.2491 35.6179C26.6865 34.7453 26.2491 33 23.6246 33Z" fill="#F4F4F4" stroke="#1F1F1F" stroke-width="0.991743" stroke-linejoin="round"/>
<path d="M38.2426 44C38.2426 44 36.9303 44.4363 36.4929 44.4363C36.0554 44.4363 36.4929 47.0543 36.4929 47.0543C37.8926 47.0543 38.3884 44.8726 38.2426 44Z" fill="#856F23" stroke="#290000" stroke-width="0.991743" stroke-linejoin="round"/>
<path d="M32.1187 44C32.1187 44 33.4799 44.4363 33.8929 44.4363C34.3058 44.4363 33.8929 47.0543 33.8929 47.0543C32.4931 47.0543 31.6813 44.8726 32.1187 44Z" fill="#856F23" stroke="#290000" stroke-width="0.991743" stroke-linejoin="round"/>
<path d="M36.4929 44.4363H33.8683C33.7225 45.7452 33.7808 48.2759 35.1806 47.9269C36.5804 47.5778 36.6387 45.4544 36.4929 44.4363Z" fill="#856F23" stroke="#290000" stroke-width="0.991743" stroke-linejoin="round"/>
<path d="M38.8134 38.9615C38.4144 37.7676 37.4474 37.8133 37.0637 38.9615C36.6263 40.2705 36.6263 42.4521 36.6263 43.7611C35.7514 43.3248 34.8766 42.8884 34.8766 43.7611C34.8766 44.835 35.812 45.0689 36.6263 45.5064C37.1762 45.8017 37.0637 46.8153 37.9386 46.8153C38.8134 46.8153 38.6795 45.7791 39.2509 45.5064C40.0393 45.13 41.0006 44.9974 41.0006 44.1974C41.0006 42.8884 40.1257 43.4702 39.2509 43.7611V43.7611C39.2509 41.5795 39.2509 40.2705 38.8134 38.9615Z" fill="#F4F4F4" stroke="#1F1F1F" stroke-width="0.991743" stroke-linejoin="round"/>
<path d="M39.51 37.5068C38.6352 34.8888 42.2865 30.8525 46.2233 34.7794C48.1979 36.7491 43.8843 43.6153 39.51 37.5068Z" fill="#F4F4F4" stroke="#1F1F1F" stroke-width="0.991743" stroke-linejoin="round"/>
<path d="M45.5178 39.0251C44.2055 39.316 41.872 39.5138 40.8222 38.8157C41.5415 39.9065 43.4987 41.8788 45.5178 39.0251Z" fill="#4C4E43" stroke="#1F1F1F" stroke-width="0.991743" stroke-linejoin="round"/>
<ellipse cx="43.553" cy="37.7054" rx="0.914185" ry="0.732757" fill="#2A2B1D" stroke="#1F1F1F" stroke-width="0.991743" stroke-linejoin="round"/>
<path d="M46.8646 35.7451C44.0276 37.7952 41.1139 38.234 39.9474 37.9431C40.3848 37.0705 45.1965 33.5799 46.0714 34.0162C46.7713 34.3653 47.1831 34.8788 46.8646 35.7451Z" fill="#4C4E43" stroke="#1F1F1F" stroke-width="0.991743" stroke-linejoin="round"/>
<path d="M40.1772 37.5128C40.1772 35.6795 43.5341 31.9037 46.3336 34.3471C45.0213 34.7834 42.2768 35.4185 40.1772 37.5128Z" fill="#121212" stroke="#1F1F1F" stroke-width="0.991743" stroke-linejoin="round"/>
<path d="M36.0693 36.7662C36.9442 34.1483 33.0073 29.7851 29.0705 33.712C26.8834 35.8936 31.6951 42.8747 36.0693 36.7662Z" fill="#F4F4F4" stroke="#1F1F1F" stroke-width="0.991743" stroke-linejoin="round"/>
<path d="M29.5079 38.0751C30.8202 38.366 33.7072 38.7732 34.7571 38.0751C33.5906 39.384 30.9077 41.2166 29.5079 38.0751Z" fill="#4C4E43" stroke="#1F1F1F" stroke-width="0.991743" stroke-linejoin="round"/>
<ellipse cx="32.5306" cy="37.0981" rx="0.914186" ry="0.97701" fill="#2A2B1D" stroke="#1F1F1F" stroke-width="0.991743" stroke-linejoin="round"/>
<path d="M28.6332 34.5846C31.4327 37.377 34.4655 37.4934 35.632 37.2025C35.1946 36.3299 30.3829 32.8393 29.508 33.2756C28.8081 33.6247 28.6332 34.2937 28.6332 34.5846Z" fill="#4C4E43" stroke="#1F1F1F" stroke-width="0.991743" stroke-linejoin="round"/>
<path d="M35.2475 36.8947C34.7228 34.6605 30.8032 30.0652 29.1017 33.5101C30.414 33.9464 33.1478 34.8003 35.2475 36.8947Z" fill="#121212" stroke="#1F1F1F" stroke-width="0.991743" stroke-linejoin="round"/>
</g>
<defs>
<filter id="filter0_d_91_1086" x="0.926372" y="-0.577778" width="62.3113" height="84.8767" filterUnits="userSpaceOnUse" color-interpolation-filters="sRGB">
<feFlood flood-opacity="0" result="BackgroundImageFix"/>
<feColorMatrix in="SourceAlpha" type="matrix" values="0 0 0 0 0 0 0 0 0 0 0 0 0 0 0 0 0 0 127 0" result="hardAlpha"/>
<feOffset/>
<feGaussianBlur stdDeviation="2.28889"/>
<feColorMatrix type="matrix" values="0 0 0 0 0 0 0 0 0 0 0 0 0 0 0 0 0 0 0.5 0"/>
<feBlend mode="normal" in2="BackgroundImageFix" result="effect1_dropShadow_91_1086"/>
<feBlend mode="normal" in="SourceGraphic" in2="effect1_dropShadow_91_1086" result="shape"/>
</filter>
</defs>
</svg>
