<svg width="29" height="26" viewBox="0 0 29 26" fill="none" xmlns="http://www.w3.org/2000/svg">
<path d="M28.0364 3.20515L26.9853 1.2173C26.954 1.14691 26.9083 1.08389 26.851 1.03236C26.7938 0.980829 26.7263 0.94194 26.653 0.918228C26.5797 0.894516 26.5022 0.886511 26.4256 0.894736C26.3491 0.902962 26.2751 0.927232 26.2085 0.965966L9.56309 9.83131C9.49637 9.86506 9.43709 9.91184 9.38874 9.96888C9.3404 10.0259 9.30397 10.0921 9.28161 10.1634C9.25924 10.2348 9.2514 10.3099 9.25854 10.3843C9.26568 10.4587 9.28766 10.531 9.32317 10.5967L10.3742 12.6074C10.4093 12.6756 10.4577 12.736 10.5165 12.7851C10.5754 12.8342 10.6436 12.8709 10.717 12.8931C10.8571 12.9446 11.011 12.9446 11.1511 12.8931L27.7965 3.97059C27.929 3.90012 28.0285 3.78031 28.0734 3.63707C28.1183 3.49382 28.105 3.33867 28.0364 3.20515Z" fill="white"/>
<path d="M8.30609 11.1336C8.22852 11.004 8.10684 10.9067 7.96336 10.8595C7.89697 10.8404 7.82749 10.8347 7.75888 10.8425C7.69027 10.8504 7.62388 10.8716 7.5635 10.9052L3.48498 13.0529C2.34411 13.6652 1.47556 14.6845 1.05218 15.9081C0.628789 17.1317 0.681599 18.4698 1.2001 19.6563C1.23322 19.7564 1.23322 19.8646 1.2001 19.9647C1.0045 21.7972 1.35844 23.6464 2.21687 25.2771C2.28249 25.4167 2.37572 25.5416 2.49092 25.6442C2.60613 25.7468 2.74092 25.8251 2.88718 25.8742C3.03344 25.9233 3.18813 25.9423 3.34193 25.93C3.49572 25.9177 3.64543 25.8743 3.78202 25.8026L6.42106 24.4317C6.66294 24.3025 6.85027 24.0906 6.94885 23.8347C7.04743 23.5788 7.05068 23.296 6.95801 23.0379C6.79806 22.5695 6.66097 22.1239 6.54673 21.7127C6.53166 21.6596 6.53227 21.6033 6.54849 21.5506C6.56471 21.4979 6.59584 21.451 6.63812 21.4156L9.15149 20.0904C9.6197 19.8405 9.97011 19.4156 10.1263 18.9084C10.2826 18.4012 10.2319 17.8528 9.98548 17.3828L9.44853 16.3774L10.2025 15.9662C10.3351 15.8957 10.4346 15.7759 10.4795 15.6326C10.5244 15.4894 10.5111 15.3343 10.4425 15.2007L8.30609 11.1336ZM8.30609 18.5367L6.46676 19.5077C6.42548 19.533 6.37804 19.5463 6.32966 19.5463C6.28128 19.5463 6.23384 19.533 6.19257 19.5077C6.14878 19.4855 6.11246 19.4509 6.0881 19.4083C6.06373 19.3657 6.05239 19.3168 6.05548 19.2678C6.01728 19.0249 6.03443 18.7764 6.10564 18.541C6.17685 18.3056 6.30029 18.0894 6.46676 17.9083L7.6092 17.2914C7.64283 17.2743 7.68002 17.2655 7.71773 17.2655C7.75544 17.2655 7.79263 17.2743 7.82626 17.2914C7.86302 17.3006 7.89736 17.3175 7.92694 17.3412C7.95652 17.3649 7.98063 17.3946 7.99763 17.4285L8.39748 18.1825C8.43124 18.2379 8.44511 18.3032 8.43681 18.3676C8.4285 18.432 8.39851 18.4916 8.35179 18.5367H8.30609Z" fill="white"/>
<path d="M22.0728 8.9859C22.0368 8.91689 21.9874 8.85579 21.9274 8.8062C21.8674 8.75661 21.7981 8.71954 21.7235 8.69718C21.649 8.67482 21.5707 8.66761 21.4934 8.676C21.416 8.68438 21.3411 8.70818 21.2731 8.74599L11.6766 13.8413C11.5412 13.915 11.4391 14.0376 11.3909 14.184C11.335 14.3233 11.335 14.4788 11.3909 14.6181L12.1907 16.1376C12.4045 16.5358 12.7651 16.835 13.196 16.9716C13.3632 17.0204 13.536 17.0473 13.7101 17.0515C13.9901 17.0542 14.2658 16.9833 14.5098 16.8459L15.5152 16.3204C15.5809 16.2856 15.6391 16.2381 15.6863 16.1806C15.7334 16.1232 15.7687 16.0568 15.79 15.9856C15.8112 15.9143 15.8181 15.8395 15.8101 15.7656C15.8022 15.6917 15.7796 15.62 15.7436 15.5549L15.2752 14.561C15.204 14.4262 15.1893 14.2686 15.2343 14.1229C15.2793 13.9772 15.3803 13.8554 15.5152 13.7842C15.65 13.713 15.8076 13.6982 15.9533 13.7432C16.099 13.7882 16.2208 13.8892 16.292 14.0241L16.829 15.0408C16.8995 15.1719 17.0183 15.2703 17.1603 15.315C17.2285 15.346 17.3025 15.362 17.3773 15.362C17.4522 15.362 17.5262 15.346 17.5944 15.315L19.1138 14.5153C19.18 14.4794 19.2384 14.4309 19.2857 14.3723C19.333 14.3138 19.3683 14.2466 19.3895 14.1744C19.4108 14.1022 19.4175 14.0265 19.4094 13.9517C19.4013 13.8769 19.3785 13.8044 19.3423 13.7385L18.8054 12.7331C18.7391 12.5974 18.7271 12.4415 18.7716 12.2972C18.8162 12.1529 18.9141 12.031 19.0453 11.9562C19.1805 11.8871 19.3374 11.8735 19.4825 11.9183C19.6276 11.9631 19.7495 12.0628 19.8222 12.1962L20.3591 13.2129C20.4323 13.3418 20.5502 13.4393 20.6904 13.4871C20.8295 13.5443 20.9855 13.5443 21.1245 13.4871L22.1642 12.9387C22.5568 12.7254 22.8506 12.3672 22.983 11.9403C23.1153 11.5135 23.0756 11.0519 22.8725 10.6539L22.0728 8.9859Z" fill="white"/>
</svg>
