<svg width="27" height="29" viewBox="0 0 27 29" fill="none" xmlns="http://www.w3.org/2000/svg">
<path d="M25.3683 0.949308C25.3199 0.880188 25.2569 0.822638 25.1836 0.780793C25.1104 0.738948 25.0287 0.713846 24.9446 0.707293C24.8605 0.700739 24.776 0.712896 24.6972 0.742889C24.6183 0.772882 24.5471 0.819967 24.4886 0.880762L10.1053 15.2641C10.0032 15.3722 9.94641 15.5153 9.94641 15.664C9.94641 15.8126 10.0032 15.9557 10.1053 16.0638L16.0802 22.0388C16.1333 22.0923 16.1965 22.1348 16.2661 22.1638C16.3357 22.1928 16.4104 22.2077 16.4858 22.2077C16.5612 22.2077 16.6359 22.1928 16.7055 22.1638C16.7751 22.1348 16.8383 22.0923 16.8914 22.0388C23.8831 14.8414 28.2701 4.95928 25.3683 0.949308Z" fill="white"/>
<path d="M8.84847 17.252C8.7953 17.1968 8.73136 17.1531 8.66061 17.1236C8.58987 17.0942 8.51382 17.0795 8.43719 17.0806C8.36228 17.0797 8.288 17.0945 8.21913 17.124C8.15027 17.1535 8.08834 17.1971 8.03734 17.252L1.28551 24.0381C0.831014 24.4926 0.575684 25.109 0.575684 25.7518C0.575684 26.3945 0.831014 27.0109 1.28551 27.4654C1.74 27.9199 2.35642 28.1752 2.99917 28.1752C3.64192 28.1752 4.25834 27.9199 4.71283 27.4654L11.5104 20.6679C11.615 20.5611 11.6736 20.4176 11.6736 20.268C11.6736 20.1185 11.615 19.975 11.5104 19.8682L8.84847 17.252Z" fill="white"/>
</svg>
