<svg width="16" height="29" viewBox="0 0 16 29" fill="none" xmlns="http://www.w3.org/2000/svg">
<path d="M4.99109 8.00943C5.04664 8.30584 5.21713 8.56827 5.46539 8.73948C5.71364 8.91069 6.01952 8.9768 6.31633 8.92339L10.8061 8.11225C10.9539 8.08606 11.0951 8.03099 11.2216 7.9502C11.3481 7.86941 11.4575 7.76448 11.5434 7.6414C11.6294 7.51833 11.6902 7.37953 11.7225 7.23293C11.7548 7.08633 11.7578 6.9348 11.7315 6.78702C11.676 6.49061 11.5055 6.22819 11.2572 6.05697C11.009 5.88576 10.7031 5.81965 10.4063 5.87307L9.86932 5.96446C9.79557 5.99155 9.71458 5.99155 9.64083 5.96446C9.60745 5.9367 9.58084 5.90169 9.56303 5.86209C9.54521 5.8225 9.53666 5.77937 9.53801 5.73597V1.85167C9.53801 1.54868 9.41765 1.25809 9.2034 1.04384C8.98915 0.829593 8.69856 0.709229 8.39557 0.709229C8.09257 0.709229 7.80199 0.829593 7.58774 1.04384C7.37349 1.25809 7.25313 1.54868 7.25313 1.85167V6.19295C7.25401 6.26141 7.23027 6.3279 7.18623 6.38033C7.1422 6.43275 7.0808 6.46761 7.01322 6.47856L5.87077 6.6842C5.58068 6.74748 5.32662 6.92121 5.16242 7.16858C4.99821 7.41595 4.93677 7.71753 4.99109 8.00943Z" fill="white"/>
<path d="M9.56089 12.5905C9.54606 12.5708 9.53804 12.5467 9.53804 12.522C9.53804 12.4973 9.54606 12.4732 9.56089 12.4534C9.56688 12.4254 9.58085 12.3997 9.60112 12.3794C9.62139 12.3591 9.6471 12.3452 9.67514 12.3392L10.829 12.1335C11.132 12.0805 11.4015 11.9093 11.5783 11.6576C11.755 11.4058 11.8245 11.0942 11.7715 10.7912C11.7185 10.4882 11.5473 10.2187 11.2955 10.0419C11.0438 9.86515 10.7321 9.79564 10.4291 9.84867L5.92793 10.6598C5.62493 10.7143 5.35601 10.887 5.18033 11.1398C5.00464 11.3926 4.93658 11.7049 4.99112 12.0079C5.04566 12.3109 5.21833 12.5798 5.47115 12.7555C5.72396 12.9312 6.03621 12.9992 6.33921 12.9447H6.48772C6.51945 12.9388 6.55222 12.9435 6.58108 12.9579C6.60993 12.9723 6.63331 12.9958 6.64766 13.0247C6.66713 13.049 6.67774 13.0792 6.67774 13.1103C6.67774 13.1415 6.66713 13.1717 6.64766 13.196C4.64839 14.7612 0.992578 18.2228 0.992578 21.7643C0.978737 22.7051 1.19159 23.6354 1.61316 24.4765C2.03472 25.3176 2.65259 26.0449 3.41455 26.5969C4.87436 27.6323 6.62922 28.1691 8.41845 28.1277C12.12 28.1277 15.8672 25.9457 15.8672 21.7643C15.8672 17.583 11.1146 13.8015 9.56089 12.5905ZM8.41845 25.8429C5.92793 25.8429 3.27746 24.5633 3.27746 21.7643C3.27746 19.3081 6.33921 16.3035 8.23566 14.7726C8.28593 14.7276 8.35101 14.7028 8.41845 14.7028C8.48589 14.7028 8.55097 14.7276 8.60124 14.7726C10.4977 16.3035 13.5594 19.3424 13.5594 21.7643C13.5594 24.5633 10.8861 25.8429 8.41845 25.8429Z" fill="white"/>
</svg>
