<svg width="45" height="56" viewBox="0 0 45 56" fill="none" xmlns="http://www.w3.org/2000/svg">
<path d="M10.1437 9.97314C12.9522 11.9479 14.9972 15.6563 15.6686 17.2636C19.0296 24.9789 13.9381 21.9708 11.4674 21.9708C5.19439 16.8044 6.5756 10.8916 6.17275 8.4806C5.76989 6.06958 4.95136 6.0365 4.67643 7.16028C4.35341 8.4806 3.11158 7.22669 3.52542 6.47142C5.56428 2.75039 6.63315 7.50471 10.1437 9.97314Z" fill="#292929" stroke="#0D0D0D" stroke-width="0.866572" stroke-linejoin="round"/>
<mask id="mask0_90_1308" style="mask-type:alpha" maskUnits="userSpaceOnUse" x="3" y="5" width="14" height="18">
<path d="M10.3234 9.91559C13.0558 11.867 15.0454 15.5316 15.6986 17.12C18.9686 24.7442 14.015 21.7717 11.6112 21.7717C5.50802 16.6662 6.85184 10.8232 6.45989 8.44068C6.06794 6.05812 5.27158 6.02543 5.00409 7.13594C4.68982 8.44068 3.48161 7.20157 3.88424 6.45521C5.8679 2.7781 6.90783 7.47631 10.3234 9.91559Z" fill="#292929"/>
</mask>
<g mask="url(#mask0_90_1308)">
<path d="M7.90615 11.6443C7.71411 10.1119 6.51131 7.94653 5.65784 6.909C4.85771 8.87766 4.37764 14.3952 8.85836 20.7162C14.4593 28.6175 21.4715 22.5519 15.6305 20.7162C9.78959 18.8806 8.14619 13.5598 7.90615 11.6443Z" fill="#0F0F0F"/>
</g>
<ellipse cx="3.609" cy="8.50974" rx="1.776" ry="1.87226" fill="#3C3C3C" stroke="#0D0D0D" stroke-width="0.866572" stroke-linejoin="round"/>
<path d="M25.661 0.999969C22.7754 0.999969 20.743 5.92674 16.8954 9.71959C15.4744 11.1204 14.5181 12.7736 13.9314 14.3259C13.9314 16.8937 14.0088 17.3902 16.8954 20.8876C19.7821 24.3851 27.3213 21.7093 28.0908 19.4336L28.1046 19.3928C29.0641 16.5558 30.2329 13.0997 25.661 9.71959C21.8135 6.87495 23.7373 2.13389 26.6229 2.13389C29.5086 2.13389 28.8909 3.83615 28.5467 4.97852C28.1575 6.27039 29.5086 4.97852 29.5086 4.03031C29.5086 3.0821 29.5086 0.999969 25.661 0.999969Z" fill="#292929" stroke="#0D0D0D" stroke-width="0.866572" stroke-linejoin="round"/>
<mask id="mask1_90_1308" style="mask-type:alpha" maskUnits="userSpaceOnUse" x="14" y="1" width="16" height="22">
<path d="M25.7261 1.36438C22.8892 1.36438 20.8911 6.20792 17.1085 9.9367C15.7115 11.3139 14.7714 12.9392 14.1946 14.4652C14.1946 16.9896 14.2706 17.4777 17.1085 20.9161C19.9464 24.3545 27.3583 21.7239 28.1148 19.4866L28.1284 19.4465C29.0716 16.6574 30.2207 13.2597 25.7261 9.9367C21.9435 7.14012 23.8348 2.47914 26.6717 2.47914C29.5086 2.47914 28.9014 4.15265 28.563 5.27573C28.1803 6.54577 29.5086 5.27573 29.5086 4.34353C29.5086 3.41134 29.5086 1.36438 25.7261 1.36438Z" fill="#292929"/>
</mask>
<g mask="url(#mask1_90_1308)">
<path d="M21.217 13.9806C20.4987 11.7517 21.5163 5.75483 22.1148 3.03502C21.0507 2.13948 18.5236 6.61721 14.9323 11.3934C7.99642 20.6179 20.0199 22.4385 21.217 22.2395C22.4141 22.0405 22.1148 16.7667 21.217 13.9806Z" fill="#0F0F0F"/>
</g>
<ellipse cx="28.6296" cy="6.15362" rx="1.7436" ry="1.77227" fill="#3C3C3C" stroke="#0D0D0D" stroke-width="0.866572" stroke-linejoin="round"/>
<path d="M33.3807 10.8561C28.3455 12.8873 28.7133 15.6563 28.0418 17.2636C24.6809 24.9789 29.2811 22.7094 32.6402 21.1596C35.9993 19.6098 36.2315 17.4297 38.1568 15.1031C40.082 12.7765 41.2617 13.9465 41.091 16.3037C40.9949 17.6297 42.3552 17.0286 42.1986 16.174C42.0846 15.3133 41.5726 14.3601 41.1927 13.5987C39.8451 10.8976 37.3088 9.27155 33.3807 10.8561Z" fill="#343434" stroke="#0D0D0D" stroke-width="0.866572" stroke-linejoin="round"/>
<mask id="mask2_90_1308" style="mask-type:alpha" maskUnits="userSpaceOnUse" x="27" y="10" width="15" height="13">
<path d="M33.4383 11.0932C28.6209 13.0365 28.9728 15.6857 28.3304 17.2235C25.1149 24.605 29.5161 22.4338 32.7298 20.951C35.9436 19.4682 36.1658 17.3824 38.0077 15.1565C39.8497 12.9305 40.9783 14.0499 40.815 16.3051C40.7231 17.5738 42.0245 16.9987 41.8747 16.1811C41.7656 15.3576 41.2757 14.4456 40.9123 13.7172C39.623 11.133 37.1964 9.57723 33.4383 11.0932Z" fill="#343434"/>
</mask>
<g mask="url(#mask2_90_1308)">
<path d="M34.6533 15.1446C36.9235 11.2384 39.6667 12.0546 40.7545 12.9509C39.8322 10.1203 36.356 8.35123 30.9643 11.2526C25.5725 14.1539 25.5016 20.2396 26.7786 20.1689C28.0556 20.0981 31.8156 20.0273 34.6533 15.1446Z" fill="#0F0F0F"/>
</g>
<path d="M40.0274 17.4496C40.0274 18.3255 40.6727 19.1137 41.4846 19.1137C42.2965 19.1137 42.794 18.6081 43.0052 17.6813C43.2163 16.7544 42.5504 15.9539 41.7386 15.9539C40.9267 15.9539 40.0274 16.5736 40.0274 17.4496Z" fill="#3C3C3C" stroke="#0D0D0D" stroke-width="0.866572" stroke-linejoin="round"/>
<path d="M29.6758 30.5186C30.759 26.4014 25.8845 19.5393 21.0101 25.7152C18.302 29.1462 24.2597 40.1255 29.6758 30.5186Z" fill="#8B8B8B" stroke="#0D0D0D" stroke-width="0.866572" stroke-linejoin="round"/>
<path d="M39.1526 30.7114C40.2358 26.8003 35.3613 20.2818 30.4869 26.1484C27.7788 29.4077 33.7365 39.8373 39.1526 30.7114Z" fill="#8B8B8B" stroke="#0D0D0D" stroke-width="0.866572" stroke-linejoin="round"/>
<ellipse cx="2.66483" cy="36.7185" rx="1.66483" ry="1.66062" fill="#2E2E2E" stroke="#1F1F1F" stroke-width="0.866572" stroke-linejoin="round"/>
<ellipse cx="6.08187" cy="48.2116" rx="1.56527" ry="1.56132" fill="#2E2E2E" stroke="#1F1F1F" stroke-width="0.866572" stroke-linejoin="round"/>
<ellipse cx="35.9717" cy="47.6629" rx="1.77058" ry="1.56132" fill="#2E2E2E" stroke="#1F1F1F" stroke-width="0.866572" stroke-linejoin="round"/>
<ellipse cx="41.8203" cy="37.6425" rx="1.79295" ry="1.84388" fill="#2E2E2E" stroke="#1F1F1F" stroke-width="0.866572" stroke-linejoin="round"/>
<ellipse cx="20.6894" cy="53.5542" rx="1.98675" ry="1.9658" fill="#2E2E2E" stroke="#1F1F1F" stroke-width="0.866572" stroke-linejoin="round"/>
<path d="M9.94728 28.0733C15.5967 26.8549 19.8507 28.581 21.2715 29.5963C31.5142 26.8042 36.222 28.7714 38.8941 30.1675C41.5661 31.5635 44.473 37.8533 38.8941 36.3229C33.3151 34.7926 33.55 35.3076 37.7489 40.5112C40.6754 45.7783 33.9317 47.8089 32.2776 44.1918C30.6235 40.5747 26.2974 37.2114 24.9614 45.461C23.6254 53.7106 17.1363 54.6624 16.5001 45.9052C15.8639 37.1479 10.6471 41.3996 10.5199 43.811C10.3926 46.2225 3.7126 49.1468 3.7126 42.8009C3.7126 38.5227 11.0288 36.2595 9.62919 34.673C8.22956 33.0866 5.11222 36.8306 3.7126 35.3076C2.31297 33.7846 2.88555 29.5963 9.94728 28.0733Z" fill="#2E2E2E" stroke="#1F1F1F" stroke-width="0.866572" stroke-linejoin="round"/>
<path d="M31.8233 22.4392C30.9368 20.2785 28.4127 21.9057 28.2773 22.7594C28.2773 24.1065 28.558 26.8248 29.6809 26.9208C31.0846 27.0409 32.7098 24.6 31.8233 22.4392Z" fill="#F4F4F4" stroke="#1F1F1F" stroke-width="0.866572" stroke-linejoin="round"/>
<path d="M11.269 22.777C12.2317 20.6162 14.973 22.2435 15.1201 23.0971C15.1201 24.4443 14.8152 27.1626 13.5957 27.2586C12.0713 27.3786 10.3062 24.9378 11.269 22.777Z" fill="#F4F4F4" stroke="#1F1F1F" stroke-width="0.866572" stroke-linejoin="round"/>
<path d="M27.9808 17.778C26.3486 16.305 24.7764 16.4989 23.3423 17.5055C24.9358 17.1347 27.0482 17.2485 27.0482 19.6885C27.0482 22.7385 24.3073 23.9948 22.449 23.6136C26.2671 26.9543 32.4425 21.8046 27.9808 17.778Z" fill="#F4F4F4" stroke="#1F1F1F" stroke-width="0.866572" stroke-linejoin="round"/>
<path d="M26.3928 34.051C25.1664 35.2587 22.6664 37.2644 21.083 37.2644C19.4995 37.2644 17.2397 35.2706 16.1052 34.051C14.2609 32.0683 13.6705 30.3269 12.9474 28.8356C10.3171 22.1633 16.4588 20.5463 21.528 24.5021C25.4061 21.4628 32.4929 22.7284 29.9435 28.8356C28.963 31.1843 28.445 32.0301 26.3928 34.051Z" fill="#F4F4F4" stroke="#1F1F1F" stroke-width="0.866572" stroke-linejoin="round"/>
<path d="M15.3664 16.6313C17.2775 15.542 19.1886 16.25 19.953 17.5215C18.679 17.0977 16.1309 16.86 16.1309 19.3C16.1309 22.3501 18.5917 23.7976 20.45 23.4164C18.4069 25.7222 15.5991 24.4845 14.2502 22.0375C13.2153 20.1601 13.2804 17.8203 15.3664 16.6313Z" fill="#F4F4F4" stroke="#1F1F1F" stroke-width="0.866572" stroke-linejoin="round"/>
<path d="M27.9796 27.6876C21.8641 30.7376 17.2775 28.4501 15.7487 26.9251C15.3664 28.4501 16.5131 28.0688 16.5131 29.2126C16.5131 30.3563 16.8953 34.1689 21.0997 34.1689C24.4632 34.1689 26.3233 30.8647 26.833 29.2126C28.3618 28.6026 28.2344 27.9418 27.9796 27.6876Z" fill="#080808" stroke="#1F1F1F" stroke-width="0.866572" stroke-linejoin="round"/>
<path d="M22.6287 26.9251C25.3042 26.2897 30.6901 26.5222 28.2439 32.0123" stroke="#1F1F1F" stroke-width="0.866572" stroke-linejoin="round"/>
<path d="M19.1887 26.5438C17.1502 25.9084 12.9113 26.4549 15.0517 32.8599" stroke="#1F1F1F" stroke-width="0.866572" stroke-linejoin="round"/>
<path d="M21.0997 34.1689C19.2651 34.1689 18.8064 34.9314 18.8064 36.0751C18.8064 37.2189 19.953 36.0751 21.0997 36.0751C22.2464 36.0751 23.0108 37.2189 23.393 36.4564C23.7752 35.6939 23.393 34.1689 21.0997 34.1689Z" fill="#F4F4F4" stroke="#1F1F1F" stroke-width="0.866572" stroke-linejoin="round"/>
<path d="M24.1577 29.9751C24.1577 29.9751 23.0111 30.3564 22.6289 30.3564C22.2466 30.3564 22.6289 32.6439 22.6289 32.6439C23.852 32.6439 24.2851 30.7376 24.1577 29.9751Z" fill="#F4F4F4" stroke="#1F1F1F" stroke-width="0.866572" stroke-linejoin="round"/>
<path d="M18.8067 29.9751C18.8067 29.9751 19.9961 30.3564 20.357 30.3564C20.7178 30.3564 20.357 32.6439 20.357 32.6439C19.1339 32.6439 18.4245 30.7376 18.8067 29.9751Z" fill="#F4F4F4" stroke="#1F1F1F" stroke-width="0.866572" stroke-linejoin="round"/>
<path d="M22.6288 30.3564H20.3355C20.208 31.5001 20.259 33.7114 21.4821 33.4064C22.7052 33.1014 22.7562 31.246 22.6288 30.3564Z" fill="#F4F4F4" stroke="#1F1F1F" stroke-width="0.866572" stroke-linejoin="round"/>
<path d="M22.2464 22.7313C21.8977 21.6881 21.0528 21.728 20.7175 22.7313C20.3353 23.8751 20.3353 25.7813 20.3353 26.9251C19.5708 26.5438 18.8064 26.1626 18.8064 26.9251C18.8064 27.8634 19.6237 28.0678 20.3353 28.4501C20.8157 28.7082 20.7175 29.5938 21.4819 29.5938C22.2464 29.5938 22.1293 28.6884 22.6286 28.4501C23.3175 28.1212 24.1574 28.0054 24.1574 27.3063C24.1574 26.1626 23.393 26.6709 22.6286 26.9251C22.6286 25.0188 22.6286 23.8751 22.2464 22.7313Z" fill="#F4F4F4" stroke="#1F1F1F" stroke-width="0.866572" stroke-linejoin="round"/>
<path d="M21.6971 22.7385C20.9326 20.451 24.1231 16.9241 27.5631 20.3554C29.2885 22.0764 25.5192 28.076 21.6971 22.7385Z" fill="#F4F4F4" stroke="#1F1F1F" stroke-width="0.866572" stroke-linejoin="round"/>
<path d="M26.9468 24.0653C25.8001 24.3194 23.7611 24.4923 22.8438 23.8823C23.4724 24.8354 25.1825 26.5588 26.9468 24.0653Z" fill="#8B8B8B" stroke="#1F1F1F" stroke-width="0.866572" stroke-linejoin="round"/>
<ellipse cx="25.23" cy="22.912" rx="0.798803" ry="0.640273" fill="#404040" stroke="#1F1F1F" stroke-width="0.866572" stroke-linejoin="round"/>
<path d="M28.1235 21.1992C25.6446 22.9906 23.0986 23.3739 22.0794 23.1198C22.4616 22.3573 26.666 19.3072 27.4304 19.6885C28.0419 19.9935 28.4018 20.4422 28.1235 21.1992Z" fill="#8B8B8B" stroke="#1F1F1F" stroke-width="0.866572" stroke-linejoin="round"/>
<path d="M22.28 22.7437C22.28 21.1418 25.2132 17.8426 27.6594 19.9776C26.5128 20.3589 24.1146 20.9137 22.28 22.7437Z" fill="#121212" stroke="#1F1F1F" stroke-width="0.866572" stroke-linejoin="round"/>
<path d="M21.482 22.3501C22.2465 20.0626 18.8065 16.2501 15.3666 19.6813C13.4555 21.5876 17.6599 27.6876 21.482 22.3501Z" fill="#F4F4F4" stroke="#1F1F1F" stroke-width="0.866572" stroke-linejoin="round"/>
<path d="M15.7488 23.4938C16.8954 23.748 19.4181 24.1038 20.3354 23.4938C19.3161 24.6376 16.9719 26.2388 15.7488 23.4938Z" fill="#8B8B8B" stroke="#1F1F1F" stroke-width="0.866572" stroke-linejoin="round"/>
<ellipse cx="18.3899" cy="22.6401" rx="0.798803" ry="0.853698" fill="#404040" stroke="#1F1F1F" stroke-width="0.866572" stroke-linejoin="round"/>
<path d="M14.9844 20.4438C17.4306 22.8838 20.0806 22.9855 21.0999 22.7313C20.7176 21.9688 16.5132 18.9188 15.7488 19.3001C15.1373 19.6051 14.9844 20.1897 14.9844 20.4438Z" fill="#8B8B8B" stroke="#1F1F1F" stroke-width="0.866572" stroke-linejoin="round"/>
<path d="M20.7639 22.4623C20.3055 20.5101 16.8806 16.4948 15.3938 19.5049C16.5405 19.8862 18.9292 20.6323 20.7639 22.4623Z" fill="#121212" stroke="#1F1F1F" stroke-width="0.866572" stroke-linejoin="round"/>
</svg>
