<svg width="124" height="28" viewBox="0 0 124 28" fill="none" xmlns="http://www.w3.org/2000/svg">
<path d="M60.7321 15.7039C60.0088 15.9842 59.292 16.006 58.55 15.7645C58.2741 15.6581 57.9791 15.6786 57.738 15.772C57.4969 15.8655 57.2337 15.8907 56.98 15.8525C56.758 15.8191 56.5264 15.8491 56.2996 15.8474C56.1363 15.8552 56.0047 15.8678 55.8461 15.844C55.5876 15.8375 55.353 15.6724 55.0945 15.666C54.836 15.6595 54.5997 15.7212 54.3365 15.7464C54.2365 15.7638 54.1462 15.7178 54.0193 15.6987C53.6657 15.6779 53.3121 15.6571 52.9584 15.6363C52.7951 15.6441 52.6634 15.6567 52.5001 15.6646C52.3685 15.6772 52.2416 15.6581 52.1369 15.7072C51.8276 15.8228 51.5327 15.8433 51.2472 15.8003C51.1204 15.7812 50.9887 15.7938 50.8523 15.8381C50.6842 15.8777 50.5574 15.8586 50.4083 15.7713C50.2007 15.6427 49.9739 15.641 49.7423 15.671C49.4426 15.7232 49.1159 15.7389 48.8305 15.6959C48.1993 15.7955 47.565 15.7 46.9212 15.6679C46.5358 15.6423 46.1457 15.6485 45.7699 15.5595C45.6113 15.5356 45.4115 15.5704 45.2482 15.5782C45.0531 15.5813 44.8216 15.6113 44.636 15.5509C44.0747 15.4016 43.4531 15.4377 42.887 15.3201C42.7284 15.2962 42.5968 15.3088 42.4335 15.3166C42.075 15.3276 41.7119 15.3702 41.3535 15.3811C41.0268 15.3968 40.7001 15.4125 40.3512 15.3599C40.0341 15.3122 39.7439 15.3009 39.422 15.2849C39.1952 15.2832 38.9732 15.2498 38.7703 15.0895C38.5626 14.9609 38.3454 14.8958 38.1186 14.8941C37.6064 14.8494 37.0895 14.8365 36.5725 14.8235C36.2823 14.8122 36.019 14.8375 35.7288 14.8262C35.5703 14.8023 35.3704 14.8371 35.2023 14.8767C34.8074 14.9145 34.4442 14.9571 34.0494 14.995C33.7544 15.0155 33.4372 14.9677 33.1661 14.8296C33.0441 14.7788 32.922 14.728 32.7999 14.6772C32.5288 14.539 32.2751 14.5009 31.9801 14.5213C31.5852 14.5592 31.2046 14.5019 30.8749 14.3225C30.7259 14.2352 30.599 14.2161 30.4309 14.2556C30.1311 14.3078 29.8044 14.3235 29.549 14.5121C29.3301 14.6737 29.1033 14.672 28.8861 14.6069C28.4199 14.4718 28.1028 14.4241 27.6493 14.4207C27.2591 14.4268 26.8738 14.4012 26.4932 14.3439C26.3347 14.3201 26.1492 14.2597 25.9954 14.2041C25.5705 14.0104 25.1582 13.9483 24.7172 14.0766C24.3762 14.1874 24.0591 14.1396 23.7563 13.9968C22.8748 13.6046 21.9598 13.4344 20.9941 13.3863C20.8038 13.3577 20.6452 13.3338 20.455 13.3052C20.233 13.2717 20.011 13.2383 19.7525 13.2318C19.272 13.1919 18.7867 13.1837 18.3062 13.1438C18.1477 13.12 17.9891 13.0961 17.867 13.0453C17.5277 12.9293 17.1789 12.8768 16.8157 12.9194C16.4525 12.9621 16.1037 12.9095 15.7548 12.857C14.7399 12.7042 13.7299 12.5197 12.7198 12.3352C12.122 12.2128 11.529 12.0587 10.9312 11.9362C10.6188 11.8568 10.343 11.7504 10.1131 11.5536C9.56307 11.1141 9.00347 10.7379 8.3709 10.4157C8.33919 10.4109 8.28531 10.3379 8.25837 10.3014C8.23143 10.2649 8.24098 10.2015 8.24575 10.1698C8.25053 10.1381 8.28702 10.1111 8.28702 10.1111C8.42342 10.0668 8.59154 10.0272 8.72317 10.0146C9.93001 9.96929 11.1369 9.92394 12.3341 9.94203C13.1096 9.96147 13.8755 10.0443 14.651 10.0638C15.8752 10.1184 17.0899 10.2364 18.3458 10.2957C19.0214 10.3325 19.67 10.3329 20.3455 10.3697C20.9893 10.4018 21.6379 10.4021 22.2722 10.4976C23.0064 10.5757 23.7549 10.5587 24.4939 10.6051C25.5548 10.6675 26.584 10.7251 27.6449 10.7875C27.8399 10.7845 28.0667 10.7862 28.257 10.8148C29.3226 10.8455 30.4152 10.9127 31.4857 10.9117C33.0049 10.9458 34.5145 11.0434 36.0068 11.041C36.592 11.0318 37.1993 11.0908 37.7797 11.1133C39.467 11.1079 41.1717 11.2023 42.8638 11.1652C44.0025 11.142 45.1681 11.1553 46.3336 11.1686C47.6308 11.1693 48.8963 11.1652 50.1935 11.1659C51.5542 11.1762 52.9196 11.1547 54.2802 11.1649C55.1239 11.1622 55.9771 11.0961 56.8255 11.0616C57.2474 11.0603 57.7009 11.0637 58.1275 11.0306C59.171 10.9931 60.2193 10.9239 61.2945 10.8912C62.0747 10.8789 62.8232 10.8619 63.6082 10.8179C64.425 10.7787 65.2417 10.7395 66.0584 10.7003C67.1701 10.6406 68.3183 10.554 69.4252 10.526C69.7154 10.5373 70.0469 10.4899 70.3419 10.4694C70.8732 10.3872 71.4266 10.3733 71.9484 10.3545C72.3433 10.3167 72.7017 10.3058 73.0966 10.2679C73.8816 10.2239 74.6666 10.1799 75.4881 10.109C76.1097 10.0729 76.7314 10.0367 77.3213 9.99583C77.5164 9.99276 77.721 9.92627 77.9161 9.9232C78.3792 9.86318 78.8375 9.83489 79.3006 9.77487C79.8271 9.72441 80.3219 9.66916 80.8484 9.6187C81.0118 9.61086 81.2116 9.57608 81.375 9.56824C81.7968 9.56688 82.2599 9.50686 82.6643 9.40558C82.9006 9.34386 83.1639 9.31863 83.4272 9.2934C83.6952 9.23645 83.9632 9.17951 84.263 9.12734C84.263 9.12734 84.2995 9.1004 84.3042 9.06868C84.309 9.03697 84.2821 9.00048 84.2821 9.00048C83.8381 8.93364 83.3624 8.86202 82.8993 8.92203C82.1729 9.00728 81.4831 9.06559 80.7615 9.11912C80.5299 9.14912 80.3032 9.14742 80.0716 9.17742C79.9083 9.18527 79.7766 9.19788 79.6133 9.20573C78.5555 9.33837 77.512 9.37587 76.4637 9.44508C75.5471 9.50168 74.6083 9.49008 73.709 9.6466C73.4727 9.70832 73.1873 9.66535 72.9288 9.65887C72.4435 9.65068 71.963 9.61078 71.4778 9.60259C70.1806 9.60189 68.8469 9.62814 67.5401 9.69087C66.8867 9.72224 66.2746 9.69495 65.626 9.69461C65.2676 9.70551 64.914 9.68471 64.5556 9.69562C64.2971 9.68914 64.0386 9.68266 63.7801 9.67618C63.463 9.62843 63.168 9.64889 62.8635 9.73278C62.5273 9.81189 62.2006 9.82757 61.8565 9.74334C61.6979 9.71946 61.5441 9.66388 61.4125 9.67649C60.8495 9.7539 60.2834 9.63624 59.7252 9.68193C59.5935 9.69455 59.4667 9.67545 59.3398 9.65636C58.3932 9.48141 57.4448 9.53323 56.5012 9.55334C55.7162 9.59733 54.9503 9.51445 54.2066 9.49978C53.7895 9.46943 53.4042 9.44385 52.9823 9.44521C52.7873 9.44828 52.5653 9.41486 52.3702 9.41792C51.6947 9.38109 51.0461 9.38074 50.3705 9.34391C50.1438 9.3422 49.917 9.34049 49.695 9.30707C48.9608 9.22897 48.2171 9.2143 47.4655 9.03629C47.3386 9.01719 47.207 9.02981 47.0801 9.01071C46.7899 8.99945 46.5045 8.95648 46.246 8.95C45.5483 8.84496 44.8189 8.73515 44.1164 8.66182C43.7041 8.59976 43.2871 8.5694 42.8969 8.57554C42.575 8.55951 42.2262 8.50699 41.9234 8.3641C41.6523 8.22599 41.3351 8.17825 41.018 8.1305C40.5375 8.0906 40.0666 7.98727 39.6004 7.85222C39.1977 7.72673 38.7537 7.65989 38.3097 7.59304C37.9608 7.54052 37.6532 7.42935 37.3504 7.28647C36.7813 6.97375 36.2073 6.69275 35.6334 6.41175C35.5113 6.36094 35.394 6.27842 35.3037 6.23238C35.096 6.10382 35.02 5.96264 35.066 5.87227C35.1168 5.75019 35.2532 5.70586 35.3848 5.69324C35.9161 5.61106 36.4474 5.52888 37.0009 5.51491C38.2125 5.43785 39.4193 5.39251 40.6214 5.37888C41.565 5.35877 42.5086 5.33865 43.4791 5.35503C44.513 5.38096 45.5248 5.33868 46.5635 5.3329C46.6635 5.3155 46.7634 5.29811 46.8585 5.31244C48.0462 5.39395 49.2262 5.31212 50.3917 5.32543C52.1108 5.32476 53.8298 5.3241 55.5441 5.35515C55.8026 5.36163 56.061 5.36811 56.3243 5.34287C57.4043 5.27843 58.4652 5.34085 59.5721 5.3129C61.1326 5.28836 62.6883 5.29553 64.263 5.17585C64.6579 5.138 65.0433 5.16358 65.4017 5.15267C65.8235 5.15131 66.2136 5.14518 66.6355 5.14382C67.0938 5.11552 67.5473 5.11893 68.0278 5.15884C68.3814 5.17964 68.7398 5.16873 69.0982 5.15782C69.4297 5.11043 69.7564 5.09474 70.11 5.11555C70.5588 5.15068 71.0219 5.09066 71.485 5.03065C72.3699 4.96928 73.2865 4.91267 74.1667 4.88301C74.5933 4.84994 75.0468 4.85336 75.483 4.75685C75.5512 4.73469 75.629 4.64909 75.6068 4.58089C75.5846 4.51269 75.5307 4.43971 75.4673 4.43016C75.4039 4.42061 75.3087 4.40629 75.2453 4.39674C75.1185 4.37764 74.9868 4.39026 74.8552 4.40288C74.4334 4.40424 73.9751 4.43254 73.5532 4.4339C73.3899 4.44174 73.2582 4.45436 73.0997 4.43048C71.7216 4.32032 70.3341 4.27359 68.9417 4.25857C68.6832 4.25209 68.4295 4.2139 68.171 4.20742C67.6002 4.12148 66.9881 4.09419 66.4029 4.10339C65.3642 4.10918 64.3398 4.01983 63.3423 3.96696C62.4083 3.92364 61.4886 3.78518 60.5863 3.74664C60.5228 3.73709 60.4864 3.76403 60.4277 3.72277C59.554 3.49394 58.6374 3.55054 57.7494 3.41686C57.0517 3.31182 56.3857 3.21155 55.6737 3.20166C55.642 3.19688 55.6102 3.19211 55.6102 3.19211C54.8222 3.04103 54.061 2.92645 53.2682 2.80709C52.7608 2.7307 52.2581 2.62259 51.7555 2.51449C51.5017 2.47629 51.2528 2.40638 50.9991 2.36818C50.8088 2.33954 50.655 2.28395 50.4647 2.2553C48.7157 2.02442 47.0001 1.57154 45.294 1.05524C45.3131 0.928382 45.4035 0.974418 45.4669 0.983968C45.7619 0.963508 46.0203 0.969991 46.3105 0.981247C47.3984 1.08015 48.5179 1.18383 49.601 1.31445C50.4303 1.40687 51.2184 1.55794 52.0477 1.65036C53.099 1.77621 54.1552 1.87034 55.1748 1.99141C57.0872 2.21444 59.0187 2.31063 60.9137 2.43375C61.7478 2.49446 62.5549 2.51868 63.3621 2.5429C64.2961 2.58621 65.2571 2.66602 66.1911 2.70934C66.8667 2.74617 67.5739 2.78778 68.2543 2.7929C68.803 2.81064 69.3199 2.8236 69.8686 2.84134C70.3856 2.85431 70.9026 2.86727 71.4195 2.88023C73.0069 2.89218 74.5896 2.93585 76.177 2.9478C77.2109 2.97372 78.2179 2.96316 79.2567 2.95737C80.7489 2.955 82.2364 2.98434 83.7287 2.98197C84.409 2.98709 85.1258 2.96527 85.8061 2.97039C86.5816 2.98984 87.357 3.00928 88.096 3.05566C88.6447 3.0734 89.2251 3.09592 89.7959 3.18185C90.0497 3.22005 90.3034 3.25825 90.5571 3.29644C90.7791 3.32986 90.9598 3.42194 91.0945 3.60438C91.3148 3.86457 91.562 4.16125 91.7823 4.42145C91.8631 4.53091 91.798 4.74814 91.6616 4.79247C91.6251 4.81941 91.5569 4.84157 91.5252 4.8368C90.5308 4.97899 89.5364 5.12118 88.5468 5.23166C88.3835 5.2395 88.247 5.28384 88.0885 5.25996C87.6397 5.22483 87.2083 5.28962 86.7991 5.42261C86.3217 5.57777 85.8317 5.60129 85.3703 5.43453C84.9723 5.27732 84.5505 5.27868 84.1778 5.38474C83.7368 5.51295 83.3198 5.4826 82.8836 5.5791C82.6838 5.61388 82.4618 5.58046 82.2715 5.55181C81.9909 5.47713 81.7276 5.50236 81.4452 5.65445C81.0582 5.85564 80.6268 5.92043 80.1733 5.91702C80.0099 5.92486 79.8149 5.92793 79.6467 5.96748C78.9964 6.19391 78.3257 6.12536 77.6597 6.02509C77.5011 6.00122 77.3473 5.94564 77.2204 5.92654C76.8716 5.87402 76.5227 5.8215 76.1548 5.89584C76.0184 5.94017 75.8598 5.91629 75.6965 5.92414C75.216 5.88423 74.7212 5.93947 74.2659 6.16283C73.9154 6.33709 73.5252 6.34322 73.1573 6.41756C72.9892 6.45711 72.8037 6.39675 72.6182 6.33639C72.3058 6.25693 72.0204 6.21396 71.7206 6.26613C71.4209 6.31831 71.0989 6.30228 70.8135 6.25931C70.4916 6.24327 70.138 6.22247 69.8161 6.20644C69.4941 6.19041 69.1944 6.24258 68.9168 6.36296C68.6027 6.51027 68.2539 6.45775 67.9398 6.60507C67.7352 6.67156 67.5402 6.67463 67.3594 6.58255C67.2056 6.52696 67.0835 6.47616 66.9297 6.42057C66.6808 6.35066 66.4588 6.31724 66.1812 6.43761C65.7307 6.62926 65.282 6.59413 64.811 6.4908C64.2132 6.36837 63.6155 6.24594 62.9842 6.34551C62.8526 6.35813 62.721 6.37074 62.5989 6.31993C61.9963 6.22921 61.3794 6.23364 60.7704 6.40141C60.4976 6.49008 60.2122 6.44711 59.9441 6.50405C59.213 6.62101 58.4471 6.53814 57.7033 6.52347C57.54 6.53131 57.3862 6.47572 57.2641 6.42491C57.02 6.32329 56.7567 6.34852 56.5156 6.44195C56.4791 6.46889 56.4109 6.49106 56.3792 6.48629C56.2063 6.55756 56.0112 6.56062 55.8622 6.47332C55.4421 6.24791 54.9885 6.24449 54.4985 6.26802C53.9768 6.28677 53.4867 6.3103 52.9824 6.42897C52.8825 6.44636 52.7508 6.45897 52.6922 6.41771C52.4528 6.28437 52.1895 6.3096 51.9532 6.37132C51.3537 6.47567 50.7273 6.54352 50.1152 6.51624C49.8884 6.51453 49.6568 6.54454 49.4301 6.54283C49.2033 6.54112 48.9717 6.57113 48.745 6.56942C47.784 6.48961 46.8404 6.50973 45.8921 6.56155C45.4972 6.5994 45.0801 6.56905 44.6583 6.57041C44.4315 6.5687 44.1952 6.63042 43.9858 6.72863C43.7764 6.82684 43.5401 6.88856 43.3355 6.95506C43.299 6.982 43.2578 7.04065 43.253 7.07236C43.2482 7.10408 43.3021 7.17705 43.3338 7.18183C43.4559 7.23264 43.578 7.28345 43.7048 7.30255C44.1488 7.36939 44.6245 7.44101 45.0685 7.50785C45.4491 7.56515 45.8344 7.59072 46.215 7.64802C47.2933 7.81035 48.3542 7.87276 49.442 7.97167C50.1175 8.0085 50.7566 8.07228 51.4274 8.14083C51.9078 8.18073 52.3931 8.18892 52.8784 8.19711C53.6221 8.21178 54.3611 8.25816 55.1048 8.27283C56.2656 8.31786 57.3995 8.32639 58.5603 8.37141C59.6259 8.40212 60.6599 8.42804 61.7255 8.45874C62.4693 8.47341 63.213 8.48808 63.9616 8.47104C65.8122 8.45776 67.6629 8.44448 69.5136 8.4312C70.3889 8.43325 71.2691 8.40359 72.1175 8.36916C73.0342 8.31256 73.973 8.32416 74.8848 8.29927C76.5817 8.23041 78.2786 8.16154 79.9581 7.99275C80.4529 7.93751 80.9746 7.91876 81.4964 7.90001C82.4082 7.87512 83.3566 7.8233 84.2463 7.73021C84.6412 7.69236 84.9996 7.68146 85.3945 7.64361C88.1857 7.41516 90.9547 7.1185 93.738 6.7267C94.5643 6.62407 95.4175 6.55792 96.2755 6.46006C97.5601 6.32912 98.8811 6.17124 100.166 6.04031C100.461 6.01985 100.724 5.99462 101.019 5.97416C102.035 5.90017 103.057 5.79447 104.105 5.72525C105.022 5.66865 105.938 5.61205 106.882 5.59194C107.372 5.56841 107.857 5.5766 108.338 5.61651C108.918 5.63902 109.319 5.99129 109.601 6.4878C109.65 6.59249 109.622 6.78278 109.517 6.83188C108.894 7.0948 108.302 7.36248 107.612 7.42079C107.254 7.4317 106.913 7.54252 106.545 7.61686C105.736 7.81941 104.914 7.89034 104.112 7.83441C103.922 7.80576 103.753 7.84531 103.585 7.88487C103.417 7.92443 103.244 7.9957 103.049 7.99876C102.369 7.99364 101.733 8.12492 101.065 8.25143C100.834 8.28144 100.597 8.34316 100.366 8.37317C100.103 8.3984 99.8885 8.52832 99.7551 8.76771C99.5696 8.70735 99.3841 8.64699 99.2208 8.65483C99.0257 8.6579 98.7989 8.65619 98.5991 8.69097C97.8727 8.77622 97.1195 8.82498 96.3931 8.91022C96.3249 8.93239 96.2298 8.91807 96.1615 8.94023C95.1116 9.23622 94.0316 9.30066 92.9738 9.4333C91.8525 9.5564 90.7265 9.71121 89.61 9.80259C88.8202 9.87828 88.0257 9.9857 87.2581 10.1296C87.0265 10.1596 86.795 10.1896 86.5634 10.2196C86.1638 10.2892 85.7689 10.327 85.3423 10.3601C84.9204 10.3615 84.5208 10.431 84.1259 10.4689C83.436 10.5272 82.7414 10.6172 82.0389 10.5439C81.8803 10.52 81.7439 10.5643 81.5758 10.6039C81.3395 10.6656 81.0714 10.7226 80.8351 10.7843C80.4672 10.8586 80.0723 10.8965 79.6917 10.8392C79.4697 10.8057 79.2429 10.804 79.0162 10.8023C78.802 10.9323 78.5292 11.0209 78.2755 10.9827C77.8949 10.9254 77.527 10.9998 77.1273 11.0693C76.3914 11.218 75.6603 11.335 74.9261 11.2569C74.8309 11.2425 74.7041 11.2234 74.6311 11.2773C73.9538 11.4673 73.2514 11.3939 72.5615 11.4522C72.3981 11.4601 72.2031 11.4632 72.035 11.5027C71.667 11.577 71.3356 11.6244 70.9693 11.472C70.7838 11.4116 70.6157 11.4512 70.4476 11.4908C69.802 11.6855 69.1487 11.7168 68.4874 11.5849C68.3606 11.5658 68.2289 11.5784 68.1069 11.5276C67.6042 11.4195 67.1046 11.5064 66.6177 11.725C66.1624 11.9484 65.6772 11.9402 65.1745 11.8321C64.767 11.7383 64.3817 11.7127 63.9598 11.7141C63.6331 11.7297 63.2969 11.8089 62.9924 11.8927C62.7196 11.9814 62.4515 12.0383 62.1709 11.9637C61.9219 11.8938 61.6587 11.919 61.4224 11.9807C61.2907 11.9933 61.186 12.0424 61.0544 12.055C60.7499 12.1389 60.4597 12.1277 60.1473 12.0482C59.9618 11.9879 59.7446 11.9227 59.5543 11.8941C59.2419 11.8146 58.9565 11.7716 58.6472 11.8872C58.3062 11.9981 57.9478 12.009 57.5942 11.9882C56.982 11.9609 56.3556 12.0287 55.7609 12.1014C55.6293 12.114 55.4976 12.1266 55.3882 12.2074C55.128 12.4277 54.8061 12.4117 54.5159 12.4004C54.4841 12.3957 54.4524 12.3909 54.4524 12.3909C54.3764 12.2497 54.2638 12.1355 54.1053 12.1116C53.8246 12.0369 53.5709 11.9987 53.2903 11.924C53.2221 11.9462 53.1491 12.0001 53.1126 12.027C52.862 12.1839 52.5939 12.2408 52.3133 12.1661C51.7155 12.0437 51.1525 12.1211 50.5973 12.3619C50.215 12.5313 49.8344 12.474 49.4539 12.4168C49.3587 12.4024 49.2684 12.3564 49.1732 12.3421C49.0068 12.1548 48.7896 12.0897 48.5628 12.088C48.1458 12.0577 47.7556 12.0638 47.3386 12.0334C47.2117 12.0143 47.0801 12.027 46.958 11.9761C46.6139 11.8919 46.2825 11.9393 45.9558 11.955C45.7607 11.9581 45.5513 12.0563 45.4006 12.1957C45.2451 12.3669 45.0501 12.37 44.8328 12.3049C44.7694 12.2953 44.7377 12.2905 44.679 12.2493C44.2763 12.1238 43.8957 12.0665 43.4691 12.0996C43.0108 12.1279 42.5351 12.0562 42.0959 11.9577C42.0007 11.9434 41.9104 11.8973 41.7835 11.8782C41.6567 11.8591 41.525 11.8717 41.4156 11.9526C41.3061 12.0334 41.1919 12.1459 41.0507 12.222C40.9095 12.298 40.7414 12.3376 40.6241 12.255C40.3308 12.0487 39.9455 12.0231 39.6522 11.8168C39.4762 11.693 39.3129 11.7009 39.1352 11.8039C39.0258 11.8847 38.8989 11.8656 38.772 11.8465C38.5865 11.7861 38.4327 11.7305 38.2425 11.7019C38.0522 11.6732 37.8302 11.6398 37.6303 11.6746C37.2355 11.7124 36.8041 11.7772 36.4092 11.8151C36.2093 11.8499 35.9873 11.8164 35.7875 11.8512C35.6242 11.8591 35.4656 11.8352 35.3244 11.9112C34.9691 12.1172 34.6519 12.0695 34.2857 11.917C33.856 11.755 33.4294 11.7881 32.9933 11.8846C32.8616 11.8972 32.7522 11.9781 32.6475 12.0272C32.5428 12.0763 32.4064 12.1206 32.3017 12.1697C32.1701 12.1823 32.0432 12.1632 31.9624 12.0538C31.9355 12.0173 31.9085 11.9808 31.8863 11.9126C31.7834 11.7349 31.6343 11.6476 31.425 11.7458C31.3885 11.7728 31.3203 11.7949 31.2886 11.7901C31.2203 11.8123 31.1204 11.8297 31.0666 11.7567C30.9097 11.5061 30.7146 11.5091 30.4783 11.5709C30.0691 11.7039 29.6425 11.7369 29.1889 11.7335C28.9622 11.7318 28.7306 11.7618 28.4943 11.8235C28.4261 11.8457 28.3262 11.8631 28.2849 11.9217C28.1564 12.1294 27.9565 12.1642 27.7662 12.1356C26.7371 12.0779 25.7253 12.1202 24.7057 11.9991C24.5154 11.9705 24.3473 12.01 24.1522 12.0131C23.9572 12.0162 23.7938 12.024 23.6035 11.9954C22.9914 11.9681 22.3841 11.9091 21.772 11.8818C21.6134 11.8579 21.45 11.8658 21.3406 11.9466C21.3041 11.9735 21.2945 12.0369 21.2898 12.0687C21.2898 12.0687 21.3167 12.1051 21.3436 12.1416C21.4657 12.1924 21.5926 12.2115 21.7194 12.2306C22.0001 12.3053 22.2855 12.3483 22.5249 12.4816C22.7643 12.615 23.0497 12.6579 23.3399 12.6692C23.6571 12.7169 24.0059 12.7695 24.323 12.8172C25.4648 12.9891 26.6065 13.161 27.7529 13.3011C28.3872 13.3966 29.031 13.4287 29.6701 13.4925C31.0481 13.6026 32.4309 13.6811 33.7946 13.8864C33.9849 13.915 34.2069 13.9484 34.402 13.9454C34.9237 13.9266 35.4264 14.0347 35.9386 14.0794C36.5459 14.1384 37.1532 14.1974 37.7606 14.2564C38.0825 14.2724 38.3727 14.2837 38.6898 14.3314C39.5144 14.4556 40.3264 14.4481 41.1288 14.504C41.4507 14.52 41.8043 14.5408 42.1262 14.5569C42.4164 14.5681 42.7066 14.5794 42.9651 14.5859C43.1284 14.578 43.2553 14.5971 43.4186 14.5893C44.1576 14.6357 44.8918 14.7138 45.6356 14.7284C46.7012 14.7591 47.7208 14.8802 48.8008 14.8158C49.0958 14.7953 49.3495 14.8335 49.6397 14.8448C50.8053 14.8581 51.9344 14.8983 53.0999 14.9116C54.007 14.9185 54.9458 14.9301 55.8529 14.9369C56.7917 14.9485 57.7623 14.9649 58.7011 14.9765C58.7645 14.986 58.7962 14.9908 58.8644 14.9686C60.4566 14.9489 62.0488 14.9291 63.6409 14.9093C64.0628 14.908 64.4529 14.9018 64.8747 14.9005C65.655 14.8882 66.4717 14.849 67.2519 14.8367C67.6103 14.8258 67.9639 14.8466 68.3224 14.8357C68.8441 14.817 69.3341 14.7934 69.8559 14.7747C70.4141 14.729 70.9676 14.715 71.548 14.7375C71.7748 14.7392 72.0015 14.741 72.2283 14.7427C73.2496 14.637 74.2836 14.6629 75.2954 14.6206C75.8805 14.6114 76.4753 14.5388 77.0604 14.5296C77.5822 14.5108 78.0722 14.4873 78.594 14.4685C78.789 14.4655 79.0158 14.4672 79.2156 14.4324C80.3004 14.3362 81.4073 14.3083 82.5238 14.2169C83.5038 14.1699 84.4617 14.0546 85.4466 13.9758C86.8897 13.8688 88.3694 13.7348 89.8126 13.6277C90.6023 13.552 91.3921 13.4763 92.1819 13.4006C92.4452 13.3754 92.6767 13.3454 92.94 13.3202C95.0048 13.1769 97.057 12.9021 99.1362 12.6638C101.315 12.408 103.531 12.1253 105.71 11.8696C106.736 11.7322 107.757 11.6265 108.752 11.4843C109.015 11.4591 109.31 11.4386 109.6 11.4499C110.449 11.4154 111.297 11.381 112.123 11.2784C113.049 11.1583 113.957 11.1652 114.873 11.1086C115.168 11.0881 115.427 11.0946 115.722 11.0741C116.348 11.0063 117.001 10.9749 117.65 10.9752C117.813 10.9674 117.977 10.9596 118.108 10.9469C118.476 10.8726 118.83 10.8934 119.174 10.9776C119.491 11.0254 119.84 11.0779 120.157 11.1257C120.728 11.2116 121.253 11.3879 121.717 11.7497C121.947 11.9465 122.213 12.1163 122.443 12.3131C122.529 12.3908 122.5 12.5811 122.422 12.6667C121.926 12.9487 121.488 13.272 120.92 13.3811C120.652 13.4381 120.375 13.5584 120.107 13.6154C119.839 13.6723 119.548 13.6611 119.28 13.718C119.008 13.8067 118.757 13.9635 118.516 14.057C118.311 14.1235 118.111 14.1582 117.912 14.193C117.412 14.28 116.908 14.3987 116.43 14.5538C115.984 14.7137 115.521 14.7737 115.068 14.7703C114.419 14.77 113.788 14.8696 113.157 14.9691C112.957 15.0039 112.757 15.0387 112.575 15.1734C112.278 15.4206 111.942 15.4997 111.606 15.5788C111.201 15.6801 110.801 15.7497 110.394 15.6559C110.235 15.632 110.104 15.6446 109.936 15.6842C109.641 15.7047 109.373 15.7616 109.109 15.7868C108.651 15.8151 108.197 15.8117 107.752 15.9716C107.579 16.0429 107.389 16.0143 107.225 16.0221C106.862 16.0647 106.504 16.0756 106.14 16.1183C105.746 16.1561 105.314 16.2209 104.959 16.4269C104.781 16.5299 104.554 16.5282 104.359 16.5312C104.201 16.5073 104.037 16.5152 103.911 16.4961C103.272 16.4323 102.64 16.5319 102 16.6949C101.863 16.7392 101.763 16.7566 101.627 16.8009C101.391 16.8627 101.123 16.9196 100.931 17.1177C100.816 17.2303 100.653 17.2381 100.494 17.2142C100.304 17.1856 100.077 17.1839 99.8918 17.1235C99.516 17.0345 99.1893 17.0502 98.8166 17.1562C98.5803 17.218 98.3804 17.2527 98.1315 17.1828C97.9412 17.1542 97.7097 17.1842 97.5146 17.1873C97.3513 17.1951 97.2149 17.2394 97.0467 17.279C96.5059 17.4246 95.9207 17.4338 95.372 17.4161C94.8551 17.4031 94.3381 17.3901 93.8559 17.577C93.683 17.6483 93.4879 17.6513 93.3246 17.6592C92.8298 17.7144 92.3397 17.7379 91.8767 17.798C91.7133 17.8058 91.5135 17.8406 91.3454 17.8801C90.9361 18.0131 90.5413 18.051 90.1242 18.0206C89.8023 18.0046 89.4756 18.0203 89.1298 18.1628C88.9204 18.261 88.7301 18.2324 88.5399 18.2037C87.7787 18.0891 86.9889 18.1648 86.2309 18.2453C85.9676 18.2705 85.6726 18.291 85.3777 18.3115C84.7243 18.3428 84.0392 18.3694 83.3858 18.4008C83.159 18.3991 82.9275 18.4291 82.6912 18.4908C82.3232 18.5651 81.9918 18.6125 81.6064 18.587C81.2528 18.5662 80.8896 18.6088 80.5534 18.6879C80.2806 18.7766 79.9856 18.797 79.7002 18.754C79.0659 18.6586 78.4299 18.7898 77.7891 18.9528C77.3847 19.0541 76.985 19.1237 76.5871 18.9665C76.4016 18.9061 76.1748 18.9044 75.9702 18.9709C75.902 18.9931 75.829 19.0469 75.7877 19.1056C75.7004 19.2546 75.6005 19.272 75.4737 19.2529C75.3785 19.2386 75.2834 19.2243 75.1613 19.1734C74.6634 19.0336 74.1512 18.9889 73.6643 19.2075C73.4914 19.2788 73.3232 19.3184 73.1377 19.258C72.6446 19.0865 72.1133 19.1686 71.6185 19.2239C71.3236 19.2443 71.0603 19.2696 70.7701 19.2583C70.6115 19.2344 70.4751 19.2788 70.3118 19.2866C70.1167 19.2897 69.8852 19.3197 69.6949 19.291C69.4412 19.2528 69.1875 19.2147 68.9416 19.3398C68.9051 19.3667 68.8417 19.3572 68.7782 19.3476C68.266 19.303 67.7617 19.4216 67.2543 19.3452C66.6834 19.2593 66.1347 19.2416 65.5717 19.319C65.4401 19.3316 65.3085 19.3442 65.1816 19.3251C64.8962 19.2821 64.6234 19.3708 64.3727 19.5277C64.2633 19.6085 64.1316 19.6211 64.0095 19.5703C63.6433 19.4178 63.2389 19.5191 62.8678 19.3984C62.4968 19.2777 62.0924 19.379 61.7023 19.3851C61.4121 19.3738 61.0854 19.3895 60.7635 19.3735C60.3147 19.3384 59.8294 19.3302 59.3885 19.4584C59.1522 19.5201 58.9254 19.5184 58.7034 19.485C58.2546 19.4498 57.8328 19.4512 57.384 19.4161C56.9035 19.3762 56.4722 19.441 56.0217 19.6326C55.7758 19.7578 55.5173 19.7513 55.2684 19.6814C54.807 19.5146 54.3265 19.4747 53.8508 19.4031C53.5971 19.3649 53.402 19.368 53.1879 19.4979C52.9737 19.6278 52.747 19.6261 52.5297 19.561C52.1222 19.4672 51.7147 19.3734 51.3342 19.3161C51.1439 19.2875 50.9805 19.2953 50.7855 19.2984C50.1321 19.3297 49.4422 19.388 48.7936 19.3877C48.3401 19.3843 47.8596 19.3444 47.4156 19.2775C46.9716 19.2107 46.5498 19.2121 46.1136 19.3086C45.8456 19.3655 45.6188 19.3638 45.3603 19.3573C44.9115 19.3222 44.4263 19.314 43.9727 19.3106C43.7143 19.3041 43.451 19.3293 43.259 19.5275C42.8832 19.4385 42.52 19.4811 42.1569 19.5237C41.9205 19.5854 41.6938 19.5837 41.4813 19.4869C40.9343 19.2424 40.3635 19.1564 39.7561 19.0974C39.5659 19.0688 39.3391 19.0671 39.144 19.0701C38.9807 19.078 38.7904 19.0493 38.6175 19.1206C38.2765 19.2314 37.8911 19.2058 37.5597 19.2532C37.4281 19.2659 37.2378 19.2372 37.1109 19.2181C36.391 19.0449 35.6425 19.0619 34.9035 19.0155C34.7085 19.0186 34.5087 19.0534 34.3088 19.0882C33.9409 19.1625 33.5825 19.1734 33.2288 19.1526C33.0655 19.1604 32.8752 19.1318 32.6897 19.0714C32.0015 18.903 31.2673 18.8249 30.5505 18.8467C30.1921 18.8576 29.8337 18.8685 29.4753 18.8794C29.1804 18.8999 28.8537 18.9156 28.5539 18.9677C28.1907 19.0103 27.8276 19.053 27.493 18.9053C27.3392 18.8497 27.1807 18.8259 27.0538 18.8068C26.6463 18.713 26.2562 18.7191 25.82 18.8156C25.6836 18.8599 25.5203 18.8678 25.3569 18.8756C25.257 18.893 25.2031 18.82 25.2175 18.7249C25.2096 18.5615 25.1557 18.4886 25.0337 18.4378C24.9385 18.4234 24.8117 18.4043 24.7339 18.4899C24.5689 18.7245 24.3738 18.7276 24.1153 18.7211C23.7934 18.7051 23.4984 18.7256 23.1939 18.8094C22.9528 18.9029 22.6991 18.8647 22.4406 18.8582C22.2138 18.8565 21.9918 18.8231 21.7651 18.8214C21.6334 18.834 21.5287 18.8831 21.3923 18.9274C21.3241 18.9496 21.3368 19.0812 21.3637 19.1177C21.4223 19.159 21.4762 19.2319 21.5714 19.2463C21.7617 19.2749 21.9836 19.3083 22.1787 19.3053C22.5371 19.2944 22.886 19.3469 23.23 19.4311C23.5424 19.5106 23.8913 19.5631 24.2084 19.6108C25.0742 19.6763 25.921 19.8687 26.8137 19.9706C27.1626 20.0231 27.5162 20.0439 27.8968 20.1012C29.3699 20.2257 30.8479 20.3185 32.3575 20.416C33.2234 20.4815 34.0892 20.547 34.955 20.6125C36.1111 20.6892 37.2671 20.766 38.4183 20.8744C39.3159 20.9447 40.223 20.9515 41.0936 20.9853C41.4472 21.0061 41.8008 21.0269 42.1545 21.0477C42.7031 21.0654 43.2835 21.0879 43.837 21.074C44.4539 21.0695 45.0708 21.0651 45.6781 21.1241C46.222 21.1735 46.7438 21.1548 47.2972 21.1408C47.8459 21.1586 48.3677 21.1398 48.9211 21.1258C49.4698 21.1436 49.9868 21.1565 50.5403 21.1426C50.7987 21.149 51.0572 21.1555 51.3157 21.162C51.6059 21.1733 51.8913 21.2162 52.1546 21.191C53.2298 21.1583 54.3224 21.2255 55.3976 21.1927C55.7243 21.177 56.0779 21.1979 56.3999 21.2139C57.2974 21.2841 58.1871 21.1911 59.0942 21.1979C60.1646 21.1969 61.2398 21.1641 62.3372 21.1996C62.4641 21.2187 62.5957 21.2061 62.7273 21.1935C63.5171 21.1178 64.3243 21.142 65.1045 21.1297C66.6285 21.1321 68.1303 21.0663 69.6273 21.0322C70.5392 21.0074 71.4876 20.9555 72.3899 20.9941C72.9386 21.0118 73.5333 20.9392 74.0867 20.9252C75.0351 20.8734 75.9787 20.8533 76.927 20.8014C78.0387 20.7418 79.1139 20.7091 80.2256 20.6494C80.7474 20.6306 81.2374 20.6071 81.7639 20.5566C82.4855 20.5031 83.2071 20.4496 83.9239 20.4278C84.904 20.3807 85.884 20.3337 86.8324 20.2818C88.1756 20.1922 89.5506 20.1073 90.8938 20.0176C91.7788 19.9562 92.6685 19.8631 93.5851 19.8065C94.6651 19.7421 95.7229 19.6094 96.8077 19.5133C97.4658 19.4502 98.124 19.3871 98.7821 19.324C100.171 19.144 101.583 19.0322 102.999 18.8886C105.105 18.6868 107.18 18.4801 109.286 18.2783C110.275 18.1678 111.265 18.0573 112.281 17.9833C112.576 17.9629 112.84 17.9376 113.135 17.9172C114.078 17.8971 115.019 17.6819 115.967 17.6301C116.915 17.5782 117.846 17.4265 118.795 17.3747C119.416 17.3385 120.024 17.3975 120.641 17.3931C120.931 17.4044 121.221 17.4156 121.48 17.4221C121.806 17.4064 122.15 17.4906 122.467 17.5384C122.78 17.6179 123.056 17.7242 123.286 17.921C123.488 18.0813 123.691 18.2416 123.894 18.4018C124.007 18.5161 123.978 18.7064 123.864 18.8189C123.608 19.0075 123.331 19.1279 123.026 19.2117C122.69 19.2909 122.386 19.3747 122.049 19.4539C121.813 19.5156 121.55 19.5408 121.282 19.5977C120.982 19.6499 120.687 19.6704 120.356 19.7178C119.892 19.7778 119.434 19.8061 118.988 19.966C118.747 20.0595 118.489 20.053 118.245 19.9514C118 19.8497 117.769 19.8797 117.591 19.9827C117.345 20.1079 117.077 20.1648 116.792 20.1218C116.602 20.0932 116.37 20.1232 116.17 20.158C114.803 20.4062 113.436 20.6545 112.069 20.9027C111.701 20.9771 111.37 21.0244 111.006 21.0671C110.08 21.1871 109.127 21.2706 108.196 21.4224C107.497 21.5441 106.766 21.6611 106.049 21.6829C105.985 21.6733 105.949 21.7003 105.881 21.7224C105.103 21.9298 104.309 22.0372 103.529 22.0495C102.975 22.0634 102.444 22.1456 101.94 22.2643C101.603 22.3434 101.277 22.3591 100.955 22.343C100.796 22.3192 100.633 22.327 100.501 22.3396C99.8382 22.4344 99.1753 22.5292 98.5123 22.624C98.2491 22.6492 98.0175 22.6793 97.7543 22.7045C97.3007 22.7011 96.8376 22.7611 96.3698 22.8528C95.9653 22.9541 95.5704 22.9919 95.1629 22.8982C94.9727 22.8695 94.8093 22.8774 94.6412 22.9169C94.3002 23.0277 93.937 23.0704 93.5786 23.0813C93.1203 23.1096 92.662 23.1379 92.1989 23.1979C91.9356 23.2231 91.6723 23.2483 91.436 23.3101C91.0633 23.4161 90.6684 23.454 90.2878 23.3967C89.9707 23.3489 89.6757 23.3694 89.376 23.4216C89.008 23.4959 88.6544 23.4751 88.3055 23.4226C87.8551 23.6142 87.3872 23.7059 86.8798 23.6295C86.4358 23.5627 86.0092 23.5958 85.5778 23.6606C85.2463 23.708 84.9196 23.7236 84.5929 23.7393C83.7762 23.7785 82.9595 23.8178 82.138 23.8887C81.5798 23.9344 81.0263 23.9483 80.4364 23.9893C80.3047 24.0019 80.1779 23.9828 80.0462 23.9954C79.6292 23.965 79.2391 23.9712 78.8077 24.036C78.6396 24.0755 78.4493 24.0469 78.2859 24.0547C77.7642 24.0735 77.2472 24.0605 76.7524 24.1157C76.3575 24.1536 75.9357 24.1549 75.5139 24.1563C75.2237 24.1451 74.9017 24.129 74.602 24.1812C74.4022 24.216 74.1802 24.1826 73.9851 24.1856C73.668 24.1379 73.373 24.1583 73.0732 24.2105C72.3786 24.3005 71.6983 24.2954 70.991 24.2538C70.4471 24.2043 69.9254 24.2231 69.3941 24.3053C68.931 24.3653 68.4774 24.3619 68.0191 24.3902C66.9391 24.4546 65.8782 24.3922 64.8078 24.3932C64.3543 24.3898 63.9007 24.3864 63.4107 24.4099C62.7938 24.4143 62.1721 24.4505 61.5696 24.3598C61.3793 24.3311 61.1477 24.3611 60.9527 24.3642C60.4991 24.3608 60.0408 24.3891 59.5699 24.2857C59.0942 24.2141 58.6089 24.2059 58.1093 24.2929C57.7779 24.3403 57.4512 24.356 57.1292 24.3399C56.4806 24.3396 55.8638 24.344 55.2199 24.312C54.6443 24.2577 54.0908 24.2717 53.5374 24.2857C52.7302 24.2615 51.8818 24.2959 51.0841 24.2083C50.5085 24.154 49.8916 24.1585 49.3065 24.1677C48.8846 24.169 48.4993 24.1434 48.087 24.0814C47.8967 24.0527 47.6747 24.0193 47.4797 24.0224C46.6899 24.0981 45.897 23.9787 45.0946 23.9228C43.9972 23.8873 42.8777 23.7836 41.8025 23.8163C41.7026 23.8337 41.6074 23.8194 41.4806 23.8003C40.583 23.7301 39.6903 23.6281 38.7927 23.5578C38.539 23.5196 38.2853 23.4814 38.0221 23.5067C37.3687 23.538 36.7344 23.4426 36.1049 23.3153C35.8242 23.2407 35.5658 23.2342 35.2708 23.2546C35.0075 23.2799 34.7538 23.2417 34.4953 23.2352C33.3393 23.1585 32.1928 23.0183 31.032 22.9733C30.615 22.9429 30.1662 22.9078 29.7222 22.8409C29.1466 22.7867 28.6026 22.7373 28.027 22.683C27.7099 22.6353 27.4197 22.624 27.1025 22.5763C26.9757 22.5572 26.8488 22.5381 26.722 22.519C26.0608 22.387 25.612 22.3519 25.1506 22.1851C24.9968 22.1295 24.8287 22.1691 24.7018 22.15C23.8582 22.1527 23.0241 22.092 22.163 21.9948C21.421 21.7534 20.6455 21.7339 19.8748 21.6828C19.2358 21.619 18.6015 21.5235 17.9529 21.5232C17.6944 21.5167 17.4407 21.4785 17.187 21.4403C16.6795 21.3639 16.1721 21.2875 15.6504 21.3063C15.5869 21.2967 15.5552 21.2919 15.487 21.3141C14.6577 21.2217 13.8601 21.134 13.0307 21.0416C12.9356 21.0273 12.8357 21.0447 12.7405 21.0304C12.6406 21.0477 12.5311 21.1286 12.5168 21.2237C12.5025 21.3188 12.5199 21.4188 12.6055 21.4965C12.6641 21.5378 12.718 21.6108 12.7814 21.6203C13.0573 21.7267 13.3063 21.7966 13.5869 21.8713C13.8993 21.9508 14.2481 22.0033 14.5653 22.051C15.5167 22.1943 16.4364 22.3327 17.383 22.5077C17.8905 22.5841 18.3883 22.7239 18.8958 22.8003C19.2129 22.848 19.4936 22.9227 19.8107 22.9704C21.8721 23.2808 23.9287 23.6228 25.9584 23.9284C26.6561 24.0334 27.3269 24.102 28.0294 24.1753C29.1537 24.2473 30.2589 24.4461 31.4054 24.5863C31.8494 24.6531 32.2617 24.7152 32.7152 24.7186C33.0419 24.7029 33.3908 24.7554 33.6984 24.8666C33.979 24.9413 34.2327 24.9795 34.5229 24.9907C34.94 25.0211 35.3888 25.0562 35.8327 25.123C36.5622 25.2329 37.2916 25.3427 38.0353 25.3573C38.1987 25.3495 38.3573 25.3734 38.4841 25.3925C38.9646 25.4324 39.4451 25.4723 39.9303 25.4805C40.0572 25.4996 40.1888 25.4869 40.3157 25.506C41.4669 25.6145 42.6277 25.6595 43.7838 25.7363C44.8764 25.8034 45.9737 25.8389 47.1028 25.8792C47.6198 25.8921 48.1272 25.9685 48.6394 26.0132C49.4101 26.0644 50.1808 26.1155 50.9562 26.135C51.8316 26.137 52.6879 26.2659 53.5681 26.2363C54.4799 26.2114 55.3505 26.2452 56.2576 26.252C56.5161 26.2585 56.7746 26.2649 57.0331 26.2714C57.7403 26.313 58.4159 26.3499 59.101 26.3233C59.4594 26.3124 59.8082 26.3649 60.1666 26.354C61.1419 26.3386 62.1077 26.3867 63.0782 26.4031C64.0804 26.4243 65.0826 26.4454 66.0896 26.4349C66.9381 26.4004 67.7722 26.4611 68.6159 26.4584C69.4278 26.4509 70.2715 26.4482 71.0834 26.4407C71.9588 26.4428 72.8342 26.4448 73.7095 26.4469C73.9997 26.4581 74.3264 26.4424 74.6214 26.422C75.9551 26.3957 77.2888 26.3695 78.6225 26.3432C79.076 26.3467 79.5391 26.2866 79.9927 26.2901C80.5779 26.2809 81.163 26.2717 81.7482 26.2624C83.5672 26.2444 85.3957 26.1629 87.1972 26.0449C88.4041 25.9996 89.6109 25.9542 90.8225 25.8772C92.4242 25.794 93.9943 25.706 95.6008 25.5911C96.7442 25.5362 97.8924 25.4496 99.0723 25.3678C100.189 25.2764 101.327 25.2532 102.449 25.1301C103.407 25.0149 104.387 24.9678 105.371 24.8891C105.998 24.8212 106.656 24.7581 107.282 24.6903C107.809 24.6398 108.299 24.6163 108.821 24.5975C109.211 24.5914 109.606 24.5536 109.977 24.6743C110.009 24.6791 110.035 24.7155 110.035 24.7155C110.031 24.7473 110.021 24.8107 109.985 24.8376C109.948 24.8646 109.912 24.8915 109.843 24.9137C109.239 25.0497 108.662 25.2223 108.045 25.2267C107.587 25.255 107.124 25.315 106.66 25.375C105.834 25.4777 105.04 25.5851 104.218 25.656C103.792 25.6891 103.338 25.6857 102.911 25.7187C102.748 25.7266 102.548 25.7614 102.385 25.7692C102.221 25.777 102.09 25.7897 101.927 25.7975C100.793 25.789 99.6857 25.8169 98.5423 25.8718C98.084 25.9001 97.6305 25.8967 97.1721 25.925C96.9454 25.9233 96.7138 25.9533 96.4823 25.9833C95.9875 26.0385 95.5292 26.0668 95.0122 26.0539C94.7537 26.0474 94.4904 26.0726 94.2272 26.0979C93.4057 26.1688 92.5842 26.2397 91.7722 26.2472C91.0602 26.2373 90.3386 26.2908 89.617 26.3444C88.3007 26.4705 87.0035 26.4698 85.692 26.5643C85.4969 26.5673 85.2654 26.5974 85.0703 26.6004C84.612 26.6287 84.1537 26.657 83.6954 26.6853C83.2735 26.6867 82.8786 26.7245 82.4568 26.7259C81.9668 26.7494 81.4815 26.7412 80.9867 26.7965C80.1969 26.8722 79.3898 26.8479 78.6095 26.8602C78.3193 26.849 78.0561 26.8742 77.7563 26.9264C77.2885 27.0181 76.8301 27.0464 76.3861 26.9795C76.1641 26.9461 75.9326 26.9761 75.7058 26.9744C75.1793 27.0249 74.6211 27.0706 74.0898 27.1528C73.7266 27.1954 73.373 27.1746 73.0193 27.1538C71.7634 27.0944 70.5218 26.9399 69.2689 27.0756C69.0691 27.1104 68.8692 27.1452 68.6694 27.18C68.2967 27.286 67.9018 27.3239 67.5117 27.33C66.8313 27.3249 66.178 27.3563 65.5024 27.3194C65.2122 27.3082 64.8903 27.2921 64.5779 27.2127C64.2021 27.1237 63.812 27.1298 63.4219 27.136C62.8684 27.1499 62.3102 27.1956 61.7441 27.078C61.6173 27.0589 61.4856 27.0715 61.354 27.0841C61.2224 27.0967 61.0908 27.1093 60.9639 27.0902C60.3978 26.9726 59.8348 27.05 59.2861 27.0322C58.896 27.0384 58.5059 27.0445 58.1301 26.9555C57.8447 26.9125 57.518 26.9282 57.223 26.9487C56.928 26.9691 56.6648 26.9944 56.3698 27.0148C55.9432 27.0479 55.4896 27.0445 55.0774 26.9824C54.2163 26.8852 53.3457 26.8515 52.4656 26.8811C52.2388 26.8794 52.012 26.8777 51.7852 26.876C51.2365 26.8583 50.7244 26.8136 50.1709 26.8276C49.8759 26.848 49.5588 26.8003 49.2416 26.7525C48.6438 26.6301 48.0808 26.7075 47.4687 26.6802C46.6742 26.7876 45.8861 26.6365 45.0837 26.5806C44.6032 26.5407 44.1227 26.5008 43.6327 26.5243C43.1744 26.5526 42.7304 26.4858 42.2499 26.4459C41.5474 26.3726 40.8814 26.2723 40.1646 26.2941C40.0013 26.302 39.8427 26.2781 39.7158 26.259C39.3305 26.2334 38.9404 26.2395 38.5598 26.1823C37.9572 26.0915 37.3451 26.0643 36.7235 26.1004C36.6553 26.1226 36.5601 26.1082 36.4967 26.0987C35.5136 25.9507 34.5161 25.8978 33.5108 25.6816C33.0081 25.5735 32.4959 25.5288 31.9742 25.5476C31.7474 25.5459 31.5207 25.5442 31.2987 25.5107C30.6644 25.4152 30.0301 25.3198 29.3958 25.2243C29.047 25.1717 28.6981 25.1192 28.3128 25.0936C27.2836 25.036 26.2735 24.8515 25.2587 24.6987C24.783 24.6271 24.3025 24.5872 23.7903 24.5425C23.4731 24.4948 23.1829 24.4835 22.8658 24.4358C21.0994 24.105 19.3186 23.8693 17.5474 23.5703C16.7545 23.4509 15.9617 23.3315 15.2053 23.1852C14.1097 22.923 12.9997 22.7559 11.8945 22.5571C10.9478 22.3821 9.97423 22.1707 9.03236 21.964C8.68828 21.8798 8.3442 21.7955 8.00012 21.7113C7.1851 21.5237 6.33837 21.3314 5.52336 21.1438C5.33307 21.1152 5.17928 21.0596 4.99377 20.9993C4.61798 20.9102 4.24696 20.7895 3.86639 20.7322C3.42239 20.6654 3.02443 20.5082 2.66774 20.2923C1.93218 19.7924 1.14581 19.4145 0.400707 18.978C0.432421 18.9828 0.373767 18.9415 0.319888 18.8686C0.324663 18.8369 0.334212 18.7734 0.3707 18.7465C0.407189 18.7195 0.475391 18.6974 0.507105 18.7022C0.733878 18.7039 0.955876 18.7373 1.20959 18.7755C2.47337 18.9982 3.74671 19.1574 5.02959 19.2533C5.60522 19.3075 6.14436 19.3887 6.71998 19.4429C8.06629 19.5483 9.42522 19.7853 10.7715 19.8907C11.9862 20.0087 13.2278 20.1632 14.4377 20.3129C14.9769 20.394 15.5256 20.4118 16.033 20.4882C16.4183 20.5138 16.7989 20.5711 17.1795 20.6283C18.1674 20.7446 19.1601 20.8292 20.148 20.9455C20.4968 20.998 20.8505 21.0188 21.231 21.0761C21.8019 21.1621 22.3458 21.2115 22.9262 21.234C23.4432 21.247 23.9458 21.3551 24.458 21.3998C25.0336 21.454 25.5775 21.5035 26.1532 21.5577C26.4751 21.5737 26.8239 21.6262 27.1459 21.6423C27.6533 21.7187 28.1655 21.7633 28.6872 21.7446C28.914 21.7463 29.136 21.7797 29.3897 21.8179C30.1873 21.9056 30.9532 21.9884 31.7556 22.0444C33.0433 22.1085 34.3674 22.1457 35.6773 22.278C35.931 22.3162 36.1942 22.291 36.448 22.3291C36.643 22.3261 36.8064 22.3182 36.9966 22.3469C37.9481 22.4901 38.9503 22.5113 39.9113 22.5911C40.7454 22.6518 41.6112 22.7173 42.4501 22.7463C43.2573 22.7705 44.0232 22.8534 44.8304 22.8776C45.5059 22.9144 46.2179 22.9243 46.8935 22.9611C47.4104 22.9741 47.9226 23.0188 48.4396 23.0317C49.7638 23.0689 51.0562 23.1013 52.3438 23.1655C52.4707 23.1846 52.5976 23.2036 52.7292 23.191C53.2097 23.2309 53.6949 23.2391 54.185 23.2156C54.5799 23.1778 54.9969 23.2081 55.4187 23.2067C56.6795 23.2344 57.945 23.2303 59.174 23.2532C59.7227 23.2709 60.2444 23.2521 60.7931 23.2699C62.4074 23.3183 64.0266 23.335 65.6331 23.2201C66.0914 23.1918 66.5449 23.1953 67.0254 23.2352C67.2791 23.2734 67.5424 23.2481 67.8056 23.2229C68.5907 23.1789 69.4074 23.1397 70.1828 23.1591C70.9948 23.1516 71.8115 23.1124 72.6552 23.1097C74.4155 23.0504 76.1758 22.9911 77.9678 22.9365C78.0994 22.9239 78.2263 22.943 78.3579 22.9304C78.6529 22.9099 78.97 22.9577 79.2698 22.9055C80.4227 22.7872 81.5614 22.764 82.7365 22.7139C83.9798 22.6416 85.2501 22.6058 86.4934 22.5335C87.2784 22.4896 88.0682 22.4139 88.8849 22.3746C89.3432 22.3463 89.8016 22.318 90.2599 22.2897C91.508 22.1857 92.7561 22.0818 94.0359 21.9825C95.3474 21.8881 96.632 21.7571 97.9483 21.631C99.0014 21.5301 100.054 21.4291 101.076 21.3234C102.492 21.1799 103.881 20.9998 105.266 20.8515C106.555 20.6888 107.871 20.5627 109.161 20.4C109.887 20.3148 110.587 20.1931 111.286 20.0713C112.717 19.8326 114.115 19.5892 115.546 19.3505C116.445 19.1939 117.313 19.0327 118.185 18.8397C118.385 18.8049 118.589 18.7384 118.767 18.6354C118.804 18.6085 118.85 18.5181 118.859 18.4547C118.864 18.4229 118.81 18.35 118.783 18.3135C118.661 18.2627 118.575 18.1849 118.449 18.1658C118.168 18.0911 117.878 18.0799 117.614 18.1051C116.63 18.1839 115.613 18.2579 114.628 18.3366C114.102 18.3871 113.548 18.4011 113.022 18.4515C112.137 18.5129 111.288 18.5473 110.416 18.7403C110.148 18.7973 109.848 18.8495 109.585 18.8747C109.19 18.9125 108.832 18.9235 108.442 18.9296C107.503 18.918 106.604 19.0745 105.695 19.2944C105.527 19.334 105.359 19.3736 105.163 19.3766C104.542 19.4128 103.888 19.4441 103.23 19.5072C102.25 19.5543 101.292 19.6695 100.334 19.7848C99.6398 19.8748 98.9451 19.9648 98.2648 19.9597C98.038 19.958 97.8065 19.988 97.5749 20.018C95.9176 20.255 94.2477 20.3603 92.6047 20.5022C92.0147 20.5431 91.42 20.6157 90.8301 20.6566C89.6406 20.8019 88.4385 20.8155 87.2269 20.8926C86.9002 20.9083 86.5736 20.924 86.2152 20.9349C85.7568 20.9632 85.2985 20.9915 84.845 20.9881C84.3914 20.9846 83.9283 21.0447 83.4652 21.1047C82.3757 21.2325 81.3053 21.2336 80.2301 21.2663C79.2183 21.3086 78.1843 21.2826 77.163 21.3883C76.0101 21.5067 74.8714 21.5298 73.7106 21.4848C72.9034 21.4606 72.0598 21.4633 71.2383 21.5342C70.5801 21.5973 69.895 21.6239 69.2512 21.5918C69.1244 21.5727 68.9927 21.5854 68.8611 21.598C68.0396 21.6689 67.2324 21.6447 66.3935 21.6157C66.2984 21.6014 66.2032 21.587 66.0716 21.5997C65.4135 21.6627 64.7331 21.6576 64.0845 21.6573C63.4359 21.6569 62.7921 21.6249 62.1752 21.6293C61.69 21.6211 61.2047 21.6129 60.7099 21.6682C59.9835 21.7534 59.2667 21.7752 58.5642 21.7019C58.4374 21.6828 58.3105 21.6637 58.1789 21.6763C57.1941 21.7551 56.2331 21.6753 55.2578 21.6906C54.836 21.692 54.4506 21.6664 54.0288 21.6677C53.607 21.6691 53.2169 21.6752 52.8093 21.5815C52.6191 21.5528 52.4605 21.5289 52.2924 21.5685C51.8562 21.665 51.3979 21.6933 50.9222 21.6217C50.7636 21.5978 50.605 21.5739 50.4734 21.5866C49.9786 21.6418 49.4442 21.5289 48.9447 21.6159C48.813 21.6285 48.6545 21.6046 48.4911 21.6125C48.2326 21.606 47.9789 21.5678 47.7157 21.593C47.5206 21.5961 47.3573 21.6039 47.1765 21.5118C46.9054 21.3737 46.6422 21.399 46.3472 21.4194C46.2473 21.4368 46.1521 21.4225 46.0474 21.4716C45.5383 21.622 45.0213 21.609 44.5361 21.6008C43.7241 21.6083 42.89 21.5476 42.0924 21.46C41.6167 21.3883 41.1631 21.3849 40.7048 21.4132C40.4098 21.4337 40.1466 21.4589 39.8611 21.4159C39.6709 21.3873 39.4441 21.3856 39.249 21.3887C38.9271 21.3726 38.6369 21.3614 38.3198 21.3136C38.1295 21.285 37.944 21.2246 37.7759 21.2642C37.1082 21.3907 36.4613 21.1636 35.7762 21.1902C35.5811 21.1932 35.3591 21.1598 35.1688 21.1312C34.9468 21.0977 34.7201 21.096 34.4616 21.0896C34.1397 21.0735 33.786 21.0527 33.4641 21.0367C32.9154 21.0189 32.335 20.9964 31.7816 21.0104C31.4549 21.0261 31.1647 21.0148 30.8888 20.9084C30.6129 20.802 30.3544 20.7956 30.0642 20.7843C29.0668 20.7314 28.0693 20.6786 27.0814 20.5623C26.9546 20.5432 26.8277 20.5241 26.6961 20.5367C26.2742 20.5381 25.8889 20.5125 25.4766 20.4504C25.0961 20.3931 24.7059 20.3993 24.3206 20.3737C24.2254 20.3594 24.1255 20.3767 24.0208 20.4258C23.6798 20.5367 23.2945 20.5111 22.9504 20.4269C22.6333 20.3791 22.2844 20.3266 21.972 20.2471C21.7501 20.2137 21.5328 20.1486 21.3156 20.0834C20.9176 19.9262 20.5371 19.8689 20.1248 19.8069C19.676 19.7717 19.2003 19.7001 18.7563 19.6333C18.5343 19.5999 18.3075 19.5982 18.0808 19.5965C16.9739 19.6244 15.8813 19.5572 14.7808 19.3267C14.1513 19.1995 13.5122 19.1357 12.8827 19.0085C12.5656 18.9608 12.2802 18.9178 11.9678 18.8383C11.4969 18.735 11.0307 18.6 10.5502 18.56C10.3282 18.5266 10.111 18.4615 9.90333 18.3329C9.69566 18.2044 9.48321 18.1075 9.30725 17.9837C8.91884 17.7631 8.50349 17.506 8.11508 17.2853C8.08814 17.2488 8.02471 17.2393 7.99777 17.2028C7.94389 17.1298 7.91695 17.0933 7.89956 16.9934C7.8774 16.9252 7.98686 16.8444 8.05029 16.8539C8.34527 16.8335 8.60853 16.8083 8.89873 16.8195C10.1277 16.8424 11.352 16.8969 12.5762 16.9515C13.4468 16.9853 14.3078 17.0825 15.1784 17.1163C16.0443 17.1817 16.9149 17.2155 17.7807 17.281C18.5831 17.3369 19.3538 17.3881 20.1562 17.444C21.1854 17.5016 22.2145 17.5593 23.2389 17.6486C23.3024 17.6582 23.4023 17.6408 23.4657 17.6504C24.2903 17.7745 25.0974 17.7987 25.9316 17.8594C26.6753 17.8741 27.4143 17.9205 28.1532 17.9669C28.8288 18.0037 29.4774 18.004 30.1529 18.0409C31.3772 18.0954 32.6014 18.15 33.8478 18.2728C35.0308 18.386 36.2059 18.3359 37.3984 18.3857C37.4618 18.3952 37.5617 18.3779 37.6252 18.3874C38.1643 18.4686 38.686 18.4498 39.2395 18.4358C40.2735 18.4618 41.2757 18.4829 42.3096 18.5089C42.6633 18.5297 43.0264 18.487 43.3801 18.5078C43.9288 18.5256 44.4505 18.5068 44.9944 18.5563C45.8602 18.6218 46.7356 18.6238 47.611 18.6259C48.9082 18.6266 50.1737 18.6225 51.4709 18.6232C52.4731 18.6443 53.4754 18.6655 54.4776 18.6866C54.6727 18.6836 54.836 18.6757 55.0311 18.6727C55.8795 18.6382 56.7279 18.6038 57.5716 18.6011C57.9617 18.5949 58.3471 18.6205 58.7372 18.6144C59.8393 18.6181 60.9415 18.6219 62.0484 18.5939C62.697 18.5943 63.3869 18.536 64.0402 18.5046C65.1155 18.4719 66.1859 18.4709 67.2611 18.4382C67.5878 18.4225 67.9145 18.4068 68.2681 18.4276C69.1482 18.3979 70.0236 18.4 70.8721 18.3655C71.5889 18.3437 72.3104 18.2902 73.0225 18.3001C74.6464 18.2851 76.2577 18.1385 77.8546 18.087C78.1813 18.0713 78.5128 18.0239 78.8394 18.0082C79.561 17.9547 80.2826 17.9012 80.9946 17.9111C81.0898 17.9254 81.1897 17.908 81.2896 17.8906C82.4156 17.7358 83.5812 17.7491 84.7437 17.5674C85.4749 17.4504 86.2234 17.4334 86.9767 17.3846C87.6665 17.3263 88.3516 17.2997 89.0463 17.2097C90.0993 17.1088 91.1206 17.0031 92.1785 16.8704C92.3418 16.8626 92.4782 16.8182 92.6416 16.8104C93.5122 16.8442 94.3845 16.6512 95.2377 16.585C96.1274 16.4919 97.0171 16.3988 97.9068 16.3058C98.7331 16.2031 99.591 16.1053 100.422 15.9709C101.053 15.8713 101.68 15.8035 102.343 15.7087C103.537 15.5317 104.731 15.3547 105.925 15.1778C106.289 15.1351 106.63 15.0243 106.993 14.9817C107.724 14.8647 108.455 14.7478 109.186 14.6308C110.385 14.4221 111.552 14.2087 112.724 13.9635C113.828 13.7405 114.932 13.5175 116.023 13.1628C116.296 13.0742 116.564 13.0172 116.832 12.9603C117.069 12.8985 117.273 12.832 117.456 12.6973C117.492 12.6704 117.502 12.607 117.506 12.5753C117.511 12.5436 117.457 12.4706 117.426 12.4658C116.615 12.2465 115.815 11.9638 114.949 11.8983C114.337 11.8711 113.72 11.8755 113.098 11.9116C111.85 12.0156 110.597 12.1513 109.344 12.287C108.586 12.3675 107.819 12.5114 107.065 12.5602C105.717 12.6816 104.355 12.8981 103.029 13.0877C101.903 13.2425 100.787 13.3339 99.6606 13.4887C99.1341 13.5391 98.6028 13.6213 98.0398 13.6987C96.4872 13.8866 94.9393 14.0428 93.3867 14.2307C92.3336 14.3316 91.2489 14.4277 90.1641 14.5239C89.8692 14.5444 89.6059 14.5696 89.3109 14.59C89.0159 14.6105 88.6893 14.6262 88.3895 14.6784C87.495 14.8032 86.6101 14.8645 85.7204 14.9576C84.9623 15.0381 84.1821 15.0504 83.4288 15.0991C82.9023 15.1496 82.3488 15.1636 81.8128 15.2775C81.6129 15.3122 81.4179 15.3153 81.1911 15.3136C80.801 15.3197 80.4109 15.3259 80.0525 15.3368C79.2992 15.3855 78.5776 15.4391 77.8243 15.4878C77.6609 15.4957 77.5245 15.54 77.366 15.5161C76.7269 15.4523 76.1005 15.5202 75.4423 15.5833C74.7889 15.6146 74.1625 15.6825 73.5139 15.6822C72.9922 15.7009 72.4752 15.6879 71.9899 15.6798C71.4095 15.6572 70.8608 15.6395 70.2978 15.7169C70.0298 15.7739 69.7396 15.7626 69.4446 15.7831C69.0545 15.7892 68.6644 15.7953 68.2743 15.8015C67.9476 15.8171 67.6574 15.8059 67.3498 15.6947C67.1056 15.5931 66.8471 15.5866 66.5791 15.6436C66.2793 15.6957 65.9796 15.7479 65.6798 15.8001C65.5117 15.8396 65.3436 15.8792 65.1755 15.9187C64.6711 16.0374 64.1763 16.0926 63.6467 15.9481C63.3978 15.8781 63.1393 15.8717 62.8713 15.9286C62.6714 15.9634 62.4494 15.93 62.2639 15.8696C62.0515 15.7728 61.8564 15.7758 61.6518 15.8423C61.2522 15.9119 60.9715 15.8372 60.7321 15.7039C60.7052 15.6674 60.6782 15.6309 60.6513 15.5944L60.6148 15.6213C60.6735 15.6626 60.7004 15.6991 60.7321 15.7039ZM24.5805 11.7533C24.7756 11.7502 24.9341 11.7741 25.1244 11.8027C25.1879 11.8123 25.2878 11.7949 25.3512 11.8044C25.4194 11.7822 25.5289 11.7014 25.5019 11.6649C25.475 11.6285 25.4481 11.592 25.3894 11.5507C24.9867 11.4252 24.5966 11.4313 24.1969 11.5009C24.1652 11.4961 24.1191 11.5865 24.1144 11.6182C24.1096 11.6499 24.1682 11.6912 24.2269 11.7324C24.3585 11.7198 24.4854 11.7389 24.5805 11.7533ZM55.2766 19.1961C55.2449 19.1913 55.2084 19.2183 55.2084 19.2183C55.1988 19.2817 55.2258 19.3182 55.294 19.296C55.294 19.296 55.3305 19.2691 55.3352 19.2374C55.3352 19.2374 55.3035 19.2326 55.2766 19.1961ZM62.6766 9.25058C62.6718 9.2823 62.6401 9.27752 62.6354 9.30923C62.6671 9.31401 62.6623 9.34573 62.694 9.3505C62.694 9.3505 62.7305 9.32356 62.7353 9.29185C62.7083 9.25536 62.7083 9.25536 62.6766 9.25058ZM54.4685 12.069L54.5002 12.0737L54.4732 12.0373L54.4685 12.069Z" fill="white"/>
</svg>
