<svg width="30" height="26" viewBox="0 0 30 26" fill="none" xmlns="http://www.w3.org/2000/svg">
<path d="M21.0904 20.7265C20.9889 20.81 20.8965 20.9293 20.7765 20.977C20.758 20.9889 20.7395 21.0008 20.721 21.0247C20.6564 21.1201 20.5733 21.1798 20.4902 21.2394C20.444 21.2752 20.3886 21.311 20.3516 21.3826C20.3239 21.4303 20.2778 21.4661 20.2408 21.5138C20.2039 21.5496 20.1669 21.5734 20.13 21.5973C20.0469 21.6212 19.9638 21.6689 19.8806 21.7047C19.8345 21.7285 19.7975 21.7166 19.7514 21.6927C19.7052 21.6689 19.659 21.6331 19.6128 21.6212C19.5112 21.5973 19.4466 21.5257 19.3912 21.4064C19.2711 21.1559 19.1141 20.9293 18.9756 20.7026C18.8371 20.4759 18.6986 20.2612 18.56 20.0345C18.44 19.8317 18.3199 19.617 18.1999 19.4142C18.1167 19.283 18.0336 19.1398 17.9505 19.0086C17.932 18.9848 17.9136 18.949 17.8951 18.9251C17.775 18.6507 17.6088 18.4241 17.4703 18.1616C17.4333 18.102 17.4056 18.0423 17.3687 17.9708C17.341 17.9111 17.3133 17.8634 17.2763 17.8157C17.2579 17.7918 17.2302 17.756 17.2209 17.7322C17.0824 17.4697 16.9162 17.2431 16.7592 17.0045C16.6945 16.909 16.6391 16.8136 16.5837 16.7182C16.4729 16.5392 16.3528 16.3722 16.242 16.1933C16.1774 16.0978 16.1127 15.9905 16.0388 15.8831C15.9927 15.8235 15.9557 15.7519 15.9096 15.6922C15.7803 15.5372 15.6694 15.3582 15.5494 15.1912C15.5032 15.1316 15.4663 15.06 15.4201 14.9884C15.2631 14.726 15.0692 14.4993 14.8937 14.2607C14.866 14.2249 14.8198 14.213 14.7921 14.2488C14.7182 14.3204 14.6443 14.38 14.5797 14.4635C14.4504 14.6186 14.3211 14.7737 14.2011 14.9407C13.9794 15.227 13.767 15.5133 13.5454 15.7877C13.3699 16.0024 13.1944 16.2171 13.0097 16.4319C12.9358 16.5154 12.8712 16.6108 12.8066 16.6943C12.5572 16.9925 12.3079 17.2908 12.0585 17.589C11.9477 17.7202 11.8369 17.8634 11.7168 18.0065C11.5136 18.2451 11.3012 18.4718 11.1073 18.7104C11.0149 18.8297 10.9134 18.949 10.821 19.0683C10.6732 19.2591 10.5255 19.4381 10.3777 19.6289C10.3131 19.7125 10.2392 19.8079 10.193 19.9153C10.1468 19.9988 10.073 20.0465 10.0083 20.1181C9.99908 20.13 9.98061 20.13 9.97138 20.1419C9.87902 20.1658 9.77744 20.1538 9.69432 20.2135C9.57427 20.2016 9.46344 20.1896 9.34339 20.1658C9.25104 20.1419 9.16792 20.13 9.08481 20.1658C8.98322 20.2016 8.88163 20.1658 8.78005 20.1777C8.7154 20.1896 8.66923 20.1181 8.61381 20.1181C8.54917 20.1061 8.52146 20.0703 8.51223 19.9988C8.49376 19.9033 8.45682 19.8437 8.40141 19.796C8.31829 19.7125 8.32753 19.5932 8.346 19.4858C8.35523 19.45 8.3737 19.4142 8.39217 19.3904C8.58611 19.1279 8.77081 18.8655 8.99245 18.6269C9.02939 18.5792 9.06633 18.5314 9.10328 18.4837C9.15869 18.4121 9.20486 18.3406 9.26027 18.2809C9.36186 18.1855 9.44497 18.0662 9.53733 17.9469C9.60197 17.8634 9.66662 17.7799 9.73126 17.7202C9.94367 17.5174 10.1284 17.2908 10.3038 17.0522C10.4793 16.8255 10.664 16.5989 10.8579 16.3961C10.9595 16.2887 11.0611 16.1694 11.1535 16.0501C11.1996 15.9785 11.2643 15.9189 11.3197 15.8593C11.3936 15.7638 11.4675 15.6803 11.5506 15.5849C11.6614 15.4417 11.7722 15.3105 11.883 15.1673C11.9292 15.1077 11.9662 15.06 12.0123 15.0123C12.04 14.9884 12.0677 14.9526 12.0955 14.9168C12.1232 14.881 12.1416 14.8453 12.1693 14.8095C12.2524 14.6902 12.354 14.5828 12.4464 14.4874C12.5018 14.3442 12.6034 14.2369 12.6957 14.1295C12.7419 14.0818 12.7788 14.0221 12.8158 13.9625C12.9636 13.7597 13.1113 13.5569 13.2591 13.3541C13.2775 13.3302 13.2868 13.3183 13.3052 13.2944C13.3884 13.1751 13.4715 13.0439 13.5454 12.9246C13.5823 12.865 13.61 12.8053 13.6377 12.7337C13.6654 12.6741 13.6562 12.6025 13.61 12.5548C13.49 12.3997 13.3699 12.2446 13.2406 12.1015C13.1298 11.9703 13.019 11.839 12.9174 11.7197C12.6773 11.4334 12.4371 11.1591 12.197 10.8728C12.0677 10.7177 11.9292 10.5626 11.7999 10.4194C11.5136 10.1093 11.2551 9.77526 10.9872 9.45316C10.821 9.25036 10.6548 9.04756 10.4885 8.84476C10.1561 8.43916 9.82361 8.03356 9.49115 7.62796C9.36186 7.47288 9.2418 7.29394 9.12175 7.12693C9.04786 7.00763 9.02939 6.95991 9.00169 6.9122C8.96475 6.82869 8.95551 6.74519 9.00169 6.64975C9.0571 6.55431 9.10328 6.45888 9.17716 6.3873C9.38956 6.16064 9.59274 5.93399 9.80514 5.70733C9.94367 5.56417 10.1007 5.44488 10.2577 5.36137C10.3131 5.33752 10.3592 5.34944 10.3962 5.39716C10.4239 5.43295 10.4516 5.46874 10.4701 5.50453C10.6548 5.7789 10.8672 6.01749 11.0704 6.26801C11.2458 6.48274 11.4213 6.69747 11.606 6.9122C11.9662 7.35359 12.3263 7.78304 12.6957 8.2125C12.9913 8.55846 13.2868 8.90441 13.5823 9.25036C13.8594 9.56053 14.1087 9.89455 14.3765 10.2047C14.515 10.3717 14.6628 10.5387 14.8013 10.7057C14.8198 10.7296 14.8475 10.7535 14.866 10.7773C14.8845 10.8012 14.9306 10.8012 14.9491 10.7893C14.986 10.7415 15.0322 10.7057 15.0692 10.658C15.1984 10.4672 15.337 10.2763 15.4847 10.1093C15.5309 10.0616 15.5679 10.0019 15.6048 9.94227C15.6971 9.81104 15.7987 9.67982 15.9096 9.57246C15.9834 9.50088 16.0481 9.4293 16.1035 9.3458C16.2051 9.20264 16.3067 9.07142 16.4175 8.9402C16.5191 8.8209 16.6114 8.68968 16.713 8.55846C16.9439 8.26022 17.1748 7.97391 17.4056 7.67568C17.4333 7.63989 17.4703 7.6041 17.5072 7.56831C17.5349 7.53253 17.5626 7.50867 17.5903 7.47288C17.9505 6.9957 18.3291 6.54239 18.717 6.101C18.8833 5.91013 19.0403 5.71926 19.2157 5.54032C19.4374 5.31366 19.6405 5.07507 19.8529 4.82455C19.8899 4.78876 19.9176 4.74104 19.9545 4.71719C20.0192 4.66947 20.0838 4.62175 20.1577 4.60982C20.2778 4.59789 20.3886 4.5621 20.5086 4.62175C20.5179 4.63368 20.5363 4.63368 20.5548 4.63368C20.6564 4.63368 20.7672 4.62175 20.8596 4.64561C20.9519 4.66947 21.0535 4.66947 21.1459 4.6814C21.192 4.6814 21.2474 4.65754 21.3029 4.65754C21.3583 4.65754 21.4044 4.64561 21.4599 4.64561C21.5891 4.6814 21.7184 4.71719 21.8477 4.75297C21.8847 4.7649 21.9124 4.81262 21.9031 4.86034C21.8939 4.90806 21.8847 4.95577 21.8847 5.00349C21.8662 5.087 21.8293 5.1705 21.7738 5.24208C21.6353 5.40909 21.506 5.56417 21.3675 5.73119C21.1459 5.9817 20.915 6.23222 20.6933 6.48274C20.4717 6.72133 20.2593 6.97184 20.0469 7.22236C19.9361 7.35359 19.8252 7.49674 19.7144 7.63989C19.659 7.71147 19.5944 7.78304 19.5389 7.85462C19.3635 8.05742 19.188 8.27215 19.0218 8.47495C18.8833 8.64196 18.754 8.8209 18.6062 8.98791C18.403 9.21457 18.2091 9.44123 18.0336 9.70368C17.969 9.79911 17.9043 9.88262 17.8305 9.96613C17.4241 10.4791 17.027 11.004 16.6207 11.5169C16.4544 11.7317 16.2974 11.9583 16.1404 12.185C16.1312 12.1969 16.122 12.2208 16.1127 12.2327C16.0758 12.2924 16.085 12.3639 16.122 12.4117C16.1497 12.4474 16.1774 12.4832 16.2051 12.5071C16.2328 12.5429 16.2697 12.5787 16.2974 12.6264C16.4729 12.8769 16.6391 13.1274 16.8054 13.3779C16.8238 13.4018 16.8423 13.4376 16.8608 13.4614C17.1286 13.8432 17.3964 14.2249 17.655 14.6186C17.9874 15.1196 18.3107 15.6326 18.6247 16.1336C18.8463 16.4915 19.068 16.8494 19.2896 17.2073C19.4097 17.4101 19.5389 17.6129 19.659 17.8157C19.8899 18.1855 20.1115 18.5672 20.3424 18.937C20.5086 19.2114 20.6841 19.4858 20.8596 19.7602C20.9242 19.8675 20.9889 19.963 21.035 20.0942C21.0627 20.1896 21.0904 20.297 21.1089 20.3924C21.1089 20.4044 21.1182 20.4282 21.1182 20.4521C21.1089 20.5475 21.0997 20.631 21.0904 20.7265Z" fill="#E3311D"/>
</svg>
