<svg width="100" height="93" viewBox="0 0 100 93" fill="none" xmlns="http://www.w3.org/2000/svg">
<path d="M93.6922 53.8882C93.5769 56.8122 93.4616 59.7361 93.1157 62.66C92.7698 65.9653 91.732 69.0163 90.233 71.8131C89.3106 73.5929 88.0422 75.1184 86.5432 76.2625C86.082 76.6439 85.6207 77.0253 85.2748 77.4067C82.8534 79.8221 79.8554 81.0933 76.7421 82.2375C76.6268 82.2375 76.5115 82.2375 76.5115 82.3646C75.8196 82.4917 75.0125 82.6189 74.3206 82.6189C71.8992 82.6189 69.593 83.5087 67.1716 82.8731C66.8257 82.746 66.4797 82.746 66.0185 82.746C62.9052 82.6188 60.0225 81.9832 57.0246 81.2205C55.9868 80.9662 55.0643 80.5848 54.1419 80.2034C52.1817 79.4407 50.1061 78.805 48.1459 78.0423C45.1479 77.0253 42.3805 75.2455 39.6132 73.72C39.1519 73.4657 38.5754 73.0844 38.2295 72.703C36.7305 71.0503 35.1162 69.5248 33.7325 67.745C33.2713 67.2365 32.9254 66.3466 32.5794 65.711C32.1182 64.5669 31.5417 63.5499 30.6192 62.7871C29.0049 61.1345 28.0825 59.1004 27.7365 56.685C27.2753 53.8882 27.0447 51.0915 27.16 48.1676C27.3906 43.9724 28.0825 39.7772 29.5814 36.0905C29.9274 35.2006 30.5039 34.3108 30.9651 33.548C32.4641 31.2597 34.1937 29.0986 36.154 27.3188C38.2295 25.539 40.4203 23.7593 42.7265 22.2337C44.9173 20.7082 47.3388 19.6912 49.7602 18.6742C51.0286 18.1657 52.4123 17.7843 53.7959 17.4029C55.2949 17.0216 56.9092 16.7673 58.4082 16.6402C60.7144 16.3859 63.0205 16.1317 65.3267 16.0045C67.5175 15.8774 69.7083 16.513 71.7839 17.4029C76.8574 19.3098 81.1237 22.7422 84.9289 26.8103C87.4656 29.48 89.0799 32.7852 90.5789 36.2177C92.0779 39.9043 93.0004 43.7181 93.5769 47.659C93.6922 49.5659 93.5769 51.7271 93.6922 53.8882ZM86.8891 71.4317C86.6585 71.686 86.5432 71.8131 86.3126 72.0673C86.082 72.3216 85.9666 72.4487 85.736 72.703C85.5054 72.9572 85.3901 73.0844 85.1595 73.3386C85.3901 73.0844 85.5054 72.9572 85.736 72.703C85.9666 72.4487 86.082 72.3216 86.3126 72.0673C86.5432 71.9402 86.6585 71.686 86.8891 71.4317ZM37.653 69.6519C37.4223 69.3977 37.307 69.2706 37.0764 69.0163C36.9611 68.8892 36.9611 68.6349 36.8458 68.5078C36.8458 68.5078 36.7305 68.5078 36.6152 68.3807C36.6152 68.7621 36.8458 68.7621 37.0764 69.0163C37.307 69.2706 37.4223 69.3977 37.653 69.6519C37.9989 69.7791 38.4601 70.0333 38.806 70.2876C39.1519 70.9232 39.6132 71.3046 40.1897 71.686C42.7265 73.0844 45.2632 74.4827 47.9153 75.754C49.6449 76.6439 51.4898 77.2795 53.3347 77.9152C56.7939 79.0593 60.2532 79.8221 63.8277 80.3306C64.7501 80.4577 65.6726 80.4577 66.5951 80.5848C66.8257 80.5848 67.1716 80.4577 67.4022 80.4577C65.7879 80.4577 64.1736 79.8221 62.6746 79.4407C59.9072 78.9322 57.3705 77.788 54.7184 77.0253C54.4878 76.8982 54.2572 76.771 54.0266 76.6439C53.1041 76.2625 52.1817 75.754 51.1439 75.4998C50.1061 75.2455 49.0684 74.737 48.0306 74.3556C46.5316 73.72 45.1479 72.9572 43.6489 72.4487C42.0346 71.8131 40.5356 70.7961 38.806 70.4147C38.3448 70.0333 37.9989 69.9062 37.653 69.6519ZM89.6565 65.9653C90.4636 64.4398 90.6942 62.66 90.6942 61.0073C90.8095 59.3547 90.9249 57.8292 91.0402 56.1765C91.3861 51.7271 91.0402 47.2777 89.8871 42.9554C89.7718 42.7011 89.6565 42.4469 89.5412 42.1926C89.1952 42.574 89.4259 42.9554 89.4259 43.3367C89.6565 45.1165 90.1177 46.8963 90.233 48.6761C90.5789 53.5069 90.6942 58.3377 90.0024 63.2956C89.7718 64.1855 89.7718 65.0754 89.6565 65.9653C89.6565 66.0924 89.6565 66.0924 89.5412 66.2195C89.5412 66.0924 89.6565 66.0924 89.6565 65.9653ZM87.9269 55.1595C87.8116 53.3797 87.9269 51.4728 87.6963 49.6931C87.235 45.8793 86.6585 42.0655 85.8513 38.2517C85.5054 36.599 84.9289 34.9464 84.1217 33.4209C83.4299 32.0225 82.6227 30.6241 82.1615 29.0986C81.9309 28.5901 81.585 28.0816 81.2391 27.5731C80.5472 26.8103 79.8554 26.1747 79.1635 25.539C76.5115 23.6321 73.8594 21.8524 70.8614 20.8353C68.5553 20.0726 66.2491 19.5641 63.8277 19.8183C60.945 20.1997 58.1776 20.5811 55.2949 20.8353C52.5276 21.0896 49.9908 22.2337 47.5694 23.2508C46.7622 23.6321 45.8398 24.1406 45.0326 24.3949C43.8795 24.7763 42.8418 25.4119 41.9193 26.3018C41.2275 26.9374 40.4203 27.5731 39.7285 28.0816C38.2295 28.9714 37.0764 30.2427 35.9233 31.6411C35.1162 32.531 34.4244 33.4209 33.6172 34.3108C32.6947 35.0735 31.8876 35.9634 31.4264 36.9804C30.6192 38.8873 29.9274 40.6671 29.4661 42.7011C28.659 46.5149 28.7743 50.3287 29.1202 54.2696C29.2355 55.0324 29.4661 55.9223 29.5814 56.685C29.8121 57.8292 30.2733 58.7191 31.0804 59.6089C31.4264 59.9903 31.7723 60.626 32.1182 61.0073C32.6947 61.7701 33.2713 62.5329 33.9631 63.2956C35.0009 64.4398 36.2693 65.3296 37.5376 66.0924C40.1897 67.6179 42.6112 69.3977 45.4938 70.4147C46.0704 70.5418 46.5316 70.9232 46.9928 71.1775C47.9153 71.686 48.8377 72.1945 49.7602 72.4487C51.951 73.3386 54.1419 73.9742 56.3327 74.8641C60.7144 76.5168 65.3267 77.1524 69.939 77.0253C72.4757 77.0253 74.8972 76.2625 77.2033 75.3726C80.4319 73.9742 83.084 71.5588 85.2748 68.6349C85.8513 67.8722 86.3126 66.9823 86.6585 65.9653C86.8891 64.9483 87.235 64.0584 87.4656 63.0414C87.9269 60.3717 87.9269 57.702 87.9269 55.1595Z" fill="#E3311D"/>
<path d="M40.1096 25.3339C40.2518 24.6856 40.5094 24.1983 40.6951 23.6953C40.788 23.4438 40.8373 23.0469 40.9737 22.9408C41.074 22.8268 41.1536 22.98 41.1971 23.1254C41.2993 23.6912 41.5227 23.8758 41.8106 23.9386C42.142 24.1467 42.4942 24.0877 42.9527 23.3724C43.3467 22.779 43.5702 22.9636 43.6155 23.7887C43.6172 24.4685 43.7687 24.6374 44.049 24.5626C44.2574 24.4722 44.4733 24.5193 44.6892 24.5664C45.013 24.637 45.3009 24.6998 45.71 24.3814C46.0472 24.0473 46.2706 24.2319 46.5225 24.2869C47.4145 24.3455 48.3065 24.4042 49.1985 24.4629C49.3065 24.4864 49.4713 24.2506 49.6001 24.007C49.9146 23.2603 50.159 23.1778 50.3824 23.3624C50.9088 23.8848 51.4845 24.0103 52.0962 24.1438C52.2761 24.183 52.4845 24.0926 52.6568 23.9943C52.7648 24.0178 53.0509 23.4009 53.0433 23.2633C53.0642 22.9961 53.0491 22.7211 53.0056 22.5757C52.8901 22.4147 52.7746 22.2536 52.6307 22.2222C52.1553 21.9827 51.6156 21.865 51.0834 21.8848C50.6592 21.9281 50.2349 21.9715 49.8676 21.7555C49.3922 21.5159 48.896 21.5436 48.3145 21.9603C48.0058 22.1647 47.7539 22.1097 47.5873 21.6658C47.3772 21.0765 47.0818 20.8762 46.6651 21.057C46.5647 21.171 46.4852 21.0178 46.4133 21.0021C45.9948 20.5032 45.3982 20.6449 44.9229 20.4053C44.4911 20.3112 44.0877 20.0873 43.6844 19.8635C43.353 19.6553 43.014 19.3097 42.6258 19.3609C41.8057 19.3179 41.0634 18.7484 40.2718 18.5757C39.912 18.4972 39.9311 17.5503 39.8214 16.847C39.8214 16.847 39.9067 16.458 39.9711 16.3362C40.1075 16.2301 40.2723 15.9943 40.3802 16.0178C40.5242 16.0492 40.6965 15.9509 40.812 16.112C41.1945 16.603 41.6547 16.5675 42.1509 16.5399C42.6831 16.5201 43.2513 16.5081 43.7835 16.4883C43.8195 16.4961 43.9123 16.2446 43.9767 16.1228C43.9767 16.1228 44.0336 15.8635 43.9976 15.8556C43.8821 15.6946 43.831 15.4117 43.7155 15.2506C43.6795 15.2428 43.672 15.1053 43.672 15.1053C43.7288 14.8459 43.7933 14.7241 43.8652 14.7398C43.9732 14.7633 44.0811 14.7869 44.225 14.8183C44.6928 14.9203 45.1606 15.0223 45.7345 14.4681C45.8349 14.3541 45.9429 14.3777 46.0148 14.3934C46.1228 14.4169 46.1814 14.8373 46.0602 15.2185C45.9749 15.6075 45.8745 15.7215 45.7381 15.8276C45.4578 15.9023 45.149 16.1068 44.8687 16.1815C44.7323 16.2876 44.5466 16.7906 44.4973 17.1875C44.4271 17.8515 44.3854 18.3859 44.6013 18.433C44.7887 18.6097 45.0406 18.6647 45.2849 18.5821C45.91 18.3108 46.4213 18.5582 46.9326 18.8056C47.228 19.0059 47.5443 18.939 47.925 18.7503C48.478 18.4633 49.0387 18.3138 49.4211 18.8048C49.4647 18.9502 49.6011 18.8441 49.673 18.8598C51.2127 19.0597 52.6027 19.7704 54.2277 19.5814C54.3356 19.6049 54.4436 19.6284 54.58 19.5223C54.6159 19.5302 54.7088 19.2787 54.7732 19.1569C54.8016 19.0272 54.8225 18.76 54.815 18.6225C54.711 17.377 54.3721 17.0313 53.8266 17.4558C53.7906 17.448 53.7262 17.5698 53.7262 17.5698C53.3606 18.0335 53.1731 17.8568 53.0065 17.4128C52.7964 16.8235 52.6507 16.1124 52.7627 14.914C52.8538 13.9827 52.6947 13.6763 52.4428 13.6214C51.9391 13.5115 51.4562 13.1344 50.8672 13.4136C50.8312 13.4057 50.7024 13.6494 50.6739 13.779C50.6455 13.9087 50.6246 14.1759 50.6322 14.3134C50.9427 14.7888 51.2172 15.2563 51.5277 15.7316C51.6867 16.038 51.7454 16.4584 51.7112 17.1303C51.7187 17.2678 51.5974 17.649 51.5615 17.6412C51.4251 17.7473 51.2603 17.9831 51.1523 17.9595C50.5255 17.5511 49.8134 17.5317 49.1013 17.5122C49.0293 17.4965 48.9498 17.3433 48.8779 17.3276C48.8059 17.3119 48.8477 16.7775 48.9405 16.526C49.0618 16.1449 49.2191 15.7716 49.3119 15.5201C49.526 14.8874 49.6247 14.0937 49.5092 13.9326C49.2706 13.473 49.0321 13.0134 48.7291 12.6755C48.4621 12.3456 48.1023 12.2671 47.6856 12.448C47.4773 12.5384 47.3049 12.6367 47.0966 12.7271C46.5435 13.0141 46.0113 13.0339 45.6288 12.5429C45.3978 12.2207 45.0531 12.4173 44.6591 13.0107C44.5303 13.2544 44.3579 13.3527 44.2215 13.4588C44.1855 13.4509 44.142 13.3056 44.106 13.2977C44.07 13.2899 44.0985 13.1602 44.0909 13.0227C44.3241 11.4431 44.0287 11.2428 43.6329 11.1565C43.3451 11.0937 43.0288 11.1606 42.8547 10.5791C42.8187 10.5713 42.8471 10.4416 42.8755 10.3119C42.904 10.1823 42.9608 9.92291 43.0252 9.80109C43.0897 9.67926 43.1901 9.56529 43.226 9.57314C43.2905 9.45131 43.3624 9.46701 43.4344 9.4827C43.5423 9.50625 43.6503 9.52979 43.7942 9.56118C44.8754 10.4764 46.1917 10.4917 47.3867 10.8882C48.3222 11.0922 49.1933 11.4181 50.1289 11.6221C50.4167 11.6849 50.6762 11.8773 50.8143 12.451C50.9525 13.0246 51.2043 13.0795 51.4847 13.0048C52.0453 12.8553 52.6419 12.7137 53.2025 12.5642C53.5907 12.513 54.0434 12.34 54.3464 12.6778C54.3824 12.6856 54.4183 12.6935 54.4183 12.6935C55.4107 12.6382 56.1966 13.3531 57.1606 13.4274C57.6927 13.4076 58.1321 13.6393 58.6358 13.7492C58.8517 13.7963 59.0752 13.9809 59.3195 13.8983C59.8441 13.741 60.2759 13.8351 60.7437 13.9372C61.6792 14.1412 62.7076 14.0937 63.6716 14.1681C65.2113 14.368 66.8003 14.1711 68.2831 14.6304C69.0103 14.9248 69.7868 14.8225 70.6562 14.4686C71.0729 14.2877 71.4971 14.2444 71.857 14.3228C73.569 14.4245 75.317 14.534 77.0291 14.6356C78.4533 14.6745 79.87 14.5759 81.2866 14.4772C82.6388 14.5004 83.9626 14.6532 85.2011 15.1951C85.5325 15.4032 85.8999 15.6192 86.146 16.2164C86.305 16.5228 86.2784 17.3322 86.0793 18.2399C86.0225 18.4992 85.994 18.6289 85.9372 18.8883C85.7306 19.6584 85.6244 20.3146 85.5902 20.9865C85.5995 21.8038 85.4365 22.7193 85.1655 23.6113C85.0158 24.1222 84.8376 24.7627 84.6955 25.411C84.468 26.4484 84.2406 27.4858 83.9771 28.5153C83.6568 29.8041 83.3801 31.2384 83.1317 32.5429C83.018 33.0616 82.9762 33.596 82.9989 34.0085C82.9722 34.818 83.1597 34.9947 83.4116 35.0496C83.9437 35.0298 84.4684 34.8725 85.0006 34.8527C85.9854 34.6599 86.9059 34.5889 87.9191 34.2664C88.9324 33.9439 89.796 34.1323 90.7809 33.9394C91.3415 33.79 91.724 34.281 92.1064 34.772C92.2579 34.9409 92.2521 35.4832 92.146 36.1394C92.0607 36.5284 91.9469 37.0471 91.9261 37.3142C91.8634 38.1158 91.6928 38.8938 91.4218 39.7858C91.3006 40.167 91.2153 40.556 91.2019 40.9607C91.2037 41.6405 91.0615 42.2888 90.7754 42.9058C90.4609 43.6524 90.2828 44.2929 90.1917 45.2242C90.1291 46.0257 89.9944 46.8116 89.9318 47.6132C89.8825 48.01 89.8332 48.4069 89.8198 48.8116C89.7363 49.8803 89.8385 50.4461 90.1623 50.5167C90.5506 50.4655 90.9748 50.4222 91.3346 50.5007C91.6149 50.4259 91.8668 50.4809 92.1187 50.5358C92.3706 50.5907 92.3799 51.408 92.1449 52.3078C91.8246 53.5967 91.5327 54.7559 91.3204 56.0683C91.2426 56.5948 91.0929 57.1057 90.9432 57.6165C90.8295 58.1352 90.6798 58.646 90.602 59.1725C90.3972 60.6225 89.9898 61.6206 89.5749 62.4812C89.5465 62.6109 89.5465 62.6109 89.4821 62.7327C89.3324 63.2435 89.3834 63.5264 89.3701 63.9311C89.2941 65.1374 89.0382 66.3044 88.61 67.5698C88.4243 68.0727 88.2102 68.7054 88.0245 69.2084C87.8388 69.7114 87.7251 70.2301 87.6833 70.7644C87.6207 71.566 87.5069 72.0847 87.1849 72.6938C86.9916 73.0593 86.8419 73.5701 86.6487 73.9356C86.5558 74.1871 86.391 74.4229 86.319 74.4072C85.9383 74.5959 85.622 74.6628 85.2698 74.7218C84.8815 74.773 84.4573 74.8164 84.069 74.8676C84.1601 73.9363 84.0579 73.3705 83.7416 73.4374C83.3534 73.4886 82.9007 73.6617 82.484 73.8425C82.1033 74.0312 81.7435 73.9528 81.3837 73.8743C81.0238 73.7958 80.7 73.7252 80.2833 73.906C79.4499 74.2678 78.6374 74.3623 77.7965 74.5865C76.9556 74.8107 76.0787 75.0271 75.2377 75.2513C74.6411 75.3929 74.073 75.4049 73.4764 75.5465C73.0162 75.582 72.6848 75.3739 72.6452 74.0065C72.6226 73.594 72.3138 73.7984 72.1433 74.5764C72.0011 75.2248 71.8438 75.5981 71.6355 75.6885C71.1109 75.8458 70.5502 75.9953 70.0256 76.1526C69.9536 76.1369 69.9177 76.1291 69.8457 76.1134C69.3553 75.5988 68.6658 75.9919 68.0692 76.1336C66.5597 76.4837 65.0218 76.9635 63.5976 76.9247C63.5256 76.909 63.4177 76.8854 63.3173 76.9994C62.4915 77.4986 61.7794 77.4792 61.0104 77.7191C60.6581 77.7782 60.3418 77.8451 60.018 77.7744C59.7661 77.7195 59.4783 77.6567 59.2055 77.869C58.2433 78.4743 57.338 78.8204 56.334 79.9601C55.8964 80.4082 55.5157 80.5969 55.1559 80.5184C54.3718 80.4833 53.5953 80.5857 52.8397 80.4209C52.8037 80.413 52.7526 80.1302 52.7886 80.138C53.0312 79.3757 52.9157 79.2146 52.7717 79.1832C52.5483 78.9986 52.304 79.0812 52.0028 79.4231C51.5652 79.8712 51.2129 79.9302 50.8531 79.8517C50.6372 79.8047 50.3853 79.7497 50.1694 79.7026C49.9535 79.6556 49.7301 79.471 49.5426 79.2942C48.9803 78.7639 48.3894 78.3633 47.592 78.7329C47.4197 78.8312 47.2473 78.9295 47.1034 78.8981C46.8875 78.851 46.6791 78.9414 46.4139 79.2912C45.9764 79.7392 45.5748 80.1952 45.1656 80.5135C45.1297 80.5057 45.0937 80.4978 45.0861 80.3603C45.0275 79.9399 44.9404 79.6492 44.6752 79.999C44.3456 80.4706 44.0369 80.675 43.8134 80.4904C43.6979 80.3293 43.5255 80.4276 43.3816 80.3962C43.2377 80.3648 43.0938 80.3334 42.9783 80.1723C42.7908 79.9956 42.6393 79.8267 42.4025 80.0468C42.0654 80.3809 41.8135 80.3259 41.5616 80.271C41.3817 80.2318 41.2018 80.1925 41.1147 79.9018C40.9766 79.3282 40.6963 79.4029 40.4444 79.348C39.9122 79.3678 39.416 79.3954 38.7852 80.209C38.484 80.5509 38.1393 80.7474 37.8874 80.6925C37.4991 80.7437 37.1033 80.6574 36.7435 80.5789C36.3117 80.4847 35.8515 80.5202 35.3135 81.0823C35.0123 81.4242 34.7964 81.3771 34.6014 81.0628C34.4064 80.7486 34.1545 80.6936 33.8458 80.898C33.5371 81.1024 33.2852 81.0475 33.0049 81.1222C32.6149 80.4937 32.1111 80.3838 31.6073 80.274C30.0961 79.9444 28.6208 79.6226 27.138 79.1633C26.6702 79.0613 26.2309 78.8296 25.8275 78.6058C25.6116 78.5587 25.4886 78.2601 25.3939 77.8319C25.3864 77.6944 25.4433 77.435 25.4357 77.2975C25.4357 77.2975 25.5001 77.1757 25.5286 77.046C25.6934 76.8102 25.8297 76.7041 25.9586 76.4604C26.059 76.3464 26.1803 75.9653 26.2371 75.7059C26.4361 74.7982 26.5348 74.0045 26.3398 73.6903C26.2318 73.6667 26.1239 73.6432 26.0443 73.49C26.2776 71.9104 26.2776 71.9104 25.8516 71.274C25.9578 70.6178 26.0924 69.8319 26.2345 69.1835C26.3709 69.0774 26.5073 68.9713 26.6437 68.8652C26.7441 68.7512 26.9013 68.3779 26.9222 68.1107C26.9146 67.9732 26.9355 67.706 26.8996 67.6981C26.4602 67.4664 26.0853 67.1129 25.6175 67.0109C24.8619 66.8461 24.0494 66.9406 23.4719 66.1353C23.2769 65.8211 22.9966 65.8958 22.6878 66.1002C22.2427 66.4107 21.8753 66.1947 21.5724 65.8569C21.5364 65.8491 21.5573 65.5819 21.6141 65.3225C21.6141 65.3225 21.6786 65.2007 21.7145 65.2086C21.8149 65.0946 21.9229 65.1181 21.9948 65.1338C23.0308 65.2239 24.1236 65.0546 25.0742 65.5337C25.1462 65.5494 25.2826 65.4433 25.3545 65.459C25.3905 65.4668 25.4834 65.2153 25.5402 64.956C25.5402 64.956 25.5327 64.8185 25.5611 64.6888C25.5176 64.5434 25.4096 64.5199 25.3377 64.5042C24.2298 64.3984 23.2716 63.7818 22.249 63.2871C21.9895 63.0946 21.7017 63.0318 21.3854 63.0987C21.1051 63.1734 20.8532 63.1185 20.6013 63.0636C20.3135 63.0008 20.054 62.8084 19.7662 62.7456C19.895 62.5019 20.0523 62.1286 20.1811 61.885C20.3384 61.5116 20.4596 61.1305 20.473 60.7258C20.5147 60.1914 20.3992 60.0303 20.2553 59.9989C20.0754 59.9597 19.8746 60.1877 19.6454 60.5453C19.3877 61.0326 19.2438 61.0012 19.0639 60.9619C18.7041 60.8835 18.4086 60.6832 18.1985 60.0939C18.1039 59.6656 17.9524 59.4967 17.7365 59.4496C17.4487 59.3868 17.3105 58.8132 17.1439 58.3693C16.9698 57.7878 17.0325 56.9862 17.6557 56.0352C17.7561 55.9212 17.8565 55.8072 17.9853 55.5636C18.0498 55.4418 18.0706 55.1746 18.0631 55.0371C18.012 54.7542 17.9969 54.4791 17.889 54.4556C17.5349 53.8349 17.0596 53.5954 16.535 53.7527C15.9308 53.7568 15.463 53.6548 14.9953 53.5528C14.1033 53.4941 13.3818 52.6574 12.7248 51.6989C12.5298 51.3846 12.3499 51.3454 12.0412 51.5498C11.8044 51.7699 11.5601 51.8524 11.3233 52.0726C11.0146 52.277 10.7627 52.222 10.5677 51.9078C10.5241 51.7624 10.4806 51.617 10.5299 51.2202C10.6152 50.8311 10.8085 50.4657 10.9448 50.3596C11.0168 50.3752 11.1532 50.2691 11.2251 50.2848C12.3841 50.6735 13.5924 50.6652 14.6946 51.3132C15.0259 51.5214 15.4502 51.478 15.8384 51.4268C16.2267 51.3756 16.5505 51.4463 16.8819 51.6544C17.1054 51.839 17.3573 51.8939 17.6376 51.8192C18.4709 51.4575 19.0049 52.1174 19.4251 53.296C19.5046 53.4493 19.4269 53.9758 19.3056 54.357C19.2412 54.4788 19.1483 54.7303 19.0839 54.8521C18.7619 55.4612 18.6557 56.1174 18.5571 56.9111C18.5211 56.9033 18.4491 56.8876 18.3847 57.0094C18.2843 57.1234 18.2559 57.2531 18.2994 57.3984L18.3714 57.4141C18.4358 57.2923 18.4642 57.1626 18.5571 56.9111C18.7521 57.2254 19.0039 57.2803 19.2843 57.2056C19.8089 57.0483 20.3979 56.7691 20.8657 56.8711C20.9017 56.879 21.0305 56.6354 21.0949 56.5135C21.1594 56.3917 21.2011 55.8573 21.1576 55.712C21.0705 55.4212 20.991 55.268 20.9039 54.9773C20.8169 54.6866 20.7374 54.5333 20.6787 54.1129C20.6352 53.9676 20.6485 53.5629 20.7414 53.3114C20.8342 53.0599 20.9271 52.8084 21.0275 52.6944C21.1279 52.5804 21.2642 52.4743 21.3362 52.49C21.4877 52.6589 21.6032 52.82 21.7547 52.9889C22.2033 54.0378 22.7582 54.4306 23.584 53.9313C23.9647 53.7426 24.3245 53.8211 24.6843 53.8996C25.0801 53.9859 25.5328 53.8129 26.0423 53.3805C26.5159 52.9403 27.0539 52.3783 27.4781 52.3349C27.5861 52.3585 27.7509 52.1227 27.8872 52.0165C28.1884 51.6746 28.4972 51.4702 28.8135 51.4033C28.9934 51.4426 29.1942 51.2146 29.4443 50.5898C29.63 50.0868 29.8023 49.9885 29.9463 50.0199C30.1906 49.9373 30.4198 49.5797 30.6624 48.8174C30.869 48.0472 31.1266 47.5599 31.3634 47.3398C31.3709 47.4773 31.4429 47.493 31.4504 47.6305L31.4789 47.5009C31.4069 47.4852 31.3709 47.4773 31.299 47.4616C31.1835 47.3006 31.068 47.1395 30.924 47.1081C30.0245 46.9119 29.1249 46.7157 28.2329 46.6571C27.9451 46.5943 27.6856 46.4018 27.2916 46.9953C27.2556 46.9874 27.2272 47.1171 27.1987 47.2468C27.1703 47.3764 27.1419 47.5061 27.1779 47.5139C27.2214 47.6593 27.2649 47.8047 27.3729 47.8282C27.6758 48.166 28.1001 48.1227 28.5168 47.9418C28.905 47.8906 29.2573 47.8316 29.4958 48.2912C29.475 48.5584 29.439 48.5506 29.367 48.5349C28.3955 48.323 27.424 48.1111 26.388 48.021C26.1002 47.9583 25.8407 47.7658 25.7026 47.1922C25.4925 46.6029 25.2255 46.2729 24.8372 46.3241C24.377 46.3596 23.9452 46.2654 23.485 46.3009C23.449 46.2931 23.4206 46.4228 23.3846 46.4149C23.2918 46.6664 23.2993 46.8039 23.3713 46.8196C23.6382 47.1496 23.8692 47.4717 24.1647 47.672C24.0074 48.0453 23.9279 47.8921 23.8199 47.8686C22.1363 47.6372 20.5171 47.2841 18.8903 46.7934C18.3506 46.6757 17.8109 46.558 17.2351 46.4325C16.8753 46.354 16.4511 46.3973 15.9567 47.1047C15.627 47.5763 15.3392 47.5135 15.0873 47.4586C14.612 47.2191 14.1158 47.2467 13.5836 47.2665C13.0874 47.2942 12.6196 47.1922 12.2162 46.9683C11.669 46.7131 11.0364 46.8469 10.3754 47.1103C10.3678 46.9728 10.3318 46.9649 10.2883 46.8196L10.2523 46.8117C10.3243 46.8274 10.3678 46.9728 10.4398 46.9885C10.2181 47.4836 10.0173 47.7116 9.80897 47.802C9.66504 47.7706 9.49267 47.8689 9.34874 47.8375C9.06089 47.7747 8.74459 47.8416 8.33723 48.8397C8.24438 49.0912 8.03604 49.1817 7.92809 49.1581C7.71219 49.111 7.48875 48.9264 7.30129 48.7497C6.89038 48.3883 6.48702 48.1645 5.96239 48.3218C5.9264 48.314 5.89042 48.3061 5.89042 48.3061C5.88287 48.1686 5.83934 48.0232 5.86777 47.8935C5.8962 47.7639 5.95307 47.5045 6.01748 47.3827C6.14631 47.1391 6.31112 46.9033 6.43995 46.6596C6.63319 46.2942 6.75447 45.913 6.70339 45.6301C6.68652 44.6753 6.87044 43.4926 6.98995 42.4317C7.08103 41.5004 7.28005 40.5928 7.58702 39.7086C7.77272 39.2056 7.98684 38.573 8.13655 38.0621C8.37156 37.1623 8.635 36.1328 8.71853 35.064C8.74519 34.2546 8.8798 33.4687 9.15834 32.7142C9.37246 32.0816 9.57904 31.3114 9.68522 30.6552C9.81983 29.8693 10.0548 28.9695 10.2974 28.2071C10.4471 27.6963 10.6044 27.323 10.7616 26.9497C10.9189 26.5764 11.1481 26.2187 11.3054 25.8454C11.527 25.3503 11.7278 25.1223 11.9362 25.0319C12.4533 24.7371 12.8851 24.8312 13.3453 24.7957C14.2089 24.9841 15.1009 25.0427 15.9929 25.1014C17.2447 25.2386 18.561 25.2539 19.8128 25.391C20.0287 25.4381 20.2086 25.4774 20.4529 25.3948C21.2219 25.1549 21.9056 25.304 22.5892 25.4531C23.7047 25.6963 24.8486 25.81 25.9925 25.9236C26.4242 26.0177 26.9413 25.7229 27.4015 25.6874C27.8618 25.6519 28.322 25.6164 28.7253 25.8402C29.2007 26.0798 29.6969 26.0521 30.2575 25.9027C30.5738 25.8358 30.8901 25.7689 31.1779 25.8317C32.1419 25.906 33.0699 25.9725 34.0339 26.0469C34.2858 26.1018 34.5661 26.0271 34.8464 25.9524C35.3635 25.6575 35.7952 25.7517 36.227 25.8459C36.8747 25.9871 37.4864 26.1205 38.2403 25.6056C38.4486 25.5152 38.657 25.4247 38.7725 25.5858C39.1114 25.9314 39.6001 25.7663 40.1096 25.3339C40.1322 25.7465 40.2118 25.8997 40.3841 25.8014C40.4201 25.8093 40.4485 25.6796 40.477 25.5499C40.5054 25.4202 40.5338 25.2906 40.4979 25.2827C40.4183 25.1295 40.282 25.2356 40.1096 25.3339ZM59.0285 20.9001C59 21.0298 58.9716 21.1595 59.0076 21.1673C58.9525 22.1064 59.0395 22.3971 59.3541 21.6505C59.6402 21.0335 59.8409 20.8056 60.0568 20.8527C60.7045 20.9939 60.8485 21.0253 61.5663 20.5025C61.3829 19.1038 60.9284 18.5971 60.3603 18.609C60.2883 18.5933 60.1519 18.6995 60.0515 18.8134C59.665 19.5444 59.3488 19.6113 59.0116 19.9454C59.0116 19.9454 58.9263 20.3344 58.8979 20.464C58.913 20.7391 58.9849 20.7548 59.0285 20.9001ZM56.3356 19.7693C56.2862 20.1662 56.2009 20.5552 56.1801 20.8224C56.1307 21.2193 56.1818 21.5021 56.3182 21.396C56.3542 21.4039 56.3902 21.4117 56.3902 21.4117C56.8922 20.8418 57.3448 20.6688 57.7975 20.4958C57.8335 20.5036 57.8619 20.374 57.8979 20.3818C57.9983 20.2678 58.1196 19.8867 58.1405 19.6195C58.1955 18.6804 58.1009 18.2522 57.7638 18.5862C57.3262 19.0343 56.9739 19.0933 56.5932 19.282C56.5212 19.2663 56.4 19.6475 56.3356 19.7693ZM22.6253 55.8962C22.2655 55.8177 22.2011 55.9395 21.8732 57.0909C21.6951 57.7314 21.445 58.3562 21.2384 59.1264C21.21 59.256 21.1891 59.5232 21.1966 59.6608C21.1682 59.7904 21.2042 59.7983 21.2402 59.8061C21.5205 59.7314 21.8501 59.2598 22.1513 58.9179C22.3805 58.5602 22.7084 57.4089 22.7786 56.7448C22.771 56.6073 22.7919 56.3401 22.7559 56.3323C22.7408 56.0573 22.6613 55.904 22.6253 55.8962ZM66.233 20.0257C65.9451 19.9629 65.6364 20.1673 65.3352 20.5093C65.2992 20.5014 65.2708 20.6311 65.2063 20.7529C65.1779 20.8826 65.0851 21.1341 65.0926 21.2716C65.1361 21.417 65.1512 21.692 65.2232 21.7077C65.5546 21.9158 65.9997 21.6053 66.4448 21.2948C66.4808 21.3026 66.5452 21.1808 66.5377 21.0433C66.5661 20.9136 66.587 20.6464 66.5795 20.5089C66.464 20.3478 66.3485 20.1868 66.233 20.0257ZM55.0162 15.8131C55.0313 16.0881 55.0673 16.0959 55.0749 16.2335C55.5937 16.6184 56.1694 16.7439 56.802 16.6102C56.838 16.618 56.9309 16.3665 57.0313 16.2525C57.0237 16.115 57.0446 15.8478 57.0086 15.84C56.4178 15.4394 55.8705 15.1841 55.0162 15.8131ZM26.4945 55.789C26.4226 55.7733 26.3866 55.7654 26.3146 55.7497C26.2067 55.7262 26.0703 55.8323 25.913 56.2056C25.8202 56.4571 25.8144 56.9993 25.9734 57.3058C26.176 57.7576 26.4923 57.6907 26.8579 57.2269C26.8939 57.2348 26.9223 57.1051 26.9867 56.9833C27.0152 56.8536 27.072 56.5943 27.0645 56.4567C26.9263 55.8831 26.682 55.9657 26.4945 55.789ZM77.4656 71.7969C77.4372 71.9266 77.3519 72.3156 77.3878 72.3234C77.5411 73.1721 77.9009 73.2506 78.4029 72.6807C78.4389 72.6885 78.4673 72.5589 78.4958 72.4292C78.5242 72.2995 78.5526 72.1699 78.5166 72.162C78.3501 71.7181 78.1191 71.3959 77.8956 71.2113C77.8596 71.2035 77.7877 71.1878 77.7232 71.3096C77.5944 71.5533 77.53 71.6751 77.4656 71.7969ZM25.1041 57.6597C25.1325 57.53 25.1818 57.1331 25.2311 56.7363C25.2654 56.0644 25.1214 56.033 24.9415 55.9937C24.8696 55.978 24.7047 56.2138 24.6479 56.4732C24.5626 56.8622 24.5133 57.2591 24.5644 57.5419C24.587 57.9545 24.6381 58.2374 24.7536 58.3984C24.7687 58.6735 24.9619 58.308 25.1041 57.6597ZM42.664 17.467C42.3117 17.526 41.9595 17.5851 41.5787 17.7738C41.4783 17.8878 41.4499 18.0174 41.429 18.2846C41.4006 18.4143 41.4366 18.4221 41.4726 18.43C41.804 18.6381 42.1562 18.5791 42.5654 18.2607C42.6014 18.2686 42.6866 17.8795 42.7151 17.7499C42.7435 17.6202 42.6716 17.6045 42.664 17.467ZM55.7732 19.2391C55.8585 18.8501 55.8718 18.4453 55.7923 18.2921C55.7847 18.1546 55.6843 18.2686 55.6199 18.3904C55.5555 18.5122 55.4627 18.7637 55.4702 18.9012C55.4209 19.2981 55.4076 19.7028 55.4871 19.856C55.5875 19.7421 55.7523 19.5063 55.7732 19.2391ZM23.077 60.8861C23.0846 61.0236 23.0637 61.2908 23.0997 61.2986C23.2152 61.4597 23.38 61.2239 23.6017 60.7288C23.6661 60.6069 23.687 60.3398 23.6794 60.2022C23.6208 59.7818 23.384 60.0019 23.1623 60.4971C23.1339 60.6268 23.1055 60.7564 23.077 60.8861ZM75.977 71.8799C75.8406 71.986 75.7686 71.9703 75.6682 72.0843C75.5319 72.1904 75.4181 72.7091 75.4048 73.1138C75.4559 73.3967 75.4994 73.542 75.7002 73.3141C75.8006 73.2001 75.9294 72.9565 75.9503 72.6893C75.9712 72.4221 75.9561 72.1471 75.977 71.8799ZM63.851 16.7888C63.7582 17.0403 63.7733 17.3153 63.8528 17.4685C63.9608 17.4921 64.0612 17.3781 64.118 17.1188C64.1749 16.8594 64.1882 16.4547 64.1163 16.439C64.0367 16.2858 63.9363 16.3998 63.851 16.7888ZM69.0414 21.3176C69.1418 21.2036 69.2497 21.2271 69.3501 21.1132C69.4145 20.9913 69.5074 20.7399 69.5358 20.6102C69.5642 20.4805 69.5491 20.2055 69.5131 20.1976C69.3617 20.0287 69.1609 20.2567 68.9316 20.6143C68.8957 20.6064 68.8672 20.7361 68.8388 20.8658C68.8104 20.9955 68.8179 21.133 68.8179 21.133C68.9259 21.1565 68.9978 21.1722 69.0414 21.3176ZM51.3167 20.3052C51.2882 20.4349 51.2958 20.5724 51.2958 20.5724C51.3677 20.5881 51.4113 20.7334 51.5476 20.6273C51.6196 20.643 51.6765 20.3837 51.7333 20.1243C51.7618 19.9947 51.7258 19.9868 51.6898 19.979C51.5383 19.8101 51.3735 20.0459 51.3167 20.3052ZM64.4356 20.3131C64.3996 20.3052 64.3277 20.2895 64.2632 20.4114C64.1988 20.5332 64.142 20.7925 64.1135 20.9222C64.0927 21.1894 64.2006 21.2129 64.2934 20.9614C64.3579 20.8396 64.4147 20.5803 64.4432 20.4506L64.4356 20.3131ZM52.4681 20.5563C52.4037 20.6781 52.3033 20.7921 52.2748 20.9218C52.218 21.1811 52.254 21.189 52.3259 21.2047C52.3619 21.2125 52.3903 21.0828 52.4263 21.0907C52.5192 20.8392 52.5116 20.7017 52.4681 20.5563ZM24.9139 61.9661C24.8495 62.0879 24.7851 62.2097 24.7566 62.3394C24.7566 62.3394 24.7642 62.4769 24.8002 62.4847C24.8437 62.6301 24.9081 62.5083 24.965 62.2489C24.9934 62.1193 24.9499 61.9739 24.9139 61.9661ZM58.0352 15.1128C57.9992 15.1049 57.9633 15.0971 57.9348 15.2268C57.842 15.4783 57.8495 15.6158 57.9215 15.6315C57.9935 15.6472 58.0219 15.5175 58.0788 15.2581C58.1072 15.1285 58.0712 15.1206 58.0352 15.1128ZM37.3125 44.9688C37.3845 44.9845 37.4489 44.8626 37.5058 44.6033C37.5342 44.4736 37.4982 44.4658 37.4622 44.4579C37.3903 44.4422 37.3259 44.5641 37.269 44.8234C37.269 44.8234 37.2765 44.9609 37.3125 44.9688ZM19.0093 59.3196C18.9733 59.3117 18.9089 59.4335 18.9089 59.4335C18.852 59.6929 18.8595 59.8304 18.8955 59.8383C18.9315 59.8461 18.9599 59.7164 18.9959 59.7243C19.0888 59.4728 19.0812 59.3353 19.0093 59.3196ZM53.5183 15.0788C53.4823 15.0709 53.4539 15.2006 53.4179 15.1927C53.361 15.4521 53.3326 15.5817 53.4046 15.5974C53.4406 15.6053 53.469 15.4756 53.505 15.4835C53.5618 15.2241 53.5259 15.2163 53.5183 15.0788ZM38.8145 44.4811L38.822 44.6186L38.8864 44.4968L38.8145 44.4811ZM23.0549 57.8921L23.0624 58.0296L23.1268 57.9078L23.0549 57.8921ZM59.0463 16.692L59.0538 16.8295L59.1107 16.5702L59.0463 16.692Z" fill="#E3311D"/>
<path d="M16.0089 61.6544C15.6851 61.5838 15.3972 61.521 15.0734 61.4503C14.1378 61.2463 13.2383 61.0501 12.3312 60.7164C12.1153 60.6693 11.9353 60.6301 11.7195 60.583C11.496 60.3984 11.4734 59.9858 11.6724 59.0781C11.7292 58.8188 11.8145 58.4298 11.8354 58.1626C11.8563 57.8954 11.8412 57.6204 11.7977 57.475C11.6822 57.3139 11.5667 57.1529 11.4227 57.1215C11.1993 56.9369 10.9759 56.7523 10.7808 56.438C10.7013 56.2848 10.6502 56.0019 10.6996 55.6051C10.728 55.4754 10.7849 55.216 10.8133 55.0864C10.8417 54.9567 10.8777 54.9645 10.9137 54.9724C10.9497 54.9802 11.0141 54.8584 10.9856 54.9881C11.4703 56.0449 12.2752 55.8128 13.0233 55.8401C13.1672 55.8715 13.368 55.6436 13.5404 55.5453C13.7487 55.4548 13.9495 55.2269 14.1579 55.1365C14.4666 54.932 14.5897 55.2306 14.5404 55.6275C14.4342 56.2837 14.2409 56.6492 14.0761 56.885C13.8829 57.2504 13.6821 57.4784 13.5533 57.722C13.4244 57.9657 13.3032 58.3468 13.1459 58.7201C12.9318 59.3528 12.9127 60.2997 13.0926 60.339C13.316 60.5236 13.5679 60.5785 13.9335 60.1148C14.0983 59.879 14.2991 59.651 14.4715 59.5527C14.7082 59.3326 14.9241 59.3797 15.0187 59.808C15.2515 60.8098 15.6264 61.1633 16.0089 61.6544Z" fill="#E3311D"/>
<path d="M41.3673 13.9233C41.2669 14.0372 41.159 14.0137 41.0586 14.1277C40.4997 14.9569 40.1324 14.7409 39.8503 14.1359C39.6837 13.692 39.4243 13.4995 39.1933 13.1774C39.0418 13.0085 38.8619 12.9692 38.7748 12.6785C38.6007 12.097 38.3053 11.8967 38.0459 11.7043C38.0099 11.6964 37.9948 11.4214 38.0232 11.2917C38.0516 11.1621 38.1445 10.9106 38.1805 10.9184C38.5461 10.4547 38.9041 9.85339 39.2697 9.38964C39.5349 9.03987 39.7508 9.08695 39.6882 9.88852C39.5705 11.6292 39.8525 12.2342 40.3563 12.344C40.6801 12.4147 40.968 12.4775 41.2634 12.6778C41.5872 12.7484 41.9111 12.819 42.1705 13.0115C42.4659 13.2118 42.6685 13.6636 42.6854 14.6183L42.6285 14.8777C42.6001 15.0073 42.5356 15.1292 42.5356 15.1292C42.0905 15.4397 41.7307 15.3612 41.4562 14.8937C41.4411 14.6187 41.4184 14.2061 41.3673 13.9233Z" fill="#E3311D"/>
<path d="M39.0258 17.8964C38.3496 17.8848 37.6944 17.606 36.9614 17.8537C36.7891 17.952 36.6451 17.9206 36.5296 17.7596C36.0677 17.1153 35.4635 17.1194 34.9806 16.7424C34.9087 16.7267 34.8007 16.7031 34.7572 16.5578C34.7137 16.4124 34.6986 16.1374 34.7194 15.8702C34.7403 15.603 34.9544 14.9703 35.0908 14.8642C35.1628 14.8799 35.2272 14.7581 35.2992 14.7738C36.1987 14.97 37.0907 15.0286 37.9903 15.2248C38.1702 15.2641 38.3501 15.3033 38.4656 15.4644C38.8121 15.9476 38.9654 16.7962 39.0258 17.8964Z" fill="#E3311D"/>
<path d="M31.4184 15.9655C31.1665 15.9105 30.9866 15.8713 30.8067 15.8321C29.9715 15.514 29.1364 15.196 28.3012 14.878C28.1933 14.8545 28.0853 14.8309 28.0987 14.4262C28.0987 14.4262 28.1555 14.1669 28.1915 14.1747C28.2919 14.0607 28.3999 14.0843 28.4718 14.1C28.9831 14.3474 29.4944 14.5948 30.0626 14.5828C30.5228 14.5473 30.8693 15.0305 31.2367 15.2465C31.3162 15.3997 31.3238 15.5372 31.4184 15.9655Z" fill="#E3311D"/>
<path d="M26.0459 13.2992C26.2258 13.3384 26.4133 13.5152 26.5932 13.5544C26.6292 13.5622 26.6367 13.6998 26.6367 13.6998C26.6158 13.9669 26.5514 14.0888 26.4795 14.0731C26.0837 13.9868 25.6878 13.9004 25.292 13.8141C25.2561 13.8063 25.2485 13.6687 25.2485 13.6687C25.2694 13.4015 25.3338 13.2797 25.4058 13.2954C25.6217 13.3425 25.83 13.2521 26.0459 13.2992Z" fill="#E3311D"/>
<path d="M48.1713 80.218C47.9705 80.4459 47.891 80.2927 47.7471 80.2613C47.5671 80.2221 47.4516 80.061 47.3002 79.8921C47.2642 79.8842 47.2851 79.6171 47.3135 79.4874C47.3135 79.4874 47.3779 79.3656 47.4139 79.3734C47.6582 79.2908 47.8741 79.3379 48.0331 79.6443C48.0767 79.7897 48.1202 79.9351 48.1637 80.0804C48.1922 79.9508 48.1637 80.0804 48.1713 80.218Z" fill="#E3311D"/>
<path d="M61.9779 79.153C61.834 79.1216 61.6901 79.0902 61.5461 79.0588C61.5461 79.0588 61.5386 78.9213 61.567 78.7916C61.5954 78.6619 61.6239 78.5323 61.6599 78.5401C62.0615 78.0842 62.3569 78.2845 62.6163 78.477C62.6163 78.477 62.6238 78.6145 62.5954 78.7442C62.567 78.8738 62.5026 78.9957 62.5026 78.9957C62.3586 78.9643 62.1503 79.0547 61.9779 79.153Z" fill="#E3311D"/>
<path d="M45.8411 22.236C45.8771 22.2439 45.9566 22.3971 46.0001 22.5425C46.0001 22.5425 46.0076 22.68 45.9792 22.8097C45.9508 22.9393 45.9224 23.069 45.8864 23.0611C45.6931 23.4266 45.5776 23.2656 45.4621 23.1045C45.4262 23.0966 45.4111 22.8216 45.4395 22.6919C45.4679 22.5623 45.5683 22.4483 45.6327 22.3265C45.6971 22.2046 45.7331 22.2125 45.8411 22.236Z" fill="#E3311D"/>
<path d="M34.09 8.93932C34.0314 8.51893 33.9443 8.2282 33.9217 7.81564C33.8857 7.80779 33.9426 7.54845 33.9426 7.54845C34.007 7.42663 34.0714 7.3048 34.1358 7.18298C34.2078 7.19867 34.3157 7.22222 34.3877 7.23791C34.5392 7.40682 34.4974 7.9412 34.2113 8.55817C34.1545 8.81751 34.1545 8.8175 34.09 8.93932Z" fill="#E3311D"/>
<path d="M18.0368 64.2706C18.0652 64.1409 18.1221 63.8816 18.1221 63.8816C18.3873 63.5318 18.5672 63.571 18.7547 63.7478C18.8266 63.7635 18.8057 64.0307 18.7413 64.1525C18.7129 64.2822 18.6769 64.2743 18.6409 64.2665C18.4042 64.4866 18.2242 64.4474 18.0368 64.2706Z" fill="#E3311D"/>
<path d="M19.6867 62.5924C19.3419 62.7889 18.9612 62.9776 18.6943 62.6477C18.6583 62.6398 18.6507 62.5023 18.6507 62.5023C18.6716 62.2351 18.736 62.1133 18.808 62.129C18.88 62.1447 19.0163 62.0385 19.0599 62.1839C19.3117 62.2388 19.4708 62.5453 19.6867 62.5924Z" fill="#E3311D"/>
<path d="M41.1391 9.11797C41.0897 9.51483 41.0404 9.91169 40.9551 10.3007C40.8983 10.56 40.741 10.9334 40.669 10.9177C40.6331 10.9098 40.5895 10.7645 40.5535 10.7566C40.51 10.6112 40.6237 10.0926 40.6882 9.97074C40.8454 9.59742 40.9742 9.35377 41.1391 9.11797Z" fill="#E3311D"/>
<path d="M6.14041 58.6869C5.88853 58.6319 5.63665 58.577 5.38478 58.5221C5.67264 58.5849 5.92451 58.6398 6.14041 58.6869Z" fill="#E3311D"/>
<path d="M16.1941 63.7329C16.1013 63.9843 15.9138 63.8076 15.9347 63.5404L16.0275 63.2889C16.0995 63.3046 16.2075 63.3281 16.2794 63.3438C16.251 63.4735 16.1941 63.7329 16.1941 63.7329Z" fill="#E3311D"/>
<path d="M41.1391 9.11797C41.3834 9.03539 41.6277 8.9528 41.872 8.87022L41.8436 8.99989C41.5993 9.08247 41.3549 9.16506 41.1391 9.11797Z" fill="#E3311D"/>
<path d="M24.5638 71.129C24.5278 71.1211 24.4993 71.2508 24.4634 71.2429C24.363 71.3569 24.3554 71.2194 24.4198 71.0976C24.4198 71.0976 24.4558 71.1054 24.4918 71.1133C24.5562 70.9915 24.5278 71.1211 24.5638 71.129Z" fill="#E3311D"/>
<path d="M23.9782 72.7676C23.9498 72.8973 23.9138 72.8894 23.9138 72.8894C23.8778 72.8816 23.8419 72.8737 23.8703 72.7441C23.8912 72.4769 23.9556 72.355 23.9991 72.5004C23.9991 72.5004 23.9707 72.6301 23.9782 72.7676Z" fill="#E3311D"/>
<path d="M51.7034 80.4448C51.7393 80.4526 51.8397 80.3387 51.8757 80.3465C51.8757 80.3465 51.8473 80.4762 51.8548 80.6137C51.8188 80.6059 51.7185 80.7198 51.6825 80.712C51.6825 80.712 51.7393 80.4526 51.7034 80.4448Z" fill="#E3311D"/>
<path d="M8.60326 54.3326C8.51041 54.5841 8.38158 54.8278 8.31717 54.9496C8.25275 55.0714 8.20922 54.926 8.17324 54.9182C8.17324 54.9182 8.20167 54.7885 8.2301 54.6589C8.25853 54.5292 8.29452 54.537 8.3305 54.5449C8.4309 54.4309 8.53129 54.3169 8.60326 54.3326Z" fill="#E3311D"/>
<path d="M46.0425 80.2972C46.0785 80.305 46.1145 80.3129 46.1145 80.3129C46.1221 80.4504 46.0936 80.5801 45.9857 80.5565C45.9857 80.5565 46.0141 80.4268 46.0425 80.2972Z" fill="#E3311D"/>
<path d="M36.4364 9.58695L36.5009 9.46511L36.48 9.73231L36.4364 9.58695Z" fill="#E3311D"/>
<path d="M17.1888 61.7758L17.2532 61.654L17.2607 61.7915L17.1888 61.7758Z" fill="#E3311D"/>
<path d="M16.8281 55.8547C16.8641 55.8625 16.8357 55.9922 16.8717 56.0001C16.8432 56.1297 16.8432 56.1297 16.8072 56.1219C16.8072 56.1219 16.7713 56.114 16.7637 55.9765C16.7997 55.9844 16.8281 55.8547 16.8281 55.8547Z" fill="#E3311D"/>
<path d="M37.6971 13.1228L37.7047 13.2603L37.6687 13.2525L37.6971 13.1228Z" fill="#E3311D"/>
<path d="M34.09 8.93932C34.0692 9.20651 34.0483 9.47371 33.9914 9.73305L33.9839 9.59553C34.0407 9.33618 34.0976 9.07684 34.09 8.93932Z" fill="#E3311D"/>
<path d="M46.6376 16.0238L46.7021 15.902C46.7021 15.902 46.774 15.9177 46.7096 16.0395C46.7172 16.177 46.6812 16.1692 46.6376 16.0238Z" fill="#E3311D"/>
<path d="M12.6297 53.8521L12.5729 54.1114L12.5653 53.9739L12.6297 53.8521Z" fill="#E3311D"/>
<path d="M9.74986 49.9631L9.75741 50.1006L9.78584 49.9709L9.74986 49.9631Z" fill="#E3311D"/>
<rect x="31.77" y="20.5112" width="57.9306" height="57.7761" rx="28.8881" fill="#362E2D"/>
</svg>
