<svg width="200" height="72" viewBox="0 0 200 72" fill="none" xmlns="http://www.w3.org/2000/svg">
<rect x="26" y="9.6731" width="153.165" height="62.2568" rx="1.82791" transform="rotate(-1 26 9.6731)" fill="#E3311D"/>
<path d="M177.501 39.5505C177.403 39.1864 177.238 38.9185 177.117 38.6389C177.056 38.4991 177.02 38.2749 176.935 38.2195C176.872 38.1584 176.826 38.2486 176.802 38.3331C176.749 38.6592 176.616 38.7728 176.442 38.8193C176.244 38.9503 176.028 38.9299 175.737 38.5396C175.488 38.2164 175.355 38.3299 175.341 38.8017C175.351 39.189 175.262 39.2909 175.09 39.2588C174.961 39.2151 174.831 39.2501 174.7 39.285C174.504 39.3374 174.33 39.3839 174.076 39.2179C173.865 39.0402 173.732 39.1538 173.58 39.1945C173.038 39.2614 172.496 39.3283 171.954 39.3952C171.888 39.4126 171.784 39.2845 171.702 39.1505C171.498 38.7369 171.348 38.699 171.215 38.8126C170.903 39.13 170.555 39.2231 170.185 39.322C170.076 39.3511 169.947 39.3074 169.841 39.2579C169.775 39.2754 169.591 38.9346 169.593 38.856C169.576 38.7046 169.581 38.5473 169.605 38.4629C169.673 38.3668 169.74 38.2707 169.827 38.2474C170.113 38.0931 170.439 38.0058 170.763 37.9971C171.022 38.0059 171.281 38.0147 171.501 37.8779C171.787 37.7236 172.089 37.7207 172.45 37.9363C172.641 38.0411 172.794 38.0004 172.888 37.7412C173.006 37.3976 173.182 37.2724 173.439 37.3598C173.502 37.421 173.548 37.3307 173.591 37.3191C173.838 37.0192 174.203 37.0775 174.489 36.9232C174.75 36.8533 174.992 36.7107 175.234 36.568C175.432 36.437 175.632 36.2274 175.87 36.242C176.368 36.1868 176.81 35.8345 177.289 35.7064C177.507 35.6482 177.48 35.1095 177.535 34.7047C177.535 34.7047 177.476 34.4863 177.435 34.4193C177.35 34.3639 177.246 34.2358 177.181 34.2532C177.094 34.2765 176.987 34.227 176.92 34.3231C176.695 34.6172 176.414 34.6142 176.112 34.6171C175.787 34.6258 175.441 34.6402 175.117 34.6489C175.095 34.6547 175.035 34.515 174.993 34.448C174.993 34.448 174.954 34.3024 174.976 34.2965C175.044 34.2004 175.07 34.0374 175.138 33.9413C175.16 33.9355 175.162 33.8568 175.162 33.8568C175.123 33.7112 175.082 33.6442 175.038 33.6559C174.973 33.6733 174.908 33.6908 174.821 33.7141C174.537 33.7897 174.254 33.8654 173.896 33.5712C173.833 33.5101 173.768 33.5275 173.724 33.5392C173.659 33.5566 173.63 33.7983 173.71 34.0109C173.769 34.2293 173.832 34.2905 173.916 34.3459C174.088 34.3779 174.28 34.4828 174.451 34.5149C174.536 34.5702 174.658 34.8498 174.694 35.074C174.748 35.4497 174.782 35.7526 174.652 35.7875C174.54 35.8952 174.388 35.936 174.238 35.8981C173.853 35.767 173.546 35.9271 173.239 36.0872C173.062 36.2124 172.869 36.1861 172.634 36.0929C172.292 35.9502 171.949 35.886 171.724 36.1801C171.7 36.2646 171.615 36.2092 171.572 36.2209C170.638 36.3925 169.803 36.8496 168.811 36.8028C168.746 36.8203 168.681 36.8377 168.596 36.7824C168.574 36.7882 168.513 36.6484 168.472 36.5814C168.453 36.5086 168.435 36.3572 168.438 36.2786C168.48 35.5651 168.681 35.3555 169.02 35.5768C169.042 35.571 169.083 35.638 169.083 35.638C169.313 35.8885 169.424 35.7808 169.518 35.5216C169.636 35.178 169.713 34.7674 169.625 34.0888C169.554 33.5617 169.646 33.3812 169.798 33.3404C170.103 33.259 170.391 33.026 170.754 33.163C170.776 33.1572 170.858 33.2911 170.878 33.3639C170.897 33.4367 170.914 33.5882 170.912 33.6668C170.731 33.9492 170.572 34.2259 170.391 34.5083C170.299 34.6889 170.27 34.9306 170.302 35.3121C170.3 35.3907 170.38 35.6033 170.402 35.5975C170.487 35.6528 170.591 35.781 170.656 35.7635C171.031 35.5073 171.464 35.4695 171.897 35.4317C171.941 35.4201 171.987 35.3298 172.03 35.3182C172.074 35.3065 172.039 35.0037 171.979 34.8639C171.898 34.6513 171.797 34.4445 171.736 34.3047C171.595 33.9523 171.522 33.5038 171.589 33.4077C171.727 33.1369 171.864 32.8661 172.043 32.6623C172.2 32.4643 172.418 32.4061 172.675 32.4935C172.803 32.5372 172.91 32.5868 173.038 32.6305C173.379 32.7732 173.704 32.7645 173.928 32.4704C174.063 32.2783 174.277 32.3773 174.526 32.7006C174.609 32.8346 174.715 32.8841 174.8 32.9394C174.822 32.9336 174.846 32.8492 174.868 32.8434C174.889 32.8375 174.87 32.7647 174.872 32.6861C174.704 31.795 174.881 31.6698 175.12 31.6058C175.294 31.5592 175.488 31.5854 175.584 31.2476C175.606 31.2418 175.586 31.169 175.567 31.0962C175.548 31.0234 175.509 30.8778 175.467 30.8108C175.426 30.7438 175.363 30.6826 175.341 30.6885C175.3 30.6215 175.257 30.6331 175.213 30.6448C175.148 30.6622 175.082 30.6797 174.995 30.703C174.352 31.2649 173.551 31.323 172.831 31.5937C172.265 31.745 171.74 31.9634 171.174 32.1147C171 32.1612 170.845 32.2806 170.77 32.6126C170.696 32.9446 170.543 32.9853 170.371 32.9532C170.028 32.8891 169.662 32.8308 169.318 32.7667C169.081 32.7521 168.803 32.6705 168.624 32.8743C168.602 32.8801 168.581 32.8859 168.581 32.8859C167.976 32.8917 167.509 33.3284 166.924 33.4069C166.599 33.4156 166.336 33.5641 166.031 33.6456C165.9 33.6805 165.767 33.794 165.617 33.7562C165.295 33.6862 165.034 33.7561 164.751 33.8317C164.185 33.983 163.558 33.9946 162.973 34.0731C162.039 34.2448 161.068 34.1922 160.173 34.5094C159.736 34.7045 159.261 34.6753 158.726 34.5063C158.469 34.4189 158.211 34.4101 157.993 34.4683C156.952 34.5904 155.89 34.7184 154.85 34.8405C153.983 34.9161 153.12 34.913 152.256 34.9099C151.433 34.9739 150.63 35.1106 149.885 35.4657C149.686 35.5967 149.466 35.7336 149.327 36.083C149.235 36.2635 149.265 36.7237 149.401 37.2333C149.44 37.3789 149.459 37.4517 149.498 37.5973C149.637 38.0284 149.712 38.3982 149.744 38.7797C149.752 39.2457 149.867 39.7611 150.046 40.2591C150.146 40.5445 150.265 40.9028 150.362 41.2668C150.518 41.8492 150.674 42.4317 150.851 43.0083C151.068 43.7306 151.26 44.5373 151.433 45.2712C151.511 45.5624 151.545 45.8653 151.538 46.1011C151.568 46.5613 151.457 46.669 151.304 46.7097C150.98 46.7184 150.658 46.6485 150.334 46.6571C149.731 46.5842 149.17 46.5783 148.548 46.4326C147.925 46.2869 147.403 46.4266 146.8 46.3537C146.456 46.2895 146.232 46.5836 146.007 46.8777C145.918 46.9796 145.93 47.2883 146.006 47.6582C146.064 47.8766 146.142 48.1678 146.159 48.3192C146.211 48.7735 146.328 49.2104 146.507 49.7084C146.588 49.921 146.646 50.1394 146.661 50.3695C146.671 50.7568 146.768 51.1208 146.953 51.4616C147.157 51.8751 147.276 52.2333 147.347 52.7605C147.398 53.2148 147.493 53.6574 147.545 54.1117C147.581 54.336 147.618 54.5602 147.633 54.7903C147.701 55.396 147.648 55.7221 147.453 55.7745C147.215 55.7599 146.956 55.7511 146.739 55.8094C146.567 55.7773 146.414 55.818 146.262 55.8588C146.11 55.8995 146.118 56.3655 146.276 56.8693C146.492 57.5915 146.689 58.241 146.84 58.9807C146.896 59.2777 146.996 59.5631 147.095 59.8485C147.173 60.1398 147.273 60.4252 147.329 60.7222C147.478 61.5406 147.742 62.0939 148.009 62.5686C148.029 62.6414 148.029 62.6414 148.07 62.7084C148.17 62.9938 148.143 63.1569 148.158 63.387C148.224 64.0713 148.399 64.7266 148.681 65.4314C148.803 65.711 148.943 66.0634 149.065 66.3429C149.186 66.6225 149.264 66.9138 149.298 67.2166C149.35 67.6709 149.428 67.9622 149.634 68.2971C149.758 68.4981 149.857 68.7835 149.981 68.9844C150.042 69.1242 150.146 69.2524 150.189 69.2407C150.424 69.3339 150.618 69.3602 150.833 69.3806C151.071 69.3952 151.33 69.404 151.567 69.4186C151.496 68.8915 151.549 68.5653 151.742 68.5916C151.979 68.6062 152.258 68.6878 152.514 68.7752C152.749 68.8684 152.967 68.8102 153.185 68.752C153.402 68.6938 153.598 68.6414 153.855 68.7288C154.368 68.9036 154.864 68.927 155.38 69.0232C155.896 69.1194 156.433 69.2098 156.949 69.306C157.314 69.3643 157.66 69.3498 158.026 69.4081C158.306 69.411 158.505 69.28 158.506 68.4996C158.513 68.2637 158.704 68.3686 158.821 68.8054C158.918 69.1694 159.02 69.3762 159.149 69.4199C159.471 69.4899 159.814 69.554 160.136 69.624C160.18 69.6123 160.202 69.6065 160.245 69.5948C160.535 69.2833 160.961 69.4814 161.327 69.5397C162.251 69.6826 163.196 69.8982 164.062 69.8227C164.105 69.811 164.171 69.7936 164.234 69.8547C164.745 70.1082 165.178 70.0704 165.65 70.1782C165.865 70.1986 166.059 70.2249 166.255 70.1725C166.407 70.1318 166.581 70.0852 166.751 70.1959C167.347 70.5047 167.904 70.6679 168.534 71.2795C168.807 71.5184 169.042 71.6116 169.26 71.5534C169.737 71.504 170.211 71.5332 170.668 71.4109C170.69 71.4051 170.716 71.242 170.695 71.2479C170.534 70.8227 170.602 70.7266 170.689 70.7033C170.822 70.5897 170.972 70.6276 171.161 70.8111C171.435 71.05 171.65 71.0704 171.868 71.0122C171.999 70.9773 172.151 70.9365 172.282 70.9016C172.412 70.8667 172.545 70.7531 172.656 70.6454C172.99 70.3222 173.343 70.0718 173.834 70.2525C173.941 70.302 174.048 70.3515 174.135 70.3282C174.265 70.2933 174.394 70.337 174.561 70.5263C174.835 70.7652 175.087 71.0098 175.341 71.1759C175.363 71.17 175.385 71.1642 175.387 71.0856C175.416 70.8439 175.464 70.675 175.631 70.8643C175.839 71.1206 176.031 71.2255 176.164 71.1119C176.231 71.0159 176.338 71.0654 176.425 71.0421C176.512 71.0188 176.599 70.9955 176.667 70.8994C176.778 70.7917 176.867 70.6898 177.015 70.8063C177.226 70.984 177.378 70.9433 177.531 70.9025C177.64 70.8734 177.748 70.8443 177.797 70.6754C177.871 70.3434 178.043 70.3755 178.195 70.3348C178.52 70.3261 178.822 70.3232 179.22 70.763C179.409 70.9465 179.622 71.0456 179.774 71.0048C180.011 71.0194 180.251 70.9554 180.469 70.8972C180.73 70.8274 181.011 70.8303 181.347 71.1303C181.536 71.3138 181.667 71.2789 181.781 71.0925C181.894 70.9062 182.046 70.8654 182.238 70.9703C182.429 71.0752 182.582 71.0344 182.753 71.0665C182.98 70.6938 183.285 70.6123 183.59 70.5308C184.504 70.2864 185.397 70.0477 186.292 69.7305C186.575 69.6548 186.839 69.5063 187.08 69.3637C187.211 69.3287 187.281 69.154 187.331 68.9065C187.334 68.8279 187.295 68.6823 187.297 68.6036C187.297 68.6036 187.256 68.5366 187.236 68.4638C187.132 68.3357 187.047 68.2803 186.965 68.1464C186.902 68.0852 186.822 67.8726 186.783 67.727C186.647 67.2173 186.573 66.7689 186.687 66.5825C186.752 66.565 186.817 66.5476 186.863 66.4573C186.695 65.5662 186.695 65.5662 186.944 65.1876C186.868 64.8178 186.773 64.3751 186.676 64.0111C186.591 63.9557 186.506 63.9004 186.422 63.8451C186.359 63.7839 186.257 63.5771 186.239 63.4257C186.242 63.347 186.225 63.1956 186.246 63.1898C186.51 63.0413 186.732 62.8259 187.015 62.7502C187.472 62.628 187.969 62.6514 188.307 62.1709C188.42 61.9846 188.592 62.0166 188.783 62.1215C189.06 62.2817 189.28 62.1449 189.458 61.9411C189.48 61.9352 189.463 61.7838 189.424 61.6382C189.424 61.6382 189.383 61.5712 189.361 61.577C189.298 61.5159 189.233 61.5333 189.189 61.545C188.56 61.6351 187.892 61.5797 187.321 61.8883C187.278 61.8999 187.193 61.8446 187.15 61.8562C187.128 61.862 187.067 61.7222 187.028 61.5766C187.028 61.5766 187.03 61.498 187.011 61.4252C187.035 61.3407 187.1 61.3233 187.144 61.3116C187.817 61.2098 188.39 60.8226 189.004 60.5024C189.158 60.383 189.333 60.3364 189.526 60.3627C189.698 60.3947 189.851 60.354 190.003 60.3133C190.177 60.2667 190.332 60.1473 190.506 60.1008C190.424 59.9668 190.322 59.76 190.239 59.626C190.137 59.4193 190.057 59.2067 190.042 58.9766C190.008 58.6737 190.075 58.5776 190.163 58.5544C190.271 58.5253 190.397 58.6476 190.543 58.8427C190.708 59.1107 190.795 59.0874 190.904 59.0583C191.122 59.0001 191.298 58.8749 191.416 58.5313C191.467 58.2838 191.556 58.1819 191.687 58.1469C191.861 58.1004 191.935 57.7684 192.029 57.5092C192.126 57.1714 192.074 56.7171 191.679 56.1987C191.616 56.1375 191.553 56.0764 191.47 55.9424C191.429 55.8754 191.412 55.724 191.414 55.6454C191.441 55.4823 191.445 55.325 191.511 55.3076C191.716 54.9407 192.001 54.7864 192.323 54.8563C192.691 54.836 192.974 54.7603 193.257 54.6847C193.799 54.6178 194.224 54.1141 194.608 53.5434C194.722 53.357 194.831 53.3279 195.022 53.4328C195.17 53.5493 195.32 53.5872 195.468 53.7037C195.659 53.8085 195.811 53.7678 195.925 53.5814C195.949 53.497 195.973 53.4126 195.936 53.1883C195.878 52.9699 195.754 52.7689 195.669 52.7136C195.626 52.7252 195.541 52.6699 195.498 52.6815C194.799 52.9464 194.063 52.987 193.403 53.3975C193.205 53.5286 192.946 53.5198 192.708 53.5052C192.471 53.4906 192.275 53.5429 192.077 53.674C191.944 53.7875 191.792 53.8283 191.62 53.7962C191.107 53.6214 190.793 54.0174 190.556 54.7046C190.511 54.7949 190.567 55.0919 190.647 55.3045C190.688 55.3715 190.749 55.5113 190.79 55.5783C190.996 55.9132 191.072 56.2831 191.145 56.7315C191.167 56.7257 191.21 56.7141 191.251 56.7811C191.314 56.8422 191.334 56.915 191.31 56.9995L191.266 57.0111C191.225 56.9441 191.206 56.8713 191.145 56.7315C191.031 56.9179 190.879 56.9586 190.707 56.9266C190.385 56.8566 190.022 56.7197 189.739 56.7954C189.717 56.8012 189.635 56.6672 189.594 56.6002C189.552 56.5332 189.518 56.2304 189.542 56.1459C189.59 55.977 189.636 55.8868 189.684 55.7179C189.732 55.549 189.778 55.4587 189.807 55.217C189.831 55.1325 189.816 54.9025 189.755 54.7627C189.695 54.6229 189.634 54.4831 189.571 54.4219C189.508 54.3608 189.423 54.3054 189.38 54.3171C189.29 54.419 189.223 54.5151 189.133 54.617C188.878 55.2314 188.546 55.476 188.035 55.2225C187.801 55.1293 187.583 55.1875 187.365 55.2457C187.126 55.3097 186.847 55.2281 186.53 55.0009C186.234 54.7679 185.898 54.4679 185.639 54.4591C185.573 54.4766 185.469 54.3484 185.384 54.2931C185.195 54.1096 185.004 54.0047 184.81 53.9785C184.701 54.0076 184.575 53.8852 184.413 53.5387C184.291 53.2591 184.185 53.2095 184.098 53.2328C183.948 53.1949 183.802 52.9998 183.642 52.5746C183.503 52.1436 183.338 51.8756 183.19 51.7591C183.188 51.8378 183.145 51.8494 183.142 51.928L183.123 51.8552C183.166 51.8436 183.188 51.8378 183.232 51.8261C183.299 51.73 183.367 51.6339 183.454 51.6107C183.998 51.4651 184.543 51.3196 185.085 51.2528C185.259 51.2062 185.414 51.0868 185.663 51.4101C185.685 51.4043 185.704 51.4771 185.724 51.5499C185.743 51.6227 185.763 51.6955 185.741 51.7013C185.717 51.7858 185.693 51.8702 185.628 51.8877C185.449 52.0915 185.19 52.0827 184.933 51.9953C184.696 51.9807 184.481 51.9603 184.343 52.2311C184.36 52.3825 184.382 52.3767 184.426 52.3651C185.013 52.2079 185.601 52.0508 186.23 51.9606C186.404 51.914 186.559 51.7947 186.634 51.4627C186.752 51.1191 186.909 50.9211 187.146 50.9357C187.427 50.9387 187.688 50.8688 187.969 50.8718C187.991 50.8659 188.01 50.9388 188.032 50.9329C188.092 51.0727 188.09 51.1514 188.047 51.163C187.89 51.361 187.754 51.5532 187.578 51.6784C187.68 51.8851 187.726 51.7949 187.791 51.7774C188.812 51.5825 189.792 51.3206 190.774 50.98C191.1 50.8927 191.427 50.8054 191.775 50.7123C191.993 50.6541 192.252 50.6628 192.565 51.0473C192.773 51.3036 192.947 51.257 193.1 51.2163C193.385 51.062 193.688 51.0591 194.012 51.0505C194.314 51.0476 194.597 50.9719 194.839 50.8293C195.168 50.6634 195.555 50.7158 195.962 50.8411C195.964 50.7625 195.986 50.7567 196.01 50.6722L196.032 50.6664C195.988 50.6781 195.964 50.7625 195.921 50.7741C196.064 51.0479 196.19 51.1702 196.318 51.214C196.405 51.1907 196.512 51.2402 196.599 51.2169C196.773 51.1703 196.967 51.1966 197.231 51.7499C197.292 51.8897 197.42 51.9334 197.486 51.916C197.616 51.8811 197.749 51.7675 197.86 51.6598C198.105 51.4385 198.346 51.2958 198.668 51.3658C198.69 51.36 198.712 51.3542 198.712 51.3542C198.714 51.2755 198.738 51.1911 198.719 51.1183C198.699 51.0455 198.66 50.8998 198.619 50.8329C198.537 50.6989 198.432 50.5707 198.35 50.4368C198.226 50.2358 198.146 50.0232 198.173 49.8601C198.167 49.3156 198.035 48.6487 197.945 48.0487C197.874 47.5216 197.738 47.012 197.536 46.5198C197.415 46.2402 197.274 45.8878 197.174 45.6024C197.016 45.0986 196.839 44.522 196.77 43.9162C196.74 43.4561 196.645 43.0134 196.463 42.5941C196.322 42.2417 196.184 41.8106 196.108 41.4408C196.013 40.9981 195.855 40.4943 195.695 40.0691C195.595 39.7837 195.493 39.5769 195.391 39.3701C195.29 39.1634 195.144 38.9682 195.042 38.7614C194.899 38.4877 194.773 38.3653 194.645 38.3216C194.325 38.1731 194.064 38.2429 193.783 38.2399C193.26 38.3796 192.718 38.4465 192.176 38.5134C191.417 38.6385 190.616 38.6966 189.856 38.8217C189.725 38.8566 189.617 38.8857 189.467 38.8478C188.994 38.74 188.581 38.8506 188.167 38.9612C187.492 39.1416 186.798 39.2492 186.103 39.3569C185.842 39.4267 185.523 39.2781 185.242 39.2752C184.961 39.2722 184.68 39.2692 184.439 39.4119C184.153 39.5662 183.851 39.5691 183.507 39.5049C183.313 39.4787 183.12 39.4524 182.946 39.499C182.36 39.5775 181.796 39.6502 181.211 39.7288C181.058 39.7695 180.886 39.7374 180.715 39.7054C180.395 39.5568 180.134 39.6266 179.872 39.6965C179.48 39.8013 179.11 39.9002 178.643 39.6351C178.515 39.5914 178.386 39.5477 178.319 39.6438C178.118 39.8534 177.818 39.7777 177.501 39.5505C177.494 39.7863 177.448 39.8766 177.341 39.8271C177.319 39.8329 177.3 39.7601 177.281 39.6873C177.261 39.6145 177.242 39.5417 177.263 39.5359C177.309 39.4456 177.394 39.5009 177.501 39.5505ZM165.911 37.7342C165.93 37.807 165.95 37.8798 165.928 37.8856C165.977 38.4185 165.929 38.5874 165.725 38.1739C165.541 37.8331 165.415 37.7108 165.284 37.7457C164.892 37.8505 164.805 37.8738 164.359 37.6029C164.448 36.7991 164.716 36.4934 165.062 36.4789C165.106 36.4673 165.19 36.5226 165.253 36.5838C165.501 36.9857 165.694 37.0119 165.905 37.1896C165.905 37.1896 165.964 37.408 165.983 37.4808C165.979 37.6381 165.935 37.6497 165.911 37.7342ZM167.531 36.989C167.568 37.2132 167.626 37.4316 167.643 37.583C167.68 37.8073 167.654 37.9704 167.569 37.915C167.547 37.9208 167.525 37.9267 167.525 37.9267C167.21 37.6208 166.932 37.5392 166.653 37.4577C166.632 37.4635 166.612 37.3907 166.59 37.3965C166.527 37.3353 166.447 37.1227 166.43 36.9713C166.381 36.4384 166.431 36.1908 166.642 36.3685C166.916 36.6074 167.131 36.6278 167.366 36.721C167.41 36.7094 167.49 36.922 167.531 36.989ZM188.652 56.3059C188.869 56.2477 188.911 56.3147 189.129 56.9583C189.248 57.3165 189.411 57.6631 189.55 58.0941C189.569 58.1669 189.586 58.3184 189.584 58.397C189.603 58.4698 189.582 58.4756 189.56 58.4815C189.388 58.4494 189.18 58.1931 188.991 58.0096C188.845 57.8144 188.626 57.1708 188.573 56.7952C188.575 56.7165 188.558 56.5651 188.579 56.5593C188.584 56.402 188.63 56.3118 188.652 56.3059ZM161.511 37.5063C161.685 37.4597 161.876 37.5646 162.066 37.7481C162.087 37.7422 162.107 37.8151 162.148 37.882C162.167 37.9548 162.228 38.0946 162.226 38.1733C162.202 38.2577 162.197 38.415 162.154 38.4266C161.955 38.5576 161.679 38.3974 161.403 38.2372C161.381 38.243 161.34 38.176 161.342 38.0974C161.323 38.0246 161.306 37.8732 161.308 37.7945C161.376 37.6984 161.443 37.6024 161.511 37.5063ZM168.268 34.6856C168.264 34.8428 168.242 34.8487 168.24 34.9273C167.93 35.166 167.582 35.2592 167.195 35.2067C167.173 35.2125 167.112 35.0727 167.049 35.0115C167.052 34.9329 167.034 34.7815 167.056 34.7757C167.409 34.5253 167.738 34.3593 168.268 34.6856ZM186.295 56.39C186.338 56.3783 186.36 56.3725 186.404 56.3609C186.469 56.3434 186.554 56.3988 186.656 56.6055C186.716 56.7453 186.729 57.054 186.637 57.2345C186.521 57.4995 186.328 57.4733 186.097 57.2228C186.076 57.2286 186.056 57.1558 186.015 57.0888C185.996 57.016 185.957 56.8704 185.959 56.7918C186.033 56.4598 186.184 56.4977 186.295 56.39ZM155.535 67.4216C155.555 67.4944 155.613 67.7128 155.591 67.7186C155.512 68.2078 155.294 68.266 154.979 67.9602C154.957 67.966 154.938 67.8932 154.919 67.8204C154.899 67.7476 154.88 67.6748 154.901 67.669C154.995 67.4098 155.131 67.2177 155.264 67.1041C155.285 67.0983 155.329 67.0866 155.37 67.1536C155.453 67.2876 155.494 67.3546 155.535 67.4216ZM187.172 57.4035C187.153 57.3307 187.116 57.1065 187.08 56.8823C187.048 56.5008 187.135 56.4775 187.243 56.4484C187.287 56.4367 187.391 56.5649 187.43 56.7105C187.489 56.9289 187.525 57.1532 187.499 57.3162C187.492 57.5521 187.465 57.7152 187.398 57.8113C187.393 57.9685 187.27 57.7676 187.172 57.4035ZM175.815 35.1645C176.03 35.1849 176.246 35.2053 176.48 35.2986C176.543 35.3597 176.563 35.4325 176.58 35.584C176.6 35.6568 176.578 35.6626 176.556 35.6684C176.358 35.7994 176.142 35.779 175.888 35.613C175.866 35.6188 175.808 35.4004 175.788 35.3276C175.769 35.2548 175.812 35.2431 175.815 35.1645ZM167.865 36.6658C167.806 36.4473 167.792 36.2173 167.837 36.127C167.84 36.0484 167.903 36.1096 167.944 36.1765C167.985 36.2435 168.046 36.3833 168.044 36.4619C168.08 36.6862 168.095 36.9163 168.049 37.0065C167.986 36.9454 167.882 36.8172 167.865 36.6658ZM188.46 59.1656C188.457 59.2442 188.475 59.3957 188.453 59.4015C188.385 59.4976 188.281 59.3694 188.138 59.0957C188.097 59.0287 188.079 58.8772 188.082 58.7986C188.11 58.5569 188.258 58.6734 188.401 58.9472C188.421 59.02 188.44 59.0928 188.46 59.1656ZM156.443 67.413C156.527 67.4683 156.571 67.4567 156.634 67.5179C156.719 67.5732 156.797 67.8644 156.811 68.0945C156.785 68.2576 156.761 68.342 156.635 68.2197C156.572 68.1585 156.489 68.0246 156.472 67.8731C156.455 67.7217 156.46 67.5644 156.443 67.413ZM162.907 35.5728C162.968 35.7126 162.963 35.8699 162.917 35.9602C162.852 35.9776 162.789 35.9165 162.75 35.7708C162.711 35.6252 162.696 35.3952 162.74 35.3835C162.786 35.2933 162.849 35.3544 162.907 35.5728ZM159.823 38.3476C159.76 38.2864 159.695 38.3039 159.632 38.2427C159.59 38.1757 159.53 38.0359 159.51 37.9631C159.491 37.8903 159.495 37.7331 159.517 37.7272C159.607 37.6253 159.733 37.7477 159.878 37.9428C159.9 37.937 159.919 38.0098 159.939 38.0826C159.958 38.1554 159.956 38.234 159.956 38.234C159.891 38.2515 159.847 38.2631 159.823 38.3476ZM170.595 37.106C170.615 37.1788 170.612 37.2574 170.612 37.2574C170.569 37.2691 170.545 37.3535 170.46 37.2982C170.416 37.3098 170.377 37.1642 170.339 37.0186C170.319 36.9458 170.341 36.9399 170.363 36.9341C170.452 36.8322 170.556 36.9604 170.595 37.106ZM162.61 37.6026C162.632 37.5967 162.675 37.5851 162.716 37.6521C162.758 37.7191 162.797 37.8647 162.816 37.9375C162.833 38.0889 162.768 38.1064 162.707 37.9666C162.666 37.8996 162.627 37.754 162.608 37.6812L162.61 37.6026ZM169.898 37.2922C169.94 37.3592 170.003 37.4204 170.022 37.4932C170.061 37.6388 170.039 37.6446 169.996 37.6563C169.974 37.6621 169.955 37.5893 169.933 37.5951C169.872 37.4553 169.874 37.3767 169.898 37.2922ZM187.36 59.8498C187.401 59.9168 187.442 59.9837 187.462 60.0566C187.462 60.0566 187.459 60.1352 187.437 60.141C187.413 60.2254 187.372 60.1585 187.333 60.0128C187.314 59.94 187.338 59.8556 187.36 59.8498ZM166.419 34.3999C166.441 34.3941 166.463 34.3882 166.482 34.461C166.543 34.6008 166.541 34.6795 166.497 34.6911C166.453 34.7027 166.434 34.6299 166.395 34.4843C166.376 34.4115 166.397 34.4057 166.419 34.3999ZM179.53 50.6315C179.486 50.6431 179.445 50.5761 179.406 50.4305C179.387 50.3577 179.408 50.3519 179.43 50.3461C179.474 50.3344 179.515 50.4014 179.554 50.547C179.554 50.547 179.552 50.6257 179.53 50.6315ZM190.91 58.1206C190.932 58.1148 190.973 58.1818 190.973 58.1818C191.012 58.3274 191.009 58.406 190.988 58.4118C190.966 58.4176 190.946 58.3448 190.925 58.3506C190.864 58.2109 190.866 58.1322 190.91 58.1206ZM169.168 34.2111C169.19 34.2052 169.209 34.2781 169.231 34.2722C169.27 34.4178 169.289 34.4907 169.246 34.5023C169.224 34.5081 169.205 34.4353 169.183 34.4411C169.144 34.2955 169.166 34.2897 169.168 34.2111ZM178.607 50.41L178.605 50.4886L178.564 50.4217L178.607 50.41ZM188.423 57.4591L188.421 57.5377L188.38 57.4707L188.423 57.4591ZM165.83 35.3375L165.828 35.4161L165.789 35.2705L165.83 35.3375Z" fill="#E3311D"/>
<path d="M192.775 59.3382C192.971 59.2858 193.145 59.2392 193.341 59.1869C193.907 59.0355 194.451 58.89 194.998 58.6659C195.129 58.6309 195.237 58.6018 195.368 58.5669C195.501 58.4534 195.508 58.2175 195.372 57.7078C195.333 57.5622 195.274 57.3438 195.257 57.1924C195.24 57.0409 195.245 56.8837 195.269 56.7992C195.336 56.7032 195.404 56.6071 195.491 56.5838C195.624 56.4702 195.757 56.3567 195.87 56.1703C195.916 56.0801 195.943 55.917 195.906 55.6927C195.887 55.6199 195.848 55.4743 195.828 55.4015C195.809 55.3287 195.787 55.3345 195.765 55.3403C195.743 55.3462 195.702 55.2792 195.722 55.352C195.444 55.9722 194.95 55.8702 194.495 55.9138C194.408 55.9371 194.282 55.8148 194.176 55.7652C194.048 55.7215 193.921 55.5992 193.793 55.5555C193.602 55.4506 193.532 55.6253 193.569 55.8496C193.644 56.2194 193.768 56.4204 193.872 56.5486C193.996 56.7495 194.122 56.8718 194.204 57.0058C194.287 57.1398 194.367 57.3524 194.469 57.5592C194.61 57.9116 194.637 58.4503 194.528 58.4794C194.395 58.593 194.243 58.6337 194.013 58.3832C193.908 58.2551 193.782 58.1327 193.676 58.0832C193.528 57.9667 193.397 58.0016 193.347 58.2491C193.222 58.8286 193 59.0441 192.775 59.3382Z" fill="#E3311D"/>
<path d="M176.545 33.097C176.608 33.1582 176.673 33.1407 176.736 33.2019C177.09 33.6533 177.31 33.5165 177.472 33.1612C177.566 32.9021 177.721 32.7827 177.856 32.5905C177.945 32.4886 178.054 32.4595 178.102 32.2906C178.199 31.9528 178.375 31.8276 178.53 31.7083C178.552 31.7025 178.556 31.5452 178.537 31.4724C178.517 31.3996 178.457 31.2598 178.435 31.2656C178.205 31.0151 177.977 30.686 177.746 30.4355C177.579 30.2462 177.449 30.2811 177.5 30.7354C177.601 31.7227 177.439 32.0779 177.134 32.1594C176.938 32.2118 176.764 32.2584 176.588 32.3835C176.392 32.4359 176.196 32.4883 176.041 32.6077C175.865 32.7329 175.749 32.9979 175.754 33.5424L175.793 33.688C175.813 33.7609 175.854 33.8278 175.854 33.8278C176.13 33.9881 176.348 33.9298 176.507 33.6532C176.512 33.496 176.519 33.2601 176.545 33.097Z" fill="#E3311D"/>
<path d="M178.037 35.2726C178.448 35.2407 178.842 35.0573 179.292 35.1709C179.399 35.2205 179.486 35.1972 179.554 35.1011C179.824 34.7167 180.192 34.6964 180.48 34.4635C180.523 34.4519 180.588 34.4344 180.613 34.3499C180.637 34.2655 180.641 34.1082 180.624 33.9568C180.607 33.8054 180.466 33.453 180.381 33.3976C180.338 33.4093 180.296 33.3423 180.253 33.3539C179.709 33.4994 179.167 33.5663 178.622 33.7118C178.513 33.7409 178.405 33.77 178.337 33.8661C178.134 34.1544 178.055 34.6436 178.037 35.2726Z" fill="#E3311D"/>
<path d="M182.635 33.8873C182.787 33.8465 182.896 33.8174 183.005 33.7883C183.508 33.5758 184.011 33.3633 184.514 33.1508C184.58 33.1334 184.645 33.1159 184.63 32.8858C184.63 32.8858 184.591 32.7402 184.569 32.746C184.506 32.6849 184.441 32.7023 184.398 32.714C184.09 32.8741 183.783 33.0342 183.437 33.0487C183.157 33.0458 182.954 33.334 182.734 33.4709C182.688 33.5611 182.685 33.6397 182.635 33.8873Z" fill="#E3311D"/>
<path d="M185.861 32.1668C185.752 32.1959 185.641 32.3036 185.532 32.3327C185.51 32.3385 185.508 32.4171 185.508 32.4171C185.525 32.5686 185.566 32.6356 185.61 32.6239C185.849 32.5599 186.089 32.4959 186.328 32.4318C186.35 32.426 186.352 32.3474 186.352 32.3474C186.335 32.196 186.294 32.129 186.25 32.1406C186.12 32.1755 185.991 32.1318 185.861 32.1668Z" fill="#E3311D"/>
<path d="M173.507 71.1202C173.633 71.2425 173.678 71.1523 173.766 71.129C173.874 71.0999 173.942 71.0038 174.031 70.9019C174.053 70.8961 174.036 70.7446 174.017 70.6718C174.017 70.6718 173.975 70.6049 173.954 70.6107C173.803 70.5728 173.673 70.6077 173.581 70.7882C173.557 70.8727 173.533 70.9571 173.509 71.0416C173.489 70.9688 173.509 71.0416 173.507 71.1202Z" fill="#E3311D"/>
<path d="M165.085 71.0314C165.172 71.0081 165.259 70.9848 165.346 70.9615C165.346 70.9615 165.348 70.8829 165.329 70.8101C165.309 70.7373 165.29 70.6645 165.268 70.6703C165.016 70.4256 164.84 70.5508 164.685 70.6702C164.685 70.6702 164.683 70.7488 164.702 70.8216C164.722 70.8944 164.763 70.9614 164.763 70.9614C164.85 70.9381 164.978 70.9819 165.085 71.0314Z" fill="#E3311D"/>
<path d="M173.96 38.0006C173.938 38.0064 173.893 38.0967 173.869 38.1811C173.869 38.1811 173.866 38.2598 173.886 38.3326C173.905 38.4054 173.925 38.4782 173.946 38.4724C174.07 38.6733 174.138 38.5772 174.205 38.4811C174.227 38.4753 174.232 38.3181 174.212 38.2453C174.193 38.1725 174.13 38.1113 174.089 38.0443C174.047 37.9773 174.026 37.9831 173.96 38.0006Z" fill="#E3311D"/>
<path d="M180.892 29.9847C180.921 29.743 180.969 29.5741 180.976 29.3382C180.997 29.3324 180.958 29.1868 180.958 29.1868C180.917 29.1198 180.876 29.0528 180.835 28.9858C180.791 28.9975 180.726 29.0149 180.682 29.0266C180.593 29.1285 180.627 29.4313 180.812 29.7721C180.851 29.9177 180.851 29.9177 180.892 29.9847Z" fill="#E3311D"/>
<path d="M191.584 60.9047C191.565 60.8319 191.526 60.6863 191.526 60.6863C191.358 60.497 191.25 60.5261 191.138 60.6338C191.095 60.6454 191.112 60.7969 191.153 60.8639C191.173 60.9367 191.194 60.9308 191.216 60.925C191.364 61.0415 191.473 61.0124 191.584 60.9047Z" fill="#E3311D"/>
<path d="M190.552 60.0105C190.765 60.1095 191 60.2028 191.157 60.0048C191.179 59.999 191.181 59.9203 191.181 59.9203C191.164 59.7689 191.123 59.7019 191.079 59.7136C191.035 59.7252 190.951 59.6698 190.927 59.7543C190.774 59.795 190.682 59.9756 190.552 60.0105Z" fill="#E3311D"/>
<path d="M176.604 30.3509C176.641 30.5751 176.677 30.7994 176.736 31.0178C176.775 31.1634 176.877 31.3702 176.92 31.3585C176.942 31.3527 176.966 31.2683 176.988 31.2624C177.012 31.178 176.934 30.8868 176.893 30.8198C176.791 30.613 176.708 30.479 176.604 30.3509Z" fill="#E3311D"/>
<path d="M198.732 57.2774C198.885 57.2367 199.037 57.1959 199.19 57.1552C199.015 57.2018 198.863 57.2425 198.732 57.2774Z" fill="#E3311D"/>
<path d="M192.697 60.5292C192.757 60.669 192.869 60.5613 192.851 60.4099L192.791 60.2701C192.747 60.2817 192.682 60.2992 192.638 60.3108C192.658 60.3836 192.697 60.5292 192.697 60.5292Z" fill="#E3311D"/>
<path d="M176.604 30.3509C176.454 30.313 176.304 30.2751 176.154 30.2372L176.173 30.31C176.323 30.3479 176.473 30.3858 176.604 30.3509Z" fill="#E3311D"/>
<path d="M187.725 65.0567C187.747 65.0509 187.766 65.1237 187.788 65.1179C187.851 65.1791 187.854 65.1004 187.812 65.0334C187.812 65.0334 187.791 65.0393 187.769 65.0451C187.728 64.9781 187.747 65.0509 187.725 65.0567Z" fill="#E3311D"/>
<path d="M188.109 65.9683C188.128 66.0411 188.15 66.0353 188.15 66.0353C188.172 66.0295 188.194 66.0236 188.174 65.9508C188.157 65.7994 188.116 65.7324 188.092 65.8169C188.092 65.8169 188.111 65.8897 188.109 65.9683Z" fill="#E3311D"/>
<path d="M171.36 71.3819C171.339 71.3878 171.276 71.3266 171.254 71.3324C171.254 71.3324 171.273 71.4052 171.271 71.4838C171.293 71.478 171.356 71.5392 171.378 71.5334C171.378 71.5334 171.339 71.3878 171.36 71.3819Z" fill="#E3311D"/>
<path d="M197.161 54.8892C197.222 55.029 197.304 55.163 197.345 55.23C197.387 55.2969 197.411 55.2125 197.432 55.2067C197.432 55.2067 197.413 55.1339 197.393 55.0611C197.374 54.9883 197.352 54.9941 197.33 54.9999C197.267 54.9387 197.204 54.8776 197.161 54.8892Z" fill="#E3311D"/>
<path d="M174.804 71.0855C174.782 71.0913 174.76 71.0971 174.76 71.0971C174.758 71.1758 174.777 71.2486 174.843 71.2311C174.843 71.2311 174.823 71.1583 174.804 71.0855Z" fill="#E3311D"/>
<path d="M179.474 30.4417L179.433 30.3747L179.45 30.5261L179.474 30.4417Z" fill="#E3311D"/>
<path d="M192.059 59.4516L192.017 59.3846L192.015 59.4633L192.059 59.4516Z" fill="#E3311D"/>
<path d="M192.18 56.0648C192.158 56.0707 192.177 56.1435 192.156 56.1493C192.175 56.2221 192.175 56.2221 192.197 56.2163C192.197 56.2163 192.219 56.2105 192.221 56.1318C192.199 56.1376 192.18 56.0648 192.18 56.0648Z" fill="#E3311D"/>
<path d="M178.766 32.5033L178.764 32.582L178.785 32.5761L178.766 32.5033Z" fill="#E3311D"/>
<path d="M180.892 29.9847C180.909 30.1361 180.926 30.2876 180.965 30.4332L180.967 30.3546C180.928 30.2089 180.89 30.0633 180.892 29.9847Z" fill="#E3311D"/>
<path d="M173.372 34.4914L173.331 34.4244C173.331 34.4244 173.287 34.436 173.328 34.503C173.326 34.5816 173.348 34.5758 173.372 34.4914Z" fill="#E3311D"/>
<path d="M194.702 54.7665L194.741 54.9121L194.743 54.8335L194.702 54.7665Z" fill="#E3311D"/>
<path d="M196.39 52.4429L196.388 52.5215L196.368 52.4487L196.39 52.4429Z" fill="#E3311D"/>
<path d="M32.8815 17.3862C33.0063 16.7636 33.244 16.2931 33.4128 15.8088C33.4972 15.5666 33.5376 15.1861 33.666 15.0823C33.7599 14.9716 33.8383 15.1169 33.8823 15.2552C33.9892 15.7948 34.2055 15.9677 34.4812 16.0229C34.8009 16.2166 35.136 16.1542 35.5615 15.4623C35.9276 14.888 36.1439 15.0609 36.2009 15.8495C36.2139 16.4998 36.3613 16.6589 36.6275 16.5827C36.8248 16.4927 37.0316 16.5342 37.2383 16.5756C37.5485 16.6378 37.8242 16.6931 38.2093 16.3817C38.5254 16.0564 38.7417 16.2293 38.983 16.2777C39.8351 16.319 40.6872 16.3602 41.5393 16.4015C41.6427 16.4222 41.796 16.1939 41.9149 15.9587C42.2025 15.2391 42.4343 15.156 42.6506 15.3289C43.1616 15.82 43.713 15.9305 44.2989 16.0479C44.4712 16.0825 44.6685 15.9925 44.8313 15.8956C44.9347 15.9163 45.1974 15.3213 45.1879 15.1899C45.2033 14.9339 45.1843 14.671 45.1404 14.5327C45.0275 14.3805 44.9146 14.2283 44.7767 14.2007C44.3192 13.9794 43.8022 13.8758 43.2948 13.9036C42.8907 13.9522 42.4866 14.0007 42.1325 13.8002C41.6749 13.5789 41.2019 13.6136 40.654 14.0219C40.3629 14.2226 40.1216 14.1743 39.9553 13.7523C39.7449 13.192 39.4597 13.0053 39.0651 13.1853C38.9713 13.296 38.8928 13.1507 38.8239 13.1369C38.4163 12.6666 37.8494 12.812 37.3919 12.5908C36.9783 12.5079 36.5897 12.3004 36.2011 12.093C35.8814 11.8994 35.5522 11.5743 35.1826 11.6298C34.3994 11.6023 33.6816 11.0698 32.9234 10.9178C32.5788 10.8488 32.5812 9.94248 32.4648 9.27146C32.4648 9.27146 32.5397 8.89786 32.5991 8.78024C32.7274 8.67644 32.8808 8.4481 32.9842 8.46883C33.122 8.49646 33.2848 8.39956 33.3977 8.55173C33.7709 9.01514 34.2094 8.97351 34.6824 8.93879C35.1899 8.91098 35.7318 8.89008 36.2393 8.86227C36.2737 8.86918 36.3581 8.62702 36.4175 8.5094C36.4175 8.5094 36.4675 8.26033 36.433 8.25342C36.3201 8.10126 36.2667 7.83147 36.1538 7.6793C36.1193 7.6724 36.1098 7.54095 36.1098 7.54095C36.1597 7.29189 36.2191 7.17427 36.2881 7.18809C36.3915 7.20881 36.4949 7.22954 36.6327 7.25717C37.0808 7.34698 37.5288 7.4368 38.0672 6.89704C38.1611 6.78632 38.2645 6.80706 38.3334 6.82087C38.4368 6.8416 38.4998 7.24283 38.3904 7.60951C38.3155 7.98311 38.2216 8.09382 38.0933 8.19763C37.827 8.2738 37.5359 8.47451 37.2697 8.55068C37.1413 8.65448 36.9725 9.13879 36.9321 9.51929C36.8762 10.1558 36.8453 10.6677 37.0521 10.7092C37.2339 10.8752 37.4751 10.9235 37.7069 10.8404C38.2987 10.5705 38.7907 10.7986 39.2827 11.0268C39.568 11.2135 39.8686 11.1442 40.2287 10.9574C40.7517 10.6736 41.2841 10.5212 41.6572 10.9846C41.7012 11.123 41.8296 11.0192 41.8985 11.033C43.371 11.1986 44.7091 11.8555 46.2565 11.6475C46.3599 11.6682 46.4632 11.689 46.5916 11.5852C46.6261 11.5921 46.7105 11.3499 46.7699 11.2323C46.7948 11.1078 46.8103 10.8518 46.8008 10.7204C46.6808 9.53048 46.3517 9.20542 45.8382 9.62064C45.8038 9.61373 45.7443 9.73135 45.7443 9.73135C45.4032 10.1811 45.2214 10.0151 45.0551 9.59318C44.8447 9.03288 44.6938 8.35494 44.7806 7.20652C44.852 6.31407 44.6951 6.02355 44.4539 5.97519C43.9714 5.87847 43.5044 5.52578 42.947 5.80266C42.9125 5.79575 42.7936 6.031 42.7687 6.15553C42.7437 6.28006 42.7282 6.53603 42.7377 6.66748C43.042 7.11707 43.3117 7.55975 43.6159 8.00934C43.7728 8.29986 43.8358 8.70109 43.8143 9.34447C43.8238 9.47591 43.7145 9.8426 43.68 9.83569C43.5517 9.93949 43.3983 10.1678 43.2949 10.1471C42.6901 9.76678 42.0103 9.76005 41.3305 9.75331C41.2616 9.7395 41.1831 9.59424 41.1142 9.58042C41.0453 9.5666 41.0762 9.05466 41.1606 8.8125C41.2699 8.44581 41.4138 8.08603 41.4982 7.84388C41.6919 7.23504 41.7727 6.47402 41.6599 6.32186C41.4246 5.88609 41.1893 5.45031 40.8946 5.13216C40.6343 4.82092 40.2897 4.75183 39.8951 4.93181C39.6978 5.0218 39.535 5.1187 39.3377 5.20868C38.8148 5.49247 38.3073 5.52028 37.9342 5.05687C37.7084 4.75254 37.3827 4.94634 37.0167 5.52064C36.8978 5.75588 36.735 5.85278 36.6066 5.95658C36.5722 5.94967 36.5282 5.81133 36.4937 5.80442C36.4593 5.79751 36.4842 5.67297 36.4747 5.54153C36.6709 4.02642 36.3857 3.83971 36.0066 3.76372C35.7309 3.70845 35.4302 3.77772 35.2543 3.22432C35.2199 3.21741 35.2448 3.09288 35.2698 2.96834C35.2948 2.84381 35.3447 2.59475 35.4041 2.47713C35.4635 2.3595 35.5574 2.24879 35.5919 2.25569C35.6513 2.13807 35.7203 2.15189 35.7892 2.16571C35.8926 2.18643 35.996 2.20716 36.1338 2.2348C37.1808 3.09234 38.437 3.08509 39.5838 3.44451C40.4799 3.62414 41.3165 3.92138 42.2126 4.10101C42.4883 4.15628 42.7391 4.33609 42.8805 4.88257C43.0218 5.42906 43.2631 5.47742 43.5293 5.40125C44.0617 5.24891 44.6286 5.10348 45.1611 4.95113C45.5307 4.89569 45.9597 4.72262 46.2544 5.04077C46.2889 5.04768 46.3233 5.05459 46.3233 5.05459C47.2693 4.98515 48.0311 5.656 48.9521 5.71108C49.4596 5.68328 49.8827 5.89762 50.3652 5.99434C50.572 6.03579 50.7882 6.20869 51.02 6.12561C51.518 5.96636 51.9315 6.04926 52.3796 6.13907C53.2756 6.3187 54.2561 6.25617 55.1771 6.31126C56.6496 6.4769 58.1625 6.26202 59.585 6.67672C60.2838 6.94633 61.023 6.83544 61.8466 6.4824C62.2412 6.30242 62.6453 6.25388 62.9899 6.32297C64.6252 6.3917 66.295 6.46735 67.9302 6.53609C69.2898 6.54955 70.6399 6.43158 71.99 6.3136C73.2806 6.31325 74.5463 6.43743 75.7371 6.9352C76.0568 7.12883 76.4109 7.32935 76.6557 7.89656C76.8125 8.18708 76.8006 8.96191 76.6259 9.83363C76.576 10.0827 76.551 10.2072 76.5011 10.4563C76.3168 11.1966 76.2265 11.8261 76.205 12.4695C76.2276 13.2513 76.0873 14.1299 75.8436 14.9878C75.7093 15.479 75.55 16.0948 75.4252 16.7174C75.2255 17.7137 75.0258 18.7099 74.7916 19.6993C74.5075 20.9377 74.2674 22.3145 74.0522 23.5667C73.9524 24.0648 73.9214 24.5768 73.9499 24.9711C73.938 25.7459 74.1198 25.9119 74.3611 25.9603C74.8685 25.9325 75.3665 25.7732 75.874 25.7454C76.8105 25.5445 77.6875 25.4612 78.649 25.1358C79.6105 24.8104 80.4376 24.9762 81.3741 24.7754C81.9065 24.623 82.2797 25.0864 82.6528 25.5498C82.8002 25.7089 82.8037 26.2278 82.7134 26.8573C82.6385 27.2309 82.5386 27.7291 82.5232 27.985C82.4768 28.7529 82.327 29.5001 82.0833 30.358C81.974 30.7247 81.8991 31.0983 81.8931 31.4857C81.9062 32.136 81.7813 32.7587 81.5187 33.3537C81.231 34.0733 81.0717 34.689 81.0004 35.5815C80.954 36.3494 80.8387 37.1035 80.7923 37.8714C80.7519 38.2519 80.7114 38.6324 80.7055 39.0198C80.6436 40.0437 80.7506 40.5833 81.0607 40.6455C81.4303 40.59 81.8344 40.5415 82.1791 40.6106C82.4453 40.5344 82.6865 40.5828 82.9278 40.6311C83.169 40.6795 83.1916 41.4612 82.9824 42.3261C82.6983 43.5645 82.4391 44.6783 82.2584 45.9375C82.193 46.4425 82.0587 46.9337 81.9244 47.4249C81.8245 47.9231 81.6902 48.4143 81.6248 48.9193C81.4536 50.3099 81.0816 51.2716 80.7001 52.1019C80.6751 52.2264 80.6751 52.2264 80.6157 52.344C80.4814 52.8353 80.5348 53.1051 80.5289 53.4925C80.4765 54.6478 80.2518 55.7686 79.8643 56.9863C79.6956 57.4706 79.5018 58.0794 79.333 58.5637C79.1642 59.0481 79.0644 59.5462 79.0335 60.0581C78.9871 60.826 78.8872 61.3242 78.5901 61.9123C78.4118 62.2652 78.2775 62.7564 78.0992 63.1092C78.0148 63.3514 77.8615 63.5797 77.7926 63.5659C77.4325 63.7528 77.1318 63.8221 76.7966 63.8844C76.427 63.9399 76.023 63.9884 75.6534 64.0438C75.7247 63.1514 75.6178 62.6118 75.3171 62.6811C74.9475 62.7365 74.5185 62.9096 74.1239 63.0896C73.7638 63.2765 73.4191 63.2074 73.0745 63.1383C72.7298 63.0692 72.4197 63.007 72.0251 63.187C71.236 63.547 70.4623 63.6509 69.6636 63.8794C68.865 64.108 68.0319 64.3296 67.2332 64.5581C66.6664 64.7035 66.1244 64.7244 65.5575 64.8698C65.119 64.9115 64.7993 64.7179 64.7388 63.4104C64.7103 63.016 64.4191 63.2167 64.2693 63.9639C64.1445 64.5866 64.0007 64.9464 63.8034 65.0364C63.3054 65.1956 62.773 65.348 62.275 65.5072C62.2061 65.4934 62.1717 65.4865 62.1027 65.4727C61.6262 64.9885 60.9749 65.3761 60.408 65.5216C58.9735 65.8817 57.5141 66.3663 56.1545 66.3529C56.0856 66.3391 55.9822 66.3183 55.8883 66.429C55.1087 66.9204 54.4289 66.9137 53.6992 67.156C53.3641 67.2184 53.0634 67.2877 52.7532 67.2255C52.5119 67.1771 52.2362 67.1218 51.9795 67.3295C51.0715 67.9247 50.2134 68.2708 49.2745 69.3779C48.8645 69.8139 48.5044 70.0008 48.1597 69.9317C47.411 69.9111 46.6718 70.022 45.9481 69.877C45.9136 69.87 45.8601 69.6003 45.8946 69.6072C46.1133 68.8738 46.0004 68.7216 45.8626 68.694C45.6463 68.5211 45.4145 68.6042 45.1328 68.9363C44.7228 69.3723 44.3877 69.4346 44.043 69.3655C43.8362 69.3241 43.595 69.2757 43.3882 69.2343C43.1814 69.1928 42.9651 69.0199 42.7833 68.8539C42.2378 68.356 41.6674 67.9826 40.9127 68.3494C40.7499 68.4463 40.5871 68.5432 40.4492 68.5156C40.2425 68.4741 40.0452 68.5641 39.798 68.9032C39.3879 69.3391 39.0123 69.782 38.6273 70.0934C38.5928 70.0865 38.5584 70.0796 38.5489 69.9481C38.4859 69.5469 38.398 69.2702 38.1507 69.6093C37.8441 70.0659 37.5529 70.2666 37.3366 70.0938C37.2237 69.9416 37.0609 70.0385 36.9231 70.0109C36.7852 69.9832 36.6474 69.9556 36.5345 69.8034C36.3526 69.6374 36.2053 69.4784 35.983 69.6929C35.6669 70.0181 35.4256 69.9698 35.1844 69.9214C35.0121 69.8868 34.8397 69.8523 34.7518 69.5756C34.6104 69.0291 34.3442 69.1053 34.103 69.0569C33.5955 69.0847 33.1225 69.1195 32.5342 69.9083C32.2525 70.2404 31.9269 70.4342 31.6856 70.3859C31.316 70.4413 30.9369 70.3653 30.5922 70.2962C30.1787 70.2133 29.7401 70.2549 29.2362 70.8016C28.9545 71.1337 28.7478 71.0923 28.5564 70.7949C28.3651 70.4974 28.1239 70.4491 27.8327 70.6498C27.5415 70.8505 27.3003 70.8021 27.034 70.8783C26.6514 70.2835 26.1689 70.1867 25.6864 70.09C24.2389 69.7998 22.8258 69.5166 21.4033 69.1019C20.9553 69.0121 20.5322 68.7977 20.1436 68.5903C19.9368 68.5489 19.8144 68.2652 19.717 67.8571C19.7075 67.7257 19.7574 67.4766 19.7479 67.3452C19.7479 67.3452 19.8073 67.2275 19.8323 67.103C19.9856 66.8747 20.114 66.7709 20.2328 66.5356C20.3267 66.4249 20.4361 66.0582 20.486 65.8091C20.6607 64.9374 20.7416 64.1764 20.5503 63.879C20.4469 63.8583 20.3435 63.8375 20.2651 63.6923C20.4612 62.1772 20.4612 62.1772 20.0441 61.5754C20.1345 60.9458 20.2498 60.1917 20.3746 59.5691C20.503 59.4653 20.6313 59.3615 20.7597 59.2577C20.8536 59.147 20.9974 58.7872 21.0129 58.5312C21.0034 58.3998 21.0188 58.1438 20.9844 58.1369C20.5613 57.9225 20.1976 57.5906 19.7496 57.5008C19.0258 57.3557 18.2522 57.4597 17.6877 56.6988C17.4964 56.4014 17.2302 56.4776 16.939 56.6783C16.5195 56.9828 16.1653 56.7823 15.8706 56.4641C15.8361 56.4572 15.8516 56.2012 15.9015 55.9522C15.9015 55.9522 15.9609 55.8345 15.9954 55.8414C16.0893 55.7307 16.1927 55.7515 16.2616 55.7653C17.2516 55.8342 18.2915 55.654 19.2066 56.0965C19.2755 56.1104 19.4038 56.0065 19.4728 56.0204C19.5072 56.0273 19.5916 55.7851 19.6415 55.5361C19.6415 55.5361 19.632 55.4046 19.657 55.2801C19.613 55.1417 19.5097 55.121 19.4407 55.1072C18.3818 55.0245 17.4573 54.4505 16.4733 53.9942C16.2225 53.8144 15.9468 53.7591 15.6461 53.8284C15.3799 53.9045 15.1386 53.8562 14.8974 53.8078C14.6217 53.7526 14.3709 53.5728 14.0952 53.5175C14.2141 53.2822 14.3579 52.9225 14.4767 52.6872C14.6206 52.3274 14.7299 51.9607 14.7359 51.5733C14.7668 51.0614 14.6539 50.9092 14.5161 50.8816C14.3437 50.847 14.156 51.0685 13.9432 51.4144C13.7055 51.8849 13.5676 51.8573 13.3953 51.8228C13.0507 51.7537 12.7655 51.567 12.5551 51.0067C12.4577 50.5985 12.3103 50.4394 12.1036 50.398C11.8278 50.3427 11.6864 49.7962 11.5201 49.3743C11.3442 48.8209 11.3906 48.053 11.9694 47.1327C12.0633 47.022 12.1572 46.9113 12.2761 46.676C12.3355 46.5584 12.351 46.3024 12.3415 46.171C12.288 45.9012 12.269 45.6383 12.1656 45.6176C11.8174 45.0296 11.3599 44.8084 10.8619 44.9676C10.2855 44.9816 9.83748 44.8918 9.38945 44.802C8.53734 44.7607 7.83501 43.9723 7.19211 43.0662C7.00079 42.7687 6.82847 42.7342 6.53729 42.9349C6.31504 43.1494 6.08329 43.2325 5.86105 43.447C5.56987 43.6477 5.32862 43.5994 5.1373 43.3019C5.09333 43.1636 5.04936 43.0252 5.08979 42.6447C5.16468 42.2711 5.34296 41.9183 5.47132 41.8145C5.54025 41.8283 5.66861 41.7245 5.73753 41.7383C6.84989 42.0908 8.00268 42.0628 9.06511 42.6644C9.38479 42.858 9.78886 42.8095 10.1585 42.7541C10.5281 42.6986 10.8383 42.7608 11.1579 42.9544C11.3742 43.1273 11.6155 43.1757 11.8817 43.0995C12.6708 42.7395 13.1913 43.362 13.612 44.4826C13.6904 44.6279 13.625 45.1329 13.5157 45.4996C13.4562 45.6172 13.3718 45.8594 13.3124 45.977C13.0153 46.5651 12.9249 47.1947 12.8441 47.9557C12.8096 47.9488 12.7407 47.935 12.6813 48.0526C12.5874 48.1633 12.5624 48.2878 12.6064 48.4262L12.6753 48.44C12.7347 48.3224 12.7597 48.1979 12.8441 47.9557C13.0354 48.2531 13.2766 48.3015 13.5429 48.2253C14.0408 48.0661 14.5982 47.7892 15.0463 47.879C15.0807 47.8859 15.1996 47.6507 15.259 47.533C15.3184 47.4154 15.3494 46.9035 15.3054 46.7651C15.2175 46.4884 15.139 46.3432 15.0511 46.0665C14.9632 45.7898 14.8847 45.6445 14.8218 45.2433C14.7778 45.1049 14.7838 44.7175 14.8682 44.4754C14.9525 44.2332 15.0369 43.9911 15.1308 43.8803C15.2247 43.7696 15.3531 43.6658 15.422 43.6796C15.5694 43.8387 15.6823 43.9909 15.8296 44.15C16.2752 45.146 16.8112 45.5125 17.5908 45.0212C17.9509 44.8343 18.2956 44.9034 18.6402 44.9724C19.0193 45.0484 19.4484 44.8754 19.9273 44.4532C20.3718 44.0242 20.8758 43.4775 21.2798 43.429C21.3832 43.4497 21.5365 43.2214 21.6649 43.1176C21.9466 42.7854 22.2378 42.5847 22.5384 42.5155C22.7108 42.55 22.8985 42.3286 23.1268 41.7266C23.2955 41.2423 23.4584 41.1454 23.5962 41.1731C23.828 41.09 24.0407 40.744 24.2594 40.0107C24.4437 39.2704 24.6814 38.7999 24.9036 38.5854C24.9131 38.7168 24.9821 38.7306 24.9916 38.8621L25.0165 38.7375C24.9476 38.7237 24.9131 38.7168 24.8442 38.703C24.7313 38.5508 24.6184 38.3987 24.4806 38.371C23.6189 38.1983 22.7573 38.0256 21.9052 37.9843C21.6295 37.929 21.3788 37.7492 21.0127 38.3235C20.9782 38.3166 20.9533 38.4412 20.9283 38.5657C20.9033 38.6902 20.8784 38.8148 20.9128 38.8217C20.9568 38.96 21.0008 39.0984 21.1042 39.1191C21.3989 39.4372 21.8029 39.3887 22.1975 39.2087C22.5671 39.1533 22.9023 39.0909 23.1376 39.5267C23.1221 39.7827 23.0876 39.7758 23.0187 39.7619C22.0882 39.5754 21.1576 39.3889 20.1677 39.32C19.8919 39.2647 19.6412 39.0849 19.4998 38.5384C19.2895 37.9781 19.0292 37.6669 18.6596 37.7223C18.2211 37.7639 17.8075 37.681 17.369 37.7227C17.3345 37.7157 17.3095 37.8403 17.2751 37.8334C17.1907 38.0755 17.2002 38.207 17.2691 38.2208C17.5294 38.532 17.7552 38.8364 18.0404 39.0231C17.8966 39.3828 17.8181 39.2376 17.7147 39.2169C16.1044 39.0236 14.5535 38.7127 12.9931 38.2704C12.4762 38.1667 11.9592 38.0631 11.4078 37.9526C11.0631 37.8835 10.659 37.932 10.1991 38.617C9.89245 39.0737 9.61673 39.0184 9.37548 38.9701C8.91795 38.7488 8.44495 38.7836 7.93748 38.8114C7.46448 38.8461 7.01644 38.7563 6.62784 38.5488C6.10137 38.3138 5.50002 38.4523 4.8737 38.7153C4.86419 38.5839 4.82973 38.577 4.78577 38.4386L4.7513 38.4317C4.82023 38.4456 4.86419 38.5839 4.93312 38.5977C4.72988 39.0751 4.54209 39.2966 4.34481 39.3865C4.20695 39.3589 4.04413 39.4558 3.90627 39.4282C3.63056 39.3729 3.32988 39.4422 2.95785 40.4039C2.87346 40.646 2.67617 40.736 2.57278 40.7153C2.36599 40.6738 2.14971 40.5009 1.96788 40.335C1.56977 39.9961 1.18117 39.7886 0.683202 39.9479C0.648738 39.941 0.614274 39.9341 0.614274 39.9341C0.604773 39.8026 0.560808 39.6643 0.585772 39.5398C0.610735 39.4152 0.660662 39.1662 0.72009 39.0485C0.838946 38.8133 0.992266 38.585 1.11112 38.3497C1.28941 37.9968 1.39876 37.6302 1.34529 37.3604C1.31325 36.4472 1.469 35.3126 1.56531 34.2956C1.63666 33.4032 1.81141 32.5314 2.08954 31.6804C2.25833 31.1961 2.45207 30.5873 2.58639 30.0961C2.7956 29.2312 3.02977 28.2419 3.09162 27.218C3.10355 26.4432 3.21886 25.6891 3.47204 24.9626C3.66579 24.3538 3.85003 23.6135 3.94038 22.9839C4.0557 22.2298 4.26491 21.365 4.48362 20.6316C4.61794 20.1404 4.76176 19.7806 4.90558 19.4208C5.0494 19.0611 5.26214 18.7151 5.40596 18.3553C5.60921 17.8779 5.79699 17.6565 5.99428 17.5665C6.48274 17.2758 6.89631 17.3587 7.33485 17.3171C8.16199 17.4829 9.0141 17.5242 9.86621 17.5655C11.063 17.6758 12.3191 17.6686 13.5159 17.7789C13.7227 17.8204 13.895 17.8549 14.1267 17.7718C14.8565 17.5295 15.5113 17.6608 16.1661 17.792C17.2345 18.0062 18.3279 18.0958 19.4212 18.1855C19.8348 18.2684 20.3232 17.9777 20.7618 17.9361C21.2003 17.8944 21.6389 17.8528 22.0275 18.0602C22.485 18.2815 22.958 18.2468 23.4904 18.0944C23.7911 18.0252 24.0918 17.9559 24.3675 18.0112C25.2885 18.0663 26.1751 18.1145 27.0961 18.1696C27.3374 18.2179 27.6036 18.1417 27.8698 18.0656C28.3583 17.7749 28.7719 17.8578 29.1854 17.9407C29.8058 18.065 30.3917 18.1825 31.1024 17.6773C31.2997 17.5873 31.497 17.4973 31.6099 17.6495C31.939 17.9745 32.4025 17.8084 32.8815 17.3862C32.91 17.7806 32.9884 17.9258 33.1512 17.8289C33.1857 17.8358 33.2107 17.7113 33.2356 17.5868C33.2606 17.4622 33.2856 17.3377 33.2511 17.3308C33.1727 17.1855 33.0443 17.2893 32.8815 17.3862ZM50.8592 12.8293C50.8343 12.9538 50.8093 13.0783 50.8438 13.0852C50.8069 13.9846 50.8948 14.2613 51.1824 13.5417C51.4451 12.9467 51.6329 12.7253 51.8397 12.7667C52.46 12.8911 52.5979 12.9187 53.2741 12.4066C53.0757 11.0715 52.6337 10.5942 52.0917 10.6151C52.0228 10.6013 51.8945 10.7051 51.8006 10.8158C51.444 11.5216 51.1433 11.5908 50.8272 11.9161C50.8272 11.9161 50.7523 12.2897 50.7273 12.4142C50.7463 12.6771 50.8153 12.6909 50.8592 12.8293ZM48.2709 11.7922C48.2304 12.1728 48.1555 12.5463 48.1401 12.8023C48.0996 13.1828 48.1531 13.4526 48.2815 13.3488C48.3159 13.3557 48.3504 13.3626 48.3504 13.3626C48.8199 12.8091 49.2489 12.636 49.6779 12.4629C49.7124 12.4698 49.7374 12.3453 49.7718 12.3522C49.8657 12.2415 49.9751 11.8748 49.9905 11.6188C50.0274 10.7195 49.93 10.3113 49.6138 10.6366C49.2038 11.0725 48.8687 11.1349 48.5086 11.3218C48.4396 11.3079 48.3303 11.6746 48.2709 11.7922ZM16.7089 46.9169C16.3643 46.8479 16.3049 46.9655 16.0113 48.0725C15.852 48.6882 15.6238 49.2901 15.4395 50.0304C15.4146 50.1549 15.3991 50.4109 15.4086 50.5424C15.3836 50.6669 15.4181 50.6738 15.4526 50.6807C15.7188 50.6045 16.0254 50.1479 16.3071 49.8157C16.5198 49.4698 16.8134 48.3628 16.8693 47.7263C16.8598 47.5949 16.8753 47.3389 16.8408 47.332C16.8218 47.0691 16.7434 46.9239 16.7089 46.9169ZM57.7189 11.8727C57.4432 11.8174 57.152 12.0181 56.8704 12.3503C56.8359 12.3434 56.8109 12.4679 56.7515 12.5855C56.7265 12.7101 56.6421 12.9522 56.6517 13.0836C56.6956 13.222 56.7146 13.4849 56.7835 13.4987C57.1032 13.6923 57.5228 13.3878 57.9423 13.0833C57.9768 13.0902 58.0362 12.9726 58.0267 12.8411C58.0516 12.7166 58.0671 12.4606 58.0576 12.3292C57.9447 12.177 57.8318 12.0249 57.7189 11.8727ZM46.9459 8.02918C46.9649 8.29207 46.9994 8.29898 47.0089 8.43041C47.5104 8.79002 48.0618 8.90056 48.6632 8.76203C48.6977 8.76894 48.782 8.52678 48.8759 8.41607C48.8664 8.28463 48.8819 8.02866 48.8474 8.02175C48.277 7.64833 47.7505 7.41326 46.9459 8.02918ZM20.399 46.7499C20.3301 46.7361 20.2956 46.7292 20.2267 46.7154C20.1233 46.6946 19.995 46.7984 19.8511 47.1582C19.7667 47.4004 19.7703 47.9192 19.9271 48.2097C20.128 48.6386 20.4286 48.5693 20.7698 48.1196C20.8042 48.1265 20.8292 48.002 20.8886 47.8843C20.9136 47.7598 20.9635 47.5107 20.954 47.3793C20.8126 46.8328 20.5809 46.9159 20.399 46.7499ZM69.3013 61.2161C69.2763 61.3406 69.2014 61.7142 69.2359 61.7211C69.3963 62.5305 69.741 62.5996 70.2104 62.046C70.2449 62.0529 70.2698 61.9284 70.2948 61.8039C70.3198 61.6793 70.3447 61.5548 70.3103 61.5479C70.1439 61.1259 69.9181 60.8216 69.7018 60.6487C69.6674 60.6418 69.5984 60.628 69.539 60.7456C69.4202 60.9808 69.3607 61.0985 69.3013 61.2161ZM19.1035 48.5628C19.1285 48.4383 19.1689 48.0578 19.2094 47.6772C19.2308 47.0339 19.0929 47.0062 18.9206 46.9717C18.8517 46.9579 18.6984 47.1862 18.6484 47.4353C18.5735 47.8089 18.5331 48.1894 18.5866 48.4592C18.6151 48.8535 18.6685 49.1233 18.7814 49.2754C18.8004 49.5383 18.9787 49.1854 19.1035 48.5628ZM35.1874 9.81725C34.8523 9.8796 34.5172 9.94196 34.1571 10.1288C34.0632 10.2396 34.0382 10.3641 34.0227 10.6201C33.9978 10.7446 34.0322 10.7515 34.0667 10.7584C34.3864 10.952 34.7215 10.8897 35.1066 10.5783C35.1411 10.5852 35.2159 10.2116 35.2409 10.087C35.2659 9.96251 35.1969 9.94869 35.1874 9.81725ZM47.7254 11.2943C47.8003 10.9207 47.8062 10.5333 47.7278 10.388C47.7183 10.2566 47.6244 10.3673 47.565 10.4849C47.5056 10.6026 47.4212 10.8447 47.4307 10.9761C47.3902 11.3567 47.3843 11.7441 47.4627 11.8893C47.5566 11.7786 47.7099 11.5503 47.7254 11.2943ZM17.2233 51.6833C17.2328 51.8148 17.2173 52.0708 17.2518 52.0777C17.3647 52.2298 17.518 52.0015 17.7212 51.5241C17.7807 51.4065 17.7961 51.1505 17.7866 51.0191C17.7237 50.6178 17.5014 50.8324 17.2982 51.3098C17.2732 51.4343 17.2482 51.5588 17.2233 51.6833ZM67.8823 61.3202C67.7539 61.4241 67.685 61.4102 67.5911 61.521C67.4628 61.6248 67.3629 62.1229 67.357 62.5103C67.4104 62.7801 67.4544 62.9184 67.6422 62.697C67.7361 62.5863 67.8549 62.351 67.8704 62.0951C67.8858 61.8391 67.8668 61.5762 67.8823 61.3202ZM55.3921 8.81554C55.3077 9.0577 55.3267 9.32058 55.4052 9.46584C55.5086 9.48656 55.6024 9.37585 55.6524 9.12678C55.7023 8.87772 55.7083 8.49031 55.6393 8.47649C55.5609 8.33123 55.467 8.44194 55.3921 8.81554ZM60.4202 13.0619C60.5141 12.9511 60.6175 12.9719 60.7114 12.8612C60.7708 12.7435 60.8552 12.5014 60.8801 12.3769C60.9051 12.2523 60.8861 11.9894 60.8516 11.9825C60.7043 11.8235 60.5165 12.0449 60.3037 12.3908C60.2693 12.3839 60.2443 12.5085 60.2194 12.633C60.1944 12.7575 60.2039 12.889 60.2039 12.889C60.3073 12.9097 60.3762 12.9235 60.4202 13.0619ZM43.4909 12.3885C43.466 12.513 43.4755 12.6445 43.4755 12.6445C43.5444 12.6583 43.5884 12.7966 43.7167 12.6928C43.7856 12.7067 43.8356 12.4576 43.8855 12.2085C43.9105 12.084 43.876 12.0771 43.8415 12.0702C43.6942 11.9111 43.5409 12.1394 43.4909 12.3885ZM56.0087 12.1776C55.9743 12.1706 55.9054 12.1568 55.8459 12.2745C55.7865 12.3921 55.7366 12.6411 55.7116 12.7657C55.6961 13.0216 55.7995 13.0424 55.8839 12.8002C55.9434 12.6826 55.9933 12.4335 56.0182 12.309L56.0087 12.1776ZM44.5938 12.6096C44.5344 12.7272 44.4405 12.8379 44.4155 12.9625C44.3656 13.2115 44.4 13.2184 44.469 13.2322C44.5034 13.2392 44.5284 13.1146 44.5629 13.1215C44.6473 12.8794 44.6377 12.7479 44.5938 12.6096ZM18.994 52.686C18.9346 52.8036 18.8751 52.9212 18.8502 53.0458C18.8502 53.0458 18.8597 53.1772 18.8941 53.1841C18.9381 53.3225 18.9975 53.2048 19.0475 52.9558C19.0724 52.8312 19.0285 52.6929 18.994 52.686ZM49.8149 7.30892C49.7804 7.30201 49.7459 7.29511 49.721 7.41964C49.6366 7.6618 49.6461 7.79324 49.715 7.80705C49.7839 7.82087 49.8089 7.69634 49.8588 7.44728C49.8838 7.32275 49.8493 7.31583 49.8149 7.30892ZM30.5405 36.2178C30.6094 36.2317 30.6689 36.114 30.7188 35.865C30.7437 35.7404 30.7093 35.7335 30.6748 35.7266C30.6059 35.7128 30.5465 35.8304 30.4965 36.0795C30.4965 36.0795 30.506 36.2109 30.5405 36.2178ZM13.3158 50.2524C13.2813 50.2455 13.2219 50.3631 13.2219 50.3631C13.1719 50.6122 13.1814 50.7436 13.2159 50.7505C13.2504 50.7574 13.2753 50.6329 13.3098 50.6398C13.3942 50.3976 13.3847 50.2662 13.3158 50.2524ZM45.5044 7.35161C45.4699 7.3447 45.445 7.46923 45.4105 7.46232C45.3606 7.71139 45.3356 7.83592 45.4045 7.84974C45.439 7.85665 45.464 7.73211 45.4984 7.73902C45.5484 7.48995 45.5139 7.48305 45.5044 7.35161ZM31.9655 35.7263L31.975 35.8577L32.0344 35.7401L31.9655 35.7263ZM17.1521 48.8193L17.1616 48.9507L17.221 48.8331L17.1521 48.8193ZM50.8059 8.80296L50.8154 8.9344L50.8654 8.68534L50.8059 8.80296Z" fill="#E3311D"/>
<path d="M10.4919 52.5361C10.1817 52.4739 9.90603 52.4187 9.59585 52.3565C8.69978 52.1769 7.83817 52.0041 6.96706 51.7C6.76028 51.6585 6.58795 51.624 6.38117 51.5825C6.16488 51.4096 6.13638 51.0153 6.31112 50.1436C6.36105 49.8945 6.43594 49.5209 6.4514 49.265C6.46687 49.009 6.44786 48.7461 6.4039 48.6078C6.291 48.4556 6.17811 48.3034 6.04025 48.2758C5.82397 48.1029 5.60768 47.93 5.41636 47.6326C5.33793 47.4873 5.28446 47.2175 5.32489 46.837C5.34985 46.7125 5.39978 46.4634 5.42474 46.3389C5.4497 46.2144 5.48417 46.2213 5.51863 46.2282C5.5531 46.2351 5.61253 46.1175 5.58756 46.242C6.06764 47.245 6.83182 47.0096 7.54607 47.0232C7.68393 47.0508 7.87171 46.8294 8.03453 46.7325C8.23181 46.6425 8.4196 46.4211 8.61689 46.3311C8.90806 46.1304 9.03046 46.414 8.99003 46.7945C8.89968 47.4241 8.72139 47.777 8.56807 48.0053C8.38979 48.3582 8.20201 48.5796 8.08315 48.8148C7.96429 49.0501 7.85494 49.4168 7.71112 49.7766C7.51737 50.3854 7.51495 51.2917 7.68727 51.3262C7.90356 51.4991 8.14481 51.5475 8.48591 51.0977C8.63923 50.8694 8.82702 50.6479 8.98984 50.551C9.21209 50.3365 9.41887 50.378 9.51631 50.7861C9.75513 51.7407 10.1188 52.0727 10.4919 52.5361Z" fill="#E3311D"/>
<path d="M33.891 6.4485C33.7971 6.55922 33.6937 6.53849 33.5999 6.64921C33.0805 7.45184 32.7263 7.25132 32.4471 6.6772C32.2807 6.25523 32.03 6.07543 31.8042 5.77111C31.6568 5.61203 31.4845 5.57748 31.3966 5.30078C31.2207 4.74738 30.9355 4.56068 30.6847 4.38088C30.6503 4.37397 30.6313 4.11109 30.6562 3.98656C30.6812 3.86203 30.7656 3.61987 30.8 3.62678C31.1412 3.17701 31.4728 2.5958 31.8139 2.14603C32.0611 1.80698 32.2679 1.84844 32.2215 2.61635C32.1382 4.28363 32.4175 4.85775 32.9 4.95447C33.2101 5.01665 33.4858 5.07192 33.7711 5.25863C34.0812 5.32081 34.3914 5.38299 34.6422 5.56279C34.9274 5.74949 35.1282 6.17837 35.1603 7.09154L35.1103 7.3406C35.0854 7.46513 35.0259 7.58276 35.0259 7.58276C34.6064 7.88726 34.2618 7.81818 33.992 7.3755C33.973 7.11262 33.9445 6.7183 33.891 6.4485Z" fill="#E3311D"/>
<path d="M31.7231 10.2886C31.0778 10.2888 30.4479 10.033 29.7527 10.2822C29.5899 10.3791 29.452 10.3515 29.3391 10.1993C28.8876 9.59068 28.3112 9.60467 27.8441 9.25197C27.7752 9.23816 27.6718 9.21743 27.6278 9.07908C27.5839 8.94073 27.5649 8.67785 27.5803 8.42188C27.5958 8.1659 27.7895 7.55706 27.9179 7.45325C27.9868 7.46707 28.0463 7.34945 28.1152 7.36327C28.9768 7.53599 29.8289 7.57726 30.6905 7.74997C30.8628 7.78452 31.0351 7.81906 31.148 7.97123C31.4867 8.42773 31.6471 9.2371 31.7231 10.2886Z" fill="#E3311D"/>
<path d="M24.4322 8.56801C24.1909 8.51965 24.0186 8.4851 23.8463 8.45056C23.0441 8.16022 22.2419 7.86988 21.4397 7.57954C21.3363 7.55882 21.2329 7.53808 21.2389 7.15067C21.2389 7.15067 21.2888 6.90161 21.3233 6.90852C21.4172 6.79781 21.5206 6.81853 21.5895 6.83235C22.0815 7.06051 22.5735 7.28868 23.1154 7.26777C23.554 7.22614 23.8926 7.68264 24.2468 7.88317C24.3252 8.02843 24.3347 8.15987 24.4322 8.56801Z" fill="#E3311D"/>
<path d="M19.2614 6.10659C19.4337 6.14113 19.6155 6.30711 19.7879 6.34166C19.8223 6.34857 19.8318 6.48 19.8318 6.48C19.8164 6.73598 19.7569 6.8536 19.688 6.83978C19.3089 6.76379 18.9298 6.68779 18.5507 6.6118C18.5162 6.60489 18.5067 6.47345 18.5067 6.47345C18.5222 6.21748 18.5816 6.09985 18.6505 6.11367C18.8573 6.15512 19.0546 6.06513 19.2614 6.10659Z" fill="#E3311D"/>
<path d="M41.4902 69.7606C41.3025 69.982 41.224 69.8367 41.0862 69.8091C40.9139 69.7746 40.801 69.6224 40.6536 69.4633C40.6191 69.4564 40.6346 69.2004 40.6596 69.0759C40.6596 69.0759 40.719 68.9583 40.7535 68.9652C40.9852 68.8821 41.192 68.9236 41.3489 69.2141C41.3928 69.3524 41.4368 69.4908 41.4807 69.6291C41.5057 69.5046 41.4807 69.6291 41.4902 69.7606Z" fill="#E3311D"/>
<path d="M54.6463 68.5117C54.5085 68.4841 54.3706 68.4565 54.2327 68.4288C54.2327 68.4288 54.2232 68.2974 54.2482 68.1728C54.2732 68.0483 54.2981 67.9238 54.3326 67.9307C54.7082 67.4878 54.9934 67.6745 55.2441 67.8543C55.2441 67.8543 55.2536 67.9858 55.2287 68.1103C55.2037 68.2348 55.1443 68.3525 55.1443 68.3525C55.0064 68.3248 54.8091 68.4148 54.6463 68.5117Z" fill="#E3311D"/>
<path d="M38.2985 14.327C38.333 14.3339 38.4114 14.4791 38.4554 14.6175C38.4554 14.6175 38.4649 14.7489 38.4399 14.8735C38.415 14.998 38.39 15.1225 38.3556 15.1156C38.1773 15.4685 38.0644 15.3163 37.9515 15.1642C37.917 15.1573 37.898 14.8944 37.923 14.7698C37.9479 14.6453 38.0418 14.5346 38.1013 14.417C38.1607 14.2993 38.1952 14.3063 38.2985 14.327Z" fill="#E3311D"/>
<path d="M26.864 1.80147C26.8011 1.40024 26.7131 1.12355 26.6846 0.72923C26.6502 0.722321 26.7001 0.473255 26.7001 0.473255C26.7595 0.355627 26.819 0.238007 26.8784 0.120387C26.9473 0.134204 27.0507 0.15493 27.1196 0.168747C27.267 0.32782 27.2361 0.839768 26.9734 1.43479C26.9235 1.68385 26.9235 1.68385 26.864 1.80147Z" fill="#E3311D"/>
<path d="M12.4705 55.0053C12.4955 54.8808 12.5454 54.6317 12.5454 54.6317C12.7926 54.2927 12.965 54.3272 13.1468 54.4932C13.2157 54.507 13.2003 54.763 13.1408 54.8806C13.1159 55.0051 13.0814 54.9982 13.0469 54.9913C12.8247 55.2058 12.6524 55.1713 12.4705 55.0053Z" fill="#E3311D"/>
<path d="M14.0168 53.3722C13.6911 53.566 13.331 53.7529 13.0708 53.4417C13.0363 53.4348 13.0268 53.3033 13.0268 53.3033C13.0423 53.0473 13.1017 52.9297 13.1706 52.9435C13.2396 52.9574 13.3679 52.8536 13.4119 52.9919C13.6531 53.0403 13.81 53.3308 14.0168 53.3722Z" fill="#E3311D"/>
<path d="M33.593 1.85499C33.5525 2.23549 33.5121 2.616 33.4372 2.98959C33.3873 3.23866 33.2435 3.59844 33.1745 3.58462C33.1401 3.57771 33.0961 3.43936 33.0617 3.43245C33.0177 3.29411 33.1175 2.79598 33.177 2.67835C33.3208 2.31857 33.4396 2.08332 33.593 1.85499Z" fill="#E3311D"/>
<path d="M1.02616 49.8614C0.784906 49.813 0.543656 49.7647 0.302406 49.7163C0.57812 49.7716 0.819371 49.8199 1.02616 49.8614Z" fill="#E3311D"/>
<path d="M10.7034 54.5215C10.619 54.7637 10.4371 54.5977 10.4526 54.3417L10.537 54.0996C10.6059 54.1134 10.7093 54.1341 10.7783 54.1479C10.7533 54.2725 10.7034 54.5215 10.7034 54.5215Z" fill="#E3311D"/>
<path d="M33.593 1.85499C33.8247 1.77191 34.0565 1.68883 34.2882 1.60575L34.2633 1.73028C34.0315 1.81337 33.7998 1.89644 33.593 1.85499Z" fill="#E3311D"/>
<path d="M18.8129 61.4581C18.7784 61.4512 18.7535 61.5758 18.719 61.5689C18.6251 61.6796 18.6156 61.5481 18.675 61.4305C18.675 61.4305 18.7095 61.4374 18.744 61.4443C18.8034 61.3267 18.7784 61.4512 18.8129 61.4581Z" fill="#E3311D"/>
<path d="M18.2816 63.0356C18.2566 63.1601 18.2222 63.1532 18.2222 63.1532C18.1877 63.1463 18.1532 63.1394 18.1782 63.0149C18.1937 62.7589 18.2531 62.6413 18.2971 62.7796C18.2971 62.7796 18.2721 62.9042 18.2816 63.0356Z" fill="#E3311D"/>
<path d="M44.8642 69.9188C44.8987 69.9257 44.9926 69.8149 45.027 69.8219C45.027 69.8219 45.0021 69.9464 45.0116 70.0778C44.9771 70.0709 44.8832 70.1816 44.8487 70.1747C44.8487 70.1747 44.8987 69.9257 44.8642 69.9188Z" fill="#E3311D"/>
<path d="M3.30342 45.6546C3.21903 45.8967 3.10017 46.132 3.04074 46.2496C2.98131 46.3672 2.93735 46.2289 2.90288 46.222C2.90288 46.222 2.92785 46.0974 2.95281 45.9729C2.97778 45.8484 3.01224 45.8553 3.0467 45.8622C3.1406 45.7515 3.23449 45.6408 3.30342 45.6546Z" fill="#E3311D"/>
<path d="M39.4604 69.8718C39.4949 69.8787 39.5293 69.8856 39.5293 69.8856C39.5388 70.0171 39.5139 70.1416 39.4105 70.1209C39.4105 70.1209 39.4354 69.9963 39.4604 69.8718Z" fill="#E3311D"/>
<path d="M29.1137 2.38198L29.1732 2.26435L29.1577 2.52033L29.1137 2.38198Z" fill="#E3311D"/>
<path d="M11.6197 52.6327L11.6792 52.515L11.6887 52.6465L11.6197 52.6327Z" fill="#E3311D"/>
<path d="M11.1767 46.9738C11.2112 46.9807 11.1862 47.1052 11.2207 47.1121C11.1957 47.2367 11.1957 47.2367 11.1613 47.2298C11.1613 47.2298 11.1268 47.2229 11.1173 47.0914C11.1518 47.0983 11.1767 46.9738 11.1767 46.9738Z" fill="#E3311D"/>
<path d="M30.3757 5.74382L30.3852 5.87526L30.3507 5.86835L30.3757 5.74382Z" fill="#E3311D"/>
<path d="M26.864 1.80147C26.8486 2.05745 26.8331 2.31342 26.7832 2.56249L26.7737 2.43104C26.8236 2.18198 26.8735 1.93292 26.864 1.80147Z" fill="#E3311D"/>
<path d="M38.9549 8.37035L39.0143 8.25273C39.0143 8.25273 39.0832 8.26655 39.0238 8.38417C39.0333 8.51561 38.9988 8.5087 38.9549 8.37035Z" fill="#E3311D"/>
<path d="M7.13734 45.1278L7.08741 45.3768L7.07791 45.2454L7.13734 45.1278Z" fill="#E3311D"/>
<path d="M4.3245 41.455L4.334 41.5865L4.35896 41.462L4.3245 41.455Z" fill="#E3311D"/>
</svg>
