<svg width="61" height="64" viewBox="0 0 61 64" fill="none" xmlns="http://www.w3.org/2000/svg">
<path d="M44.7612 29.1341C44.7178 29.3438 44.7192 29.5693 44.6201 29.7763C44.6092 29.8118 44.5983 29.8474 44.5985 29.8924C44.6107 30.0598 44.5671 30.2245 44.5235 30.3891C44.5018 30.4827 44.469 30.5893 44.492 30.6986C44.5036 30.7758 44.4819 30.8694 44.4824 30.9596C44.4718 31.0402 44.4499 31.1112 44.428 31.1823C44.3508 31.3183 44.296 31.4734 44.23 31.6189C44.197 31.703 44.1415 31.7454 44.0638 31.7912C43.986 31.837 43.897 31.8732 43.8304 31.9286C43.6862 32.0523 43.5415 32.0859 43.3629 32.0682C42.9836 32.0363 42.5824 32.0755 42.2033 32.0886C41.8242 32.1018 41.4564 32.1246 41.0773 32.1378C40.7428 32.1441 40.3971 32.1409 40.0626 32.1472C39.8397 32.1589 39.6055 32.1611 39.3825 32.1728C39.338 32.1797 39.2822 32.177 39.2376 32.1838C38.8359 32.1328 38.4236 32.185 38.0109 32.1695C37.9106 32.1736 37.8213 32.1648 37.7097 32.1594C37.6205 32.1505 37.5424 32.1513 37.4533 32.165C37.4087 32.1718 37.3419 32.1821 37.3084 32.176C36.8957 32.1605 36.4834 32.2126 36.071 32.2422C35.9038 32.2567 35.7477 32.2581 35.5916 32.2596C35.2906 32.272 34.9897 32.307 34.6887 32.3195C34.5215 32.3339 34.3431 32.3388 34.1537 32.3567C34.0423 32.3738 33.9307 32.3684 33.8193 32.3855C33.5186 32.4431 33.2176 32.4555 32.9167 32.4905C32.8053 32.5077 32.6937 32.5023 32.5711 32.5099C32.1363 32.5203 31.6908 32.6114 31.2562 32.667C31.1894 32.6773 31.1228 32.7327 31.1232 32.8003C31.1019 32.9615 31.0694 33.1132 31.0704 33.271C31.0611 33.577 31.0518 33.8831 31.0648 34.1857C31.0681 34.7268 31.0825 35.2548 31.0746 35.7863C31.0661 36.2051 31.0575 36.6238 31.0378 37.0556C31.0277 37.2264 31.0399 37.3937 31.0409 37.5515C31.0222 38.1411 31.0035 38.7306 30.9848 39.3202C30.9752 39.5812 30.9769 39.8517 30.9675 40.1352C30.9481 40.612 30.9065 41.0923 30.8982 41.5561C30.8995 41.7816 30.8898 42.02 30.8912 42.2454C30.8934 42.6061 30.8844 42.9573 30.8867 43.318C30.8876 43.4758 30.8887 43.6561 30.9343 43.8071C30.9574 43.9389 30.9136 44.081 30.9034 44.2293C30.9035 44.2518 30.8814 44.2778 30.8815 44.3003C30.7932 44.4493 30.6602 44.5826 30.6166 44.7472C30.4615 44.9065 30.3174 45.0527 30.1511 45.2024C30.0179 45.3132 29.9071 45.4205 29.8411 45.566C29.7529 45.7375 29.5975 45.8517 29.4869 46.0041C29.4206 46.1046 29.298 46.1122 29.2316 46.1901C29.1429 46.2714 29.076 46.2817 28.9977 46.2373C28.8859 46.1868 28.7855 46.191 28.6743 46.2307C28.4961 46.2806 28.3951 46.1721 28.3164 46.0601C28.2938 46.0184 28.2823 45.9638 28.282 45.9187C28.2679 45.4357 28.2427 44.9657 28.2843 44.4629C28.2837 44.3728 28.2832 44.2826 28.2826 44.1924C28.2818 44.0571 28.2699 43.9349 28.2803 43.8092C28.3124 43.5899 28.2999 43.3774 28.2985 43.152C28.2976 42.9942 28.2966 42.8364 28.318 42.6977C28.3821 42.2365 28.3906 41.7952 28.3767 41.3573C28.3741 40.929 28.3825 40.4877 28.4245 40.0525C28.4454 39.8237 28.4551 39.5852 28.4537 39.3598C28.4418 39.2375 28.4632 39.0989 28.4736 38.9732C28.4725 38.7928 28.4826 38.622 28.4926 38.4287C28.4909 38.1582 28.5005 37.8972 28.4988 37.6267C28.4981 37.514 28.4976 37.4238 28.5081 37.3206C28.5189 37.2626 28.5185 37.1949 28.518 37.1273C28.5176 37.0597 28.5061 37.005 28.5057 36.9374C28.4933 36.7249 28.5142 36.4961 28.5352 36.2898C28.4671 36.0972 28.488 35.8683 28.4978 35.6524C28.5084 35.5493 28.4966 35.4495 28.4848 35.3498C28.4714 34.9795 28.458 34.6093 28.4446 34.239C28.4443 34.194 28.4442 34.1714 28.4439 34.1263C28.4314 33.9139 28.4078 33.6919 28.3842 33.4924C28.3725 33.3927 28.3496 33.3059 28.3156 33.2096C28.2928 33.1229 28.2144 33.0785 28.1142 33.1052C27.8246 33.1498 27.5349 33.1943 27.2454 33.2614C26.9892 33.3121 26.733 33.3628 26.4991 33.4101C25.9422 33.5183 25.3965 33.6361 24.8396 33.7443C24.5389 33.8019 24.2271 33.8724 23.9376 33.9395C23.3029 34.0936 22.679 34.1895 22.0553 34.3081C21.6654 34.3793 21.2755 34.4506 20.8857 34.5218C20.106 34.6643 19.3262 34.8068 18.5465 34.9494C18.2458 35.0069 17.9337 35.0323 17.6328 35.0673C17.4322 35.0757 17.3652 35.0634 17.2871 35.0641C17.1644 35.0492 17.0748 34.9952 17.0405 34.8538C17.0172 34.6995 16.9829 34.5581 17.0042 34.3968C17.0459 33.9166 17.0765 33.4493 17.1181 32.969C17.1497 32.6596 17.2258 32.3432 17.3356 32.0556C17.3796 31.9585 17.4461 31.9032 17.5353 31.8895C17.6021 31.8792 17.669 31.8689 17.7247 31.8716C18.204 31.8317 18.6829 31.7242 19.1618 31.6392C19.574 31.5646 19.9861 31.4899 20.4093 31.4022C21.2559 31.2494 22.0913 31.0871 22.9377 30.9117C23.6171 30.7734 24.2965 30.635 24.9758 30.4966C25.5995 30.3556 26.2123 30.2726 26.8248 30.1445C27.1478 30.0835 27.4819 30.0096 27.8049 29.9486C27.8495 29.9418 27.9051 29.9219 27.9497 29.9151C27.9943 29.9082 28.0496 29.8433 28.0605 29.8078C28.06 29.7176 28.0817 29.624 28.0812 29.5338C28.0568 29.1991 28.0435 28.8514 28.0637 28.5098C28.0743 28.4066 28.0625 28.3069 28.0507 28.2072C28.0381 27.9722 28.0366 27.7242 28.0686 27.4824C28.0899 27.3211 28.1001 27.1729 28.0881 27.0281C28.0754 26.7705 28.0738 26.5225 28.0834 26.2616C28.0931 26.0232 28.0805 25.7882 28.079 25.5402C28.0755 24.9766 28.0833 24.4226 28.0798 23.859C28.0794 23.7914 28.09 23.7108 28.1007 23.6301C28.1003 23.5625 28.1111 23.5044 28.1107 23.4368C28.0941 22.5481 28.122 21.6525 28.1723 20.7534C28.1922 20.3668 28.2011 19.9931 28.2433 19.603C28.296 19.1097 28.3154 18.6329 28.3346 18.1335C28.3453 18.0529 28.3337 17.9757 28.3555 17.9046C28.3882 17.7755 28.4208 17.6464 28.4982 17.5329C28.6309 17.3546 28.7302 17.1701 28.9301 17.0491C28.9524 17.0456 28.9746 17.0197 28.9967 16.9937C29.1185 16.8508 29.2401 16.6855 29.3733 16.5747C29.5064 16.464 29.6282 16.3211 29.7501 16.2008C29.8055 16.1359 29.8495 16.0389 29.9159 15.961C29.9824 15.8831 30.0265 15.8086 30.0929 15.7307C30.2816 15.5775 30.4702 15.4244 30.6588 15.2713C30.7143 15.2289 30.7924 15.2282 30.8262 15.2794C30.8599 15.3306 30.8937 15.3818 30.9385 15.4201C30.9949 15.5129 31.0291 15.6318 31.0299 15.767C31.0207 16.0956 31.0115 16.4017 31.0023 16.7303C30.972 17.2426 30.9306 17.768 30.9003 18.2804C30.8588 18.7832 30.8396 19.2826 30.8203 19.7819C30.8108 20.0429 30.8124 20.3134 30.8141 20.584C30.8149 20.7192 30.8047 20.8675 30.8055 21.0027C30.7857 21.4119 30.7771 21.8307 30.7684 22.2269C30.7593 22.5555 30.7724 22.8807 30.7522 23.2222C30.7216 23.6895 30.7021 24.1438 30.7384 24.6008C30.7506 24.7682 30.7515 24.926 30.7414 25.0968C30.7363 26.0791 30.7535 27.0581 30.7483 28.0404C30.7508 28.4462 30.7756 28.8485 30.8004 29.2509C30.8005 29.2734 30.8118 29.3055 30.812 29.3281C30.8238 29.4278 30.9021 29.4722 30.9912 29.4585C31.0581 29.4482 31.1249 29.4379 31.1805 29.4181C31.2474 29.4078 31.3253 29.3845 31.4034 29.3838C31.8491 29.3378 32.2838 29.3047 32.7185 29.2717C32.7631 29.2649 32.8189 29.2676 32.8634 29.2607C33.5432 29.19 34.223 29.1193 34.903 29.0711C35.7724 29.005 36.6419 28.9615 37.4892 28.9214C38.0912 28.8965 38.6932 28.8716 39.2952 28.8467C39.6297 28.8404 39.9753 28.821 40.3098 28.8147C40.9341 28.7864 41.5585 28.7806 42.1828 28.7522C42.64 28.7383 43.1082 28.7114 43.5764 28.6845C43.7547 28.6797 43.9219 28.6652 44.1006 28.7054C44.2235 28.7429 44.3576 28.79 44.4694 28.8405C44.4806 28.85 44.5141 28.8562 44.5365 28.8753C44.6151 28.9647 44.6825 29.0446 44.7612 29.1341Z" fill="#E3311D"/>
</svg>
